<?xml version="1.0" standalone="no"?>
<!DOCTYPE svg PUBLIC "-//W3C//DTD SVG 1.1//EN" "http://www.w3.org/Graphics/SVG/1.1/DTD/svg11.dtd" >
<svg xmlns="http://www.w3.org/2000/svg" xmlns:xlink="http://www.w3.org/1999/xlink" version="1.1">
<metadata>
Created by FontForge 20200314 at Mon Sep 11 17:26:20 2023
 By User Azfonts
Copyright by Pangram Pangram Foundry. All rights reserved.
</metadata>
<defs>
<font id="PPNeueMontrealMono-Book" horiz-adv-x="600" vert-adv-y="1000" >
  <font-face 
    font-family="PP Neue Montreal Mono Book"
    font-weight="350"
    font-stretch="normal"
    units-per-em="1000"
    panose-1="0 0 0 0 0 0 0 0 0 0"
    ascent="800"
    descent="-200"
    x-height="510"
    cap-height="715"
    bbox="-262 -242 1768 958"
    underline-thickness="24"
    underline-position="-42"
    stemh="61"
    stemv="68"
    unicode-range="U+000D-FEFF"
  />
<missing-glyph vert-adv-y="1200" 
 />
    <glyph glyph-name="f_f" unicode="ff" vert-adv-y="1200" 
d="M107 0v453h-81v57h81v75c0 111 48 136 131 136c16 0 28 -1 51 -4v-55c-18 1 -27 2 -42 2c-61 0 -75 -15 -75 -78v-76h213v75c0 111 49 136 132 136c15 0 28 -1 51 -4v-55c-19 1 -27 2 -42 2c-61 0 -76 -15 -76 -78v-76h118v-57h-118v-453h-65v453h-213v-453h-65z" />
    <glyph glyph-name="f_f_i" unicode="ffi" horiz-adv-x="1200" vert-adv-y="1200" 
d="M1013 607v93h93v-93h-93zM93 453v57h156v75c0 111 48 136 171 136c30 0 62 -2 101 -6v-55c-35 3 -58 4 -102 4c-90 0 -105 -18 -105 -83v-71h326v75c0 111 48 136 171 136c30 0 62 -2 101 -6v-55c-36 3 -59 4 -102 4c-91 0 -105 -18 -105 -83v-71h397v-510h-65v453h-332
v-453h-65v453h-326v-453h-65v453h-156z" />
    <glyph glyph-name="f_i" unicode="fi" vert-adv-y="1200" 
d="M129 0v453h-103v57h103v75c0 111 49 136 132 136c15 0 28 -1 51 -4v-55c-18 1 -27 2 -42 2c-61 0 -76 -15 -76 -78v-76h308v-510h-65v453h-243v-453h-65zM413 607v93h93v-93h-93z" />
    <glyph glyph-name="f_l" unicode="fl" vert-adv-y="1200" 
d="M129 0v453h-103v57h103v75c0 111 49 136 132 136c15 0 28 -1 51 -4v-55c-18 1 -27 2 -42 2c-61 0 -76 -15 -76 -78v-76h118v-57h-118v-453h-65zM437 0v715h65v-715h-65z" />
    <glyph glyph-name=".notdef" vert-adv-y="1200" 
 />
    <glyph glyph-name=".null" horiz-adv-x="0" vert-adv-y="1200" 
 />
    <glyph glyph-name="CR" unicode="&#xd;" vert-adv-y="1200" 
 />
    <glyph glyph-name="space" unicode=" " vert-adv-y="1200" 
 />
    <glyph glyph-name="space" unicode="&#xa0;" vert-adv-y="1200" 
 />
    <glyph glyph-name="A" unicode="A" vert-adv-y="1200" 
d="M38 0l221 715h81l222 -715h-78l-57 198h-257l-56 -198h-76zM192 263h214l-105 383h-4z" />
    <glyph glyph-name="Aacute" unicode="&#xc1;" vert-adv-y="1200" 
d="M38 0l221 715h81l222 -715h-78l-57 198h-257l-56 -198h-76zM192 263h214l-105 383h-4zM265 798l62 132h78l-86 -132h-54z" />
    <glyph glyph-name="Abreve" unicode="&#x102;" vert-adv-y="1200" 
d="M38 0l221 715h81l222 -715h-78l-57 198h-257l-56 -198h-76zM175 920h50c5 -50 28 -78 74 -78s69 28 73 78h51c-4 -81 -52 -127 -124 -127c-71 0 -121 44 -124 127zM192 263h214l-105 383h-4z" />
    <glyph glyph-name="Acircumflex" unicode="&#xc2;" vert-adv-y="1200" 
d="M38 0l221 715h81l222 -715h-78l-57 198h-257l-56 -198h-76zM171 800l91 130h74l90 -130h-68l-59 93h-1l-59 -93h-68zM192 263h214l-105 383h-4z" />
    <glyph glyph-name="Adieresis" unicode="&#xc4;" vert-adv-y="1200" 
d="M38 0l221 715h81l222 -715h-78l-57 198h-257l-56 -198h-76zM183 817v84h84v-84h-84zM192 263h214l-105 383h-4zM332 817v84h84v-84h-84z" />
    <glyph glyph-name="Agrave" unicode="&#xc0;" vert-adv-y="1200" 
d="M38 0l221 715h81l222 -715h-78l-57 198h-257l-56 -198h-76zM188 930h79l55 -132h-54zM192 263h214l-105 383h-4z" />
    <glyph glyph-name="Amacron" unicode="&#x100;" vert-adv-y="1200" 
d="M38 0l221 715h81l222 -715h-78l-57 198h-257l-56 -198h-76zM175 822v57h249v-57h-249zM192 263h214l-105 383h-4z" />
    <glyph glyph-name="Aogonek" unicode="&#x104;" vert-adv-y="1200" 
d="M38 0l221 715h81l222 -715c-47 -33 -72 -63 -72 -89c0 -23 18 -37 45 -37c19 0 34 3 50 10v-49c-17 -6 -39 -11 -62 -11c-61 0 -91 31 -91 75c0 45 41 83 79 101h-27l-57 198h-257l-56 -198h-76zM192 263h214l-105 383h-4z" />
    <glyph glyph-name="Aring" unicode="&#xc5;" vert-adv-y="1200" 
d="M38 0l221 715h81l222 -715h-78l-57 198h-257l-56 -198h-76zM192 263h214l-105 383h-4zM212 851c0 51 36 85 86 85s86 -34 86 -85c0 -50 -36 -85 -86 -85s-86 35 -86 85zM249 851c0 -30 19 -51 49 -51s50 21 50 51c0 29 -20 51 -50 51s-49 -22 -49 -51z" />
    <glyph glyph-name="Atilde" unicode="&#xc3;" vert-adv-y="1200" 
d="M38 0l221 715h81l222 -715h-78l-57 198h-257l-56 -198h-76zM161 805c1 63 34 90 72 90c51 0 93 -41 124 -41c21 0 26 19 27 39h51c-1 -64 -34 -89 -72 -89c-50 0 -93 41 -124 41c-21 0 -26 -21 -27 -40h-51zM192 263h214l-105 383h-4z" />
    <glyph glyph-name="AE" unicode="&#xc6;" vert-adv-y="1200" 
d="M23 0l218 715h307v-64h-168v-246h134v-64h-134v-277h179v-64h-251v198h-153l-57 -198h-75zM173 263h135v386h-26z" />
    <glyph glyph-name="B" unicode="B" vert-adv-y="1200" 
d="M88 0v715h244c117 0 188 -68 188 -180c0 -84 -41 -129 -94 -151v-2c67 -16 118 -77 118 -177c0 -135 -80 -205 -198 -205h-258zM160 64h181c89 0 127 57 127 141s-45 139 -114 139h-194v-280zM160 408h176c74 0 108 49 108 120c0 74 -38 123 -109 123h-175v-243z" />
    <glyph glyph-name="C" unicode="C" vert-adv-y="1200" 
d="M311 -13c-157 0 -239 154 -239 371c0 213 82 370 239 370c131 0 206 -104 221 -241h-76c-14 97 -53 177 -147 177c-123 0 -162 -148 -162 -307c0 -165 43 -306 164 -306c107 0 139 106 146 203h76c-12 -156 -87 -267 -222 -267z" />
    <glyph glyph-name="Cacute" unicode="&#x106;" vert-adv-y="1200" 
d="M311 -13c-157 0 -239 154 -239 371c0 213 82 370 239 370c131 0 206 -104 221 -241h-76c-14 97 -53 177 -147 177c-123 0 -162 -148 -162 -307c0 -165 43 -306 164 -306c107 0 139 106 146 203h76c-12 -156 -87 -267 -222 -267zM278 798l62 132h78l-86 -132h-54z" />
    <glyph glyph-name="Ccaron" unicode="&#x10c;" vert-adv-y="1200" 
d="M311 -13c-157 0 -239 154 -239 371c0 213 82 370 239 370c131 0 206 -104 221 -241h-76c-14 97 -53 177 -147 177c-123 0 -162 -148 -162 -307c0 -165 43 -306 164 -306c107 0 139 106 146 203h76c-12 -156 -87 -267 -222 -267zM184 929h68l59 -93h2l59 93h67l-90 -130
h-74z" />
    <glyph glyph-name="Ccedilla" unicode="&#xc7;" vert-adv-y="1200" 
d="M291 -194c-39 0 -76 13 -103 30l19 22c23 -10 45 -16 72 -16c36 0 55 15 55 40c0 24 -16 33 -42 33c-14 0 -32 -3 -42 -8l-12 18l51 63c-143 14 -217 163 -217 370c0 213 82 370 239 370c131 0 206 -104 221 -241h-76c-14 97 -53 177 -147 177
c-123 0 -162 -148 -162 -307c0 -165 43 -306 164 -306c107 0 139 106 146 203h76c-11 -147 -79 -254 -200 -266l-35 -42v-2c45 8 94 -10 94 -63s-48 -75 -101 -75z" />
    <glyph glyph-name="Ccircumflex" unicode="&#x108;" vert-adv-y="1200" 
d="M311 -13c-157 0 -239 154 -239 371c0 213 82 370 239 370c131 0 206 -104 221 -241h-76c-14 97 -53 177 -147 177c-123 0 -162 -148 -162 -307c0 -165 43 -306 164 -306c107 0 139 106 146 203h76c-12 -156 -87 -267 -222 -267zM184 800l91 130h74l90 -130h-68l-59 93h-1
l-59 -93h-68z" />
    <glyph glyph-name="Cdotaccent" unicode="&#x10a;" vert-adv-y="1200" 
d="M311 -13c-157 0 -239 154 -239 371c0 213 82 370 239 370c131 0 206 -104 221 -241h-76c-14 97 -53 177 -147 177c-123 0 -162 -148 -162 -307c0 -165 43 -306 164 -306c107 0 139 106 146 203h76c-12 -156 -87 -267 -222 -267zM260 817v101h103v-101h-103z" />
    <glyph glyph-name="D" unicode="D" vert-adv-y="1200" 
d="M84 0v715h211c159 0 250 -140 250 -359s-91 -356 -250 -356h-211zM157 64h132c133 0 180 132 180 292c0 159 -45 295 -178 295h-134v-587z" />
    <glyph glyph-name="Dcaron" unicode="&#x10e;" vert-adv-y="1200" 
d="M84 0v715h211c159 0 250 -140 250 -359s-91 -356 -250 -356h-211zM123 929h68l59 -93h2l59 93h67l-90 -130h-74zM157 64h132c133 0 180 132 180 292c0 159 -45 295 -178 295h-134v-587z" />
    <glyph glyph-name="Dcroat" unicode="&#x110;" vert-adv-y="1200" 
d="M23 341v58h71v316h201c159 0 250 -140 250 -359s-91 -356 -250 -356h-201v341h-71zM167 64h122c133 0 180 132 180 292c0 159 -45 295 -178 295h-124v-252h166v-58h-166v-277z" />
    <glyph glyph-name="Eth" unicode="&#xd0;" vert-adv-y="1200" 
d="M23 341v58h71v316h201c159 0 250 -140 250 -359s-91 -356 -250 -356h-201v341h-71zM167 64h122c133 0 180 132 180 292c0 159 -45 295 -178 295h-124v-252h166v-58h-166v-277z" />
    <glyph glyph-name="E" unicode="E" vert-adv-y="1200" 
d="M98 0v715h433v-64h-360v-246h321v-64h-321v-277h370v-64h-443z" />
    <glyph glyph-name="Eacute" unicode="&#xc9;" vert-adv-y="1200" 
d="M98 0v715h433v-64h-360v-246h321v-64h-321v-277h370v-64h-443zM285 798l62 132h78l-86 -132h-54z" />
    <glyph glyph-name="Ecaron" unicode="&#x11a;" vert-adv-y="1200" 
d="M98 0v715h433v-64h-360v-246h321v-64h-321v-277h370v-64h-443zM191 929h68l59 -93h2l59 93h67l-90 -130h-74z" />
    <glyph glyph-name="Ecircumflex" unicode="&#xca;" vert-adv-y="1200" 
d="M98 0v715h433v-64h-360v-246h321v-64h-321v-277h370v-64h-443zM191 800l91 130h74l90 -130h-68l-59 93h-1l-59 -93h-68z" />
    <glyph glyph-name="Edieresis" unicode="&#xcb;" vert-adv-y="1200" 
d="M98 0v715h433v-64h-360v-246h321v-64h-321v-277h370v-64h-443zM202 817v84h84v-84h-84zM351 817v84h84v-84h-84z" />
    <glyph glyph-name="Edotaccent" unicode="&#x116;" vert-adv-y="1200" 
d="M98 0v715h433v-64h-360v-246h321v-64h-321v-277h370v-64h-443zM267 817v101h103v-101h-103z" />
    <glyph glyph-name="Egrave" unicode="&#xc8;" vert-adv-y="1200" 
d="M98 0v715h433v-64h-360v-246h321v-64h-321v-277h370v-64h-443zM208 930h79l55 -132h-54z" />
    <glyph glyph-name="Emacron" unicode="&#x112;" vert-adv-y="1200" 
d="M98 0v715h433v-64h-360v-246h321v-64h-321v-277h370v-64h-443zM194 822v57h249v-57h-249z" />
    <glyph glyph-name="Eogonek" unicode="&#x118;" vert-adv-y="1200" 
d="M98 0v715h433v-64h-360v-246h321v-64h-321v-277h370v-64c-47 -33 -72 -63 -72 -89c0 -23 18 -37 45 -37c19 0 34 3 50 10v-49c-17 -6 -39 -11 -62 -11c-61 0 -91 31 -91 75c0 45 41 83 79 101h-392z" />
    <glyph glyph-name="F" unicode="F" vert-adv-y="1200" 
d="M106 0v715h445v-64h-371v-253h307v-64h-307v-334h-74z" />
    <glyph glyph-name="G" unicode="G" vert-adv-y="1200" 
d="M296 -13c-153 0 -238 157 -238 366c0 215 89 375 251 375c120 0 200 -89 217 -225h-75c-13 104 -68 161 -143 161c-124 0 -174 -158 -174 -311c0 -146 44 -302 166 -302c100 0 160 106 161 251h-155v65h228v-367h-50l-16 127h-2c-32 -92 -87 -140 -170 -140z" />
    <glyph glyph-name="Gbreve" unicode="&#x11e;" vert-adv-y="1200" 
d="M296 -13c-153 0 -238 157 -238 366c0 215 89 375 251 375c120 0 200 -89 217 -225h-75c-13 104 -68 161 -143 161c-124 0 -174 -158 -174 -311c0 -146 44 -302 166 -302c100 0 160 106 161 251h-155v65h228v-367h-50l-16 127h-2c-32 -92 -87 -140 -170 -140zM180 920h50
c5 -50 28 -78 74 -78s69 28 73 78h51c-4 -81 -52 -127 -124 -127c-71 0 -121 44 -124 127z" />
    <glyph glyph-name="Gcircumflex" unicode="&#x11c;" vert-adv-y="1200" 
d="M296 -13c-153 0 -238 157 -238 366c0 215 89 375 251 375c120 0 200 -89 217 -225h-75c-13 104 -68 161 -143 161c-124 0 -174 -158 -174 -311c0 -146 44 -302 166 -302c100 0 160 106 161 251h-155v65h228v-367h-50l-16 127h-2c-32 -92 -87 -140 -170 -140zM176 800
l91 130h74l90 -130h-68l-59 93h-1l-59 -93h-68z" />
    <glyph glyph-name="uni0122" unicode="&#x122;" vert-adv-y="1200" 
d="M296 -13c-153 0 -238 157 -238 366c0 215 89 375 251 375c120 0 200 -89 217 -225h-75c-13 104 -68 161 -143 161c-124 0 -174 -158 -174 -311c0 -146 44 -302 166 -302c100 0 160 106 161 251h-155v65h228v-367h-50l-16 127h-2c-32 -92 -87 -140 -170 -140zM230 -224
l40 176h79l-68 -176h-51z" />
    <glyph glyph-name="Gdotaccent" unicode="&#x120;" vert-adv-y="1200" 
d="M296 -13c-153 0 -238 157 -238 366c0 215 89 375 251 375c120 0 200 -89 217 -225h-75c-13 104 -68 161 -143 161c-124 0 -174 -158 -174 -311c0 -146 44 -302 166 -302c100 0 160 106 161 251h-155v65h228v-367h-50l-16 127h-2c-32 -92 -87 -140 -170 -140zM252 817v101
h103v-101h-103z" />
    <glyph glyph-name="H" unicode="H" vert-adv-y="0" 
d="M81 0v715h73v-309h292v309h73v-715h-73v342h-292v-342h-73z" />
    <glyph glyph-name="Hbar" unicode="&#x126;" vert-adv-y="1200" 
d="M14 541v58h77v116h73v-116h272v116h73v-116h77v-58h-77v-541h-73v342h-272v-342h-73v541h-77zM164 406h272v135h-272v-135z" />
    <glyph glyph-name="Hcircumflex" unicode="&#x124;" vert-adv-y="1200" 
d="M81 0v715h73v-309h292v309h73v-715h-73v342h-292v-342h-73zM172 800l91 130h74l90 -130h-68l-59 93h-1l-59 -93h-68z" />
    <glyph glyph-name="I" unicode="I" vert-adv-y="1200" 
d="M88 0v64h175v587h-175v64h424v-64h-176v-587h176v-64h-424z" />
    <glyph glyph-name="Iacute" unicode="&#xcd;" vert-adv-y="1200" 
d="M266 798l62 132h78l-86 -132h-54zM88 0v64h175v587h-175v64h424v-64h-176v-587h176v-64h-424z" />
    <glyph glyph-name="Icircumflex" unicode="&#xce;" vert-adv-y="1200" 
d="M88 0v64h175v587h-175v64h424v-64h-176v-587h176v-64h-424zM172 800l91 130h74l90 -130h-68l-59 93h-1l-59 -93h-68z" />
    <glyph glyph-name="Idieresis" unicode="&#xcf;" vert-adv-y="1200" 
d="M333 817v84h84v-84h-84zM88 0v64h175v587h-175v64h424v-64h-176v-587h176v-64h-424zM184 817v84h84v-84h-84z" />
    <glyph glyph-name="Idotaccent" unicode="&#x130;" vert-adv-y="1200" 
d="M88 0v64h175v587h-175v64h424v-64h-176v-587h176v-64h-424zM249 817v101h103v-101h-103z" />
    <glyph glyph-name="Igrave" unicode="&#xcc;" vert-adv-y="1200" 
d="M88 0v64h175v587h-175v64h424v-64h-176v-587h176v-64h-424zM189 930h79l55 -132h-54z" />
    <glyph glyph-name="Imacron" unicode="&#x12a;" vert-adv-y="1200" 
d="M176 822v57h249v-57h-249zM88 0v64h175v587h-175v64h424v-64h-176v-587h176v-64h-424z" />
    <glyph glyph-name="Iogonek" unicode="&#x12e;" vert-adv-y="1200" 
d="M88 0v64h175v587h-175v64h424v-64h-176v-587h176v-64h-187c-47 -33 -72 -63 -72 -89c0 -23 18 -37 45 -37c19 0 34 3 50 10v-49c-17 -6 -39 -11 -62 -11c-61 0 -91 31 -91 75c0 45 41 83 79 101h-186z" />
    <glyph glyph-name="Itilde" unicode="&#x128;" vert-adv-y="1200" 
d="M162 805c1 63 34 90 72 90c51 0 93 -41 124 -41c21 0 26 19 27 39h51c-1 -64 -34 -89 -72 -89c-50 0 -93 41 -124 41c-21 0 -26 -21 -27 -40h-51zM88 0v64h175v587h-175v64h424v-64h-176v-587h176v-64h-424z" />
    <glyph glyph-name="J" unicode="J" vert-adv-y="1200" 
d="M269 -13c-158 0 -221 106 -221 220v23h73v-23c0 -91 41 -156 148 -156c108 0 151 65 151 156v508h73v-508c0 -114 -63 -220 -224 -220z" />
    <glyph glyph-name="Jcircumflex" unicode="&#x134;" vert-adv-y="1200" 
d="M269 -13c-158 0 -221 106 -221 220v23h73v-23c0 -91 41 -156 148 -156c108 0 151 65 151 156v508h73v-508c0 -114 -63 -220 -224 -220zM324 800l91 130h74l90 -130h-68l-59 93h-1l-59 -93h-68z" />
    <glyph glyph-name="K" unicode="K" vert-adv-y="1200" 
d="M91 0v715h72v-401l306 401h83l-229 -294l248 -421h-85l-208 363l-115 -147v-216h-72z" />
    <glyph glyph-name="uni0136" unicode="&#x136;" vert-adv-y="1200" 
d="M91 0v715h72v-401l306 401h83l-229 -294l248 -421h-85l-208 363l-115 -147v-216h-72zM242 -224l40 176h79l-68 -176h-51z" />
    <glyph glyph-name="L" unicode="L" vert-adv-y="1200" 
d="M120 0v715h73v-651h352v-64h-425z" />
    <glyph glyph-name="Lacute" unicode="&#x139;" vert-adv-y="1200" 
d="M120 0v715h73v-651h352v-64h-425zM114 798l62 132h78l-86 -132h-54z" />
    <glyph glyph-name="Lcaron" unicode="&#x13d;" vert-adv-y="1200" 
d="M120 0v715h73v-651h352v-64h-425zM346 527l24 188h77l-50 -188h-51z" />
    <glyph glyph-name="uni013B" unicode="&#x13b;" vert-adv-y="1200" 
d="M120 0v715h73v-651h352v-64h-425zM252 -224l40 176h79l-68 -176h-51z" />
    <glyph glyph-name="Lslash" unicode="&#x141;" vert-adv-y="1200" 
d="M40 201v64l93 64v386h73v-336l143 98v-64l-143 -98v-251h339v-64h-412v265z" />
    <glyph glyph-name="M" unicode="M" vert-adv-y="1200" 
d="M67 0v715h91l141 -474h2l141 474h91v-715h-73v603h-1l-126 -437h-67l-125 437h-1v-603h-73z" />
    <glyph glyph-name="N" unicode="N" vert-adv-y="1200" 
d="M81 0v715h89l275 -612h2v612h72v-715h-89l-276 612h-1v-612h-72z" />
    <glyph glyph-name="Nacute" unicode="&#x143;" vert-adv-y="1200" 
d="M81 0v715h89l275 -612h2v612h72v-715h-89l-276 612h-1v-612h-72zM266 798l62 132h78l-86 -132h-54z" />
    <glyph glyph-name="Ncaron" unicode="&#x147;" vert-adv-y="1200" 
d="M81 0v715h89l275 -612h2v612h72v-715h-89l-276 612h-1v-612h-72zM172 929h68l59 -93h2l59 93h67l-90 -130h-74z" />
    <glyph glyph-name="uni0145" unicode="&#x145;" vert-adv-y="1200" 
d="M81 0v715h89l275 -612h2v612h72v-715h-89l-276 612h-1v-612h-72zM221 -224l40 176h79l-68 -176h-51z" />
    <glyph glyph-name="Ntilde" unicode="&#xd1;" vert-adv-y="1200" 
d="M81 0v715h89l275 -612h2v612h72v-715h-89l-276 612h-1v-612h-72zM162 805c1 63 34 90 72 90c51 0 93 -41 124 -41c21 0 26 19 27 39h51c-1 -64 -34 -89 -72 -89c-50 0 -93 41 -124 41c-21 0 -26 -21 -27 -40h-51z" />
    <glyph glyph-name="Eng" unicode="&#x14a;" vert-adv-y="1200" 
d="M380 -178c-21 0 -38 2 -54 8v55c72 -13 110 12 113 102l-285 625h-1v-612h-72v715h89l275 -610h2v610h72v-709c0 -133 -53 -184 -139 -184z" />
    <glyph glyph-name="O" unicode="O" vert-adv-y="1200" 
d="M301 -13c-152 0 -245 137 -245 371s93 370 245 370c151 0 243 -136 243 -370s-92 -371 -243 -371zM132 358c0 -189 52 -307 169 -307c115 0 167 117 167 307s-52 306 -167 306c-117 0 -169 -117 -169 -306z" />
    <glyph glyph-name="Oacute" unicode="&#xd3;" vert-adv-y="1200" 
d="M301 -13c-152 0 -245 137 -245 371s93 370 245 370c151 0 243 -136 243 -370s-92 -371 -243 -371zM132 358c0 -189 52 -307 169 -307c115 0 167 117 167 307s-52 306 -167 306c-117 0 -169 -117 -169 -306zM266 798l62 132h78l-86 -132h-54z" />
    <glyph glyph-name="Ocircumflex" unicode="&#xd4;" vert-adv-y="1200" 
d="M301 -13c-152 0 -245 137 -245 371s93 370 245 370c151 0 243 -136 243 -370s-92 -371 -243 -371zM132 358c0 -189 52 -307 169 -307c115 0 167 117 167 307s-52 306 -167 306c-117 0 -169 -117 -169 -306zM172 800l91 130h74l90 -130h-68l-59 93h-1l-59 -93h-68z" />
    <glyph glyph-name="Odieresis" unicode="&#xd6;" vert-adv-y="1200" 
d="M301 -13c-152 0 -245 137 -245 371s93 370 245 370c151 0 243 -136 243 -370s-92 -371 -243 -371zM132 358c0 -189 52 -307 169 -307c115 0 167 117 167 307s-52 306 -167 306c-117 0 -169 -117 -169 -306zM184 817v84h84v-84h-84zM333 817v84h84v-84h-84z" />
    <glyph glyph-name="Ograve" unicode="&#xd2;" vert-adv-y="1200" 
d="M301 -13c-152 0 -245 137 -245 371s93 370 245 370c151 0 243 -136 243 -370s-92 -371 -243 -371zM132 358c0 -189 52 -307 169 -307c115 0 167 117 167 307s-52 306 -167 306c-117 0 -169 -117 -169 -306zM189 930h79l55 -132h-54z" />
    <glyph glyph-name="Ohungarumlaut" unicode="&#x150;" vert-adv-y="1200" 
d="M301 -13c-152 0 -245 137 -245 371s93 370 245 370c151 0 243 -136 243 -370s-92 -371 -243 -371zM132 358c0 -189 52 -307 169 -307c115 0 167 117 167 307s-52 306 -167 306c-117 0 -169 -117 -169 -306zM200 797l62 132h78l-86 -132h-54zM337 797l62 132h79l-87 -132
h-54z" />
    <glyph glyph-name="Omacron" unicode="&#x14c;" vert-adv-y="1200" 
d="M301 -13c-152 0 -245 137 -245 371s93 370 245 370c151 0 243 -136 243 -370s-92 -371 -243 -371zM132 358c0 -189 52 -307 169 -307c115 0 167 117 167 307s-52 306 -167 306c-117 0 -169 -117 -169 -306zM176 822v57h249v-57h-249z" />
    <glyph glyph-name="Oslash" unicode="&#xd8;" vert-adv-y="1200" 
d="M76 5l-29 29l57 81c-31 61 -48 143 -48 243c0 234 93 370 245 370c72 0 131 -31 172 -89l51 72l30 -29l-57 -81c30 -62 47 -143 47 -243c0 -234 -92 -371 -243 -371c-73 0 -132 31 -174 90zM132 358c0 -68 7 -127 21 -174l277 394c-27 55 -70 86 -129 86
c-117 0 -169 -117 -169 -306zM170 138c28 -56 71 -87 131 -87c115 0 167 117 167 307c0 68 -7 126 -20 173z" />
    <glyph glyph-name="Otilde" unicode="&#xd5;" vert-adv-y="1200" 
d="M301 -13c-152 0 -245 137 -245 371s93 370 245 370c151 0 243 -136 243 -370s-92 -371 -243 -371zM132 358c0 -189 52 -307 169 -307c115 0 167 117 167 307s-52 306 -167 306c-117 0 -169 -117 -169 -306zM162 805c1 63 34 90 72 90c51 0 93 -41 124 -41
c21 0 26 19 27 39h51c-1 -64 -34 -89 -72 -89c-50 0 -93 41 -124 41c-21 0 -26 -21 -27 -40h-51z" />
    <glyph glyph-name="OE" unicode="&#x152;" vert-adv-y="1200" 
d="M30 358c0 248 65 370 174 370c46 0 82 -22 108 -72v59h236v-64h-163v-246h129v-64h-129v-277h174v-64h-247v59c-25 -49 -61 -72 -108 -72c-109 0 -174 122 -174 371zM107 358c0 -208 33 -307 103 -307s102 98 102 306s-32 307 -102 307s-103 -98 -103 -306z" />
    <glyph glyph-name="P" unicode="P" vert-adv-y="1200" 
d="M98 0v715h243c117 0 204 -56 204 -206s-88 -207 -204 -207h-171v-302h-72zM170 366h173c81 0 126 45 126 143s-45 142 -126 142h-173v-285z" />
    <glyph glyph-name="Thorn" unicode="&#xde;" vert-adv-y="1200" 
d="M98 0v715h72v-117h172c116 0 203 -56 203 -206s-87 -207 -203 -207h-172v-185h-72zM170 249h175c82 0 128 44 128 143s-46 142 -128 142h-175v-285z" />
    <glyph glyph-name="Q" unicode="Q" vert-adv-y="1200" 
d="M301 -13c-152 0 -245 137 -245 371s93 370 245 370c151 0 243 -136 243 -370c0 -108 -20 -196 -56 -258l92 -92l-46 -46l-85 85c-39 -39 -89 -60 -148 -60zM132 358c0 -189 52 -307 169 -307c42 0 75 15 101 44l-102 102l46 45l90 -90c22 52 32 122 32 206
c0 190 -52 306 -167 306c-117 0 -169 -117 -169 -306z" />
    <glyph glyph-name="R" unicode="R" vert-adv-y="1200" 
d="M92 0v715h242c129 0 200 -71 200 -202c0 -95 -46 -160 -114 -180v-2c140 -33 92 -313 125 -325v-6h-78c-28 30 27 297 -130 297h-172v-297h-73zM165 361h153c91 0 144 50 144 151c0 92 -43 139 -140 139h-157v-290z" />
    <glyph glyph-name="Racute" unicode="&#x154;" vert-adv-y="1200" 
d="M92 0v715h242c129 0 200 -71 200 -202c0 -95 -46 -160 -114 -180v-2c140 -33 92 -313 125 -325v-6h-78c-28 30 27 297 -130 297h-172v-297h-73zM165 361h153c91 0 144 50 144 151c0 92 -43 139 -140 139h-157v-290zM259 798l62 132h78l-86 -132h-54z" />
    <glyph glyph-name="Rcaron" unicode="&#x158;" vert-adv-y="1200" 
d="M92 0v715h242c129 0 200 -71 200 -202c0 -95 -46 -160 -114 -180v-2c140 -33 92 -313 125 -325v-6h-78c-28 30 27 297 -130 297h-172v-297h-73zM165 361h153c91 0 144 50 144 151c0 92 -43 139 -140 139h-157v-290zM165 929h68l59 -93h2l59 93h67l-90 -130h-74z" />
    <glyph glyph-name="uni0156" unicode="&#x156;" vert-adv-y="1200" 
d="M92 0v715h242c129 0 200 -71 200 -202c0 -95 -46 -160 -114 -180v-2c140 -33 92 -313 125 -325v-6h-78c-28 30 27 297 -130 297h-172v-297h-73zM165 361h153c91 0 144 50 144 151c0 92 -43 139 -140 139h-157v-290zM232 -224l40 176h79l-68 -176h-51z" />
    <glyph glyph-name="S" unicode="S" vert-adv-y="1200" 
d="M322 -13c-151 0 -261 89 -269 250h76c8 -109 66 -187 191 -187c107 0 148 62 148 143c0 108 -65 125 -191 157c-100 27 -199 63 -199 194c0 114 83 184 212 184c139 0 225 -83 234 -219h-76c-10 99 -57 156 -158 156c-86 0 -136 -42 -136 -118c0 -95 68 -115 161 -138
c127 -33 229 -69 229 -214c0 -115 -73 -208 -222 -208z" />
    <glyph glyph-name="Sacute" unicode="&#x15a;" vert-adv-y="1200" 
d="M322 -13c-151 0 -261 89 -269 250h76c8 -109 66 -187 191 -187c107 0 148 62 148 143c0 108 -65 125 -191 157c-100 27 -199 63 -199 194c0 114 83 184 212 184c139 0 225 -83 234 -219h-76c-10 99 -57 156 -158 156c-86 0 -136 -42 -136 -118c0 -95 68 -115 161 -138
c127 -33 229 -69 229 -214c0 -115 -73 -208 -222 -208zM262 798l62 132h78l-86 -132h-54z" />
    <glyph glyph-name="Scaron" unicode="&#x160;" vert-adv-y="1200" 
d="M322 -13c-151 0 -261 89 -269 250h76c8 -109 66 -187 191 -187c107 0 148 62 148 143c0 108 -65 125 -191 157c-100 27 -199 63 -199 194c0 114 83 184 212 184c139 0 225 -83 234 -219h-76c-10 99 -57 156 -158 156c-86 0 -136 -42 -136 -118c0 -95 68 -115 161 -138
c127 -33 229 -69 229 -214c0 -115 -73 -208 -222 -208zM168 929h68l59 -93h2l59 93h67l-90 -130h-74z" />
    <glyph glyph-name="Scedilla" unicode="&#x15e;" vert-adv-y="1200" 
d="M302 -194c-39 0 -76 13 -103 30l19 22c23 -10 45 -16 72 -16c36 0 55 15 55 40c0 24 -16 33 -42 33c-14 0 -32 -3 -42 -8l-12 18l51 63c-140 8 -239 96 -247 249h76c8 -109 66 -187 191 -187c107 0 148 62 148 143c0 108 -65 125 -191 157c-100 27 -199 63 -199 194
c0 114 83 184 212 184c139 0 225 -83 234 -219h-76c-10 99 -57 156 -158 156c-86 0 -136 -42 -136 -118c0 -95 68 -115 161 -138c127 -33 229 -69 229 -214c0 -109 -66 -199 -200 -207l-35 -42v-2c45 8 94 -10 94 -63s-48 -75 -101 -75z" />
    <glyph glyph-name="Scircumflex" unicode="&#x15c;" vert-adv-y="1200" 
d="M322 -13c-151 0 -261 89 -269 250h76c8 -109 66 -187 191 -187c107 0 148 62 148 143c0 108 -65 125 -191 157c-100 27 -199 63 -199 194c0 114 83 184 212 184c139 0 225 -83 234 -219h-76c-10 99 -57 156 -158 156c-86 0 -136 -42 -136 -118c0 -95 68 -115 161 -138
c127 -33 229 -69 229 -214c0 -115 -73 -208 -222 -208zM168 800l91 130h74l90 -130h-68l-59 93h-1l-59 -93h-68z" />
    <glyph glyph-name="uni0218" unicode="&#x218;" vert-adv-y="1200" 
d="M322 -13c-151 0 -261 89 -269 250h76c8 -109 66 -187 191 -187c107 0 148 62 148 143c0 108 -65 125 -191 157c-100 27 -199 63 -199 194c0 114 83 184 212 184c139 0 225 -83 234 -219h-76c-10 99 -57 156 -158 156c-86 0 -136 -42 -136 -118c0 -95 68 -115 161 -138
c127 -33 229 -69 229 -214c0 -115 -73 -208 -222 -208zM250 -224l40 176h79l-68 -176h-51z" />
    <glyph glyph-name="T" unicode="T" vert-adv-y="1200" 
d="M264 0v651h-216v64h504v-64h-216v-651h-72z" />
    <glyph glyph-name="Tbar" unicode="&#x166;" vert-adv-y="1200" 
d="M264 0v341h-168v58h168v252h-216v64h504v-64h-216v-252h168v-58h-168v-341h-72z" />
    <glyph glyph-name="Tcaron" unicode="&#x164;" vert-adv-y="1200" 
d="M264 0v651h-216v64h504v-64h-216v-651h-72zM172 929h68l59 -93h2l59 93h67l-90 -130h-74z" />
    <glyph glyph-name="uni0162" unicode="&#x162;" vert-adv-y="1200" 
d="M264 0v651h-216v64h504v-64h-216v-651h-9l-45 -54v-2c45 8 94 -10 94 -63s-48 -75 -101 -75c-39 0 -76 13 -103 30l19 22c23 -10 45 -16 72 -16c36 0 55 15 55 40c0 24 -16 33 -42 33c-14 0 -32 -3 -42 -8l-12 18l61 75h-19z" />
    <glyph glyph-name="uni021A" unicode="&#x21a;" vert-adv-y="1200" 
d="M264 0v651h-216v64h504v-64h-216v-651h-72zM222 -224l40 176h79l-68 -176h-51z" />
    <glyph glyph-name="U" unicode="U" vert-adv-y="1200" 
d="M300 -13c-155 0 -219 102 -219 254v474h73v-474c0 -129 48 -190 146 -190c97 0 146 61 146 190v474h73v-474c0 -151 -64 -254 -219 -254z" />
    <glyph glyph-name="Uacute" unicode="&#xda;" vert-adv-y="1200" 
d="M300 -13c-155 0 -219 102 -219 254v474h73v-474c0 -129 48 -190 146 -190c97 0 146 61 146 190v474h73v-474c0 -151 -64 -254 -219 -254zM266 798l62 132h78l-86 -132h-54z" />
    <glyph glyph-name="Ubreve" unicode="&#x16c;" vert-adv-y="1200" 
d="M300 -13c-155 0 -219 102 -219 254v474h73v-474c0 -129 48 -190 146 -190c97 0 146 61 146 190v474h73v-474c0 -151 -64 -254 -219 -254zM176 920h50c5 -50 28 -78 74 -78s69 28 73 78h51c-4 -81 -52 -127 -124 -127c-71 0 -121 44 -124 127z" />
    <glyph glyph-name="Ucircumflex" unicode="&#xdb;" vert-adv-y="1200" 
d="M300 -13c-155 0 -219 102 -219 254v474h73v-474c0 -129 48 -190 146 -190c97 0 146 61 146 190v474h73v-474c0 -151 -64 -254 -219 -254zM172 800l91 130h74l90 -130h-68l-59 93h-1l-59 -93h-68z" />
    <glyph glyph-name="Udieresis" unicode="&#xdc;" vert-adv-y="1200" 
d="M300 -13c-155 0 -219 102 -219 254v474h73v-474c0 -129 48 -190 146 -190c97 0 146 61 146 190v474h73v-474c0 -151 -64 -254 -219 -254zM184 817v84h84v-84h-84zM333 817v84h84v-84h-84z" />
    <glyph glyph-name="Ugrave" unicode="&#xd9;" vert-adv-y="1200" 
d="M300 -13c-155 0 -219 102 -219 254v474h73v-474c0 -129 48 -190 146 -190c97 0 146 61 146 190v474h73v-474c0 -151 -64 -254 -219 -254zM189 930h79l55 -132h-54z" />
    <glyph glyph-name="Uhungarumlaut" unicode="&#x170;" vert-adv-y="1200" 
d="M300 -13c-155 0 -219 102 -219 254v474h73v-474c0 -129 48 -190 146 -190c97 0 146 61 146 190v474h73v-474c0 -151 -64 -254 -219 -254zM200 797l62 132h78l-86 -132h-54zM337 797l62 132h79l-87 -132h-54z" />
    <glyph glyph-name="Umacron" unicode="&#x16a;" vert-adv-y="1200" 
d="M300 -13c-155 0 -219 102 -219 254v474h73v-474c0 -129 48 -190 146 -190c97 0 146 61 146 190v474h73v-474c0 -151 -64 -254 -219 -254zM176 822v57h249v-57h-249z" />
    <glyph glyph-name="Uogonek" unicode="&#x172;" vert-adv-y="1200" 
d="M300 -13c-155 0 -219 102 -219 254v474h73v-474c0 -129 48 -190 146 -190c97 0 146 61 146 190v474h73v-474c0 -122 -42 -213 -140 -243c-45 -32 -69 -62 -69 -87c0 -23 18 -37 45 -37c19 0 34 3 50 10v-49c-17 -6 -39 -11 -62 -11c-61 0 -91 31 -91 75c0 36 26 68 56 88
h-8z" />
    <glyph glyph-name="Uring" unicode="&#x16e;" vert-adv-y="1200" 
d="M300 -13c-155 0 -219 102 -219 254v474h73v-474c0 -129 48 -190 146 -190c97 0 146 61 146 190v474h73v-474c0 -151 -64 -254 -219 -254zM213 851c0 51 36 85 86 85s86 -34 86 -85c0 -50 -36 -85 -86 -85s-86 35 -86 85zM250 851c0 -30 19 -51 49 -51s50 21 50 51
c0 29 -20 51 -50 51s-49 -22 -49 -51z" />
    <glyph glyph-name="Utilde" unicode="&#x168;" vert-adv-y="1200" 
d="M300 -13c-155 0 -219 102 -219 254v474h73v-474c0 -129 48 -190 146 -190c97 0 146 61 146 190v474h73v-474c0 -151 -64 -254 -219 -254zM162 805c1 63 34 90 72 90c51 0 93 -41 124 -41c21 0 26 19 27 39h51c-1 -64 -34 -89 -72 -89c-50 0 -93 41 -124 41
c-21 0 -26 -21 -27 -40h-51z" />
    <glyph glyph-name="V" unicode="V" vert-adv-y="1200" 
d="M264 0l-224 715h80l182 -641h1l181 641h76l-220 -715h-76z" />
    <glyph glyph-name="W" unicode="W" vert-adv-y="1200" 
d="M134 0l-94 715h73l63 -603h2l88 417h68l88 -417h2l63 603h73l-94 -715h-74l-92 454h-1l-91 -454h-74z" />
    <glyph glyph-name="Wacute" unicode="&#x1e82;" vert-adv-y="1200" 
d="M134 0l-94 715h73l63 -603h2l88 417h68l88 -417h2l63 603h73l-94 -715h-74l-92 454h-1l-91 -454h-74zM267 798l62 132h78l-86 -132h-54z" />
    <glyph glyph-name="Wcircumflex" unicode="&#x174;" vert-adv-y="1200" 
d="M134 0l-94 715h73l63 -603h2l88 417h68l88 -417h2l63 603h73l-94 -715h-74l-92 454h-1l-91 -454h-74zM173 800l91 130h74l90 -130h-68l-59 93h-1l-59 -93h-68z" />
    <glyph glyph-name="Wdieresis" unicode="&#x1e84;" vert-adv-y="1200" 
d="M134 0l-94 715h73l63 -603h2l88 417h68l88 -417h2l63 603h73l-94 -715h-74l-92 454h-1l-91 -454h-74zM185 817v84h84v-84h-84zM334 817v84h84v-84h-84z" />
    <glyph glyph-name="Wgrave" unicode="&#x1e80;" vert-adv-y="1200" 
d="M134 0l-94 715h73l63 -603h2l88 417h68l88 -417h2l63 603h73l-94 -715h-74l-92 454h-1l-91 -454h-74zM190 930h79l55 -132h-54z" />
    <glyph glyph-name="X" unicode="X" vert-adv-y="0" 
d="M36 0l222 367l-211 348h84l169 -296h1l172 296h81l-212 -349l223 -366h-85l-183 313h-1l-179 -313h-81z" />
    <glyph glyph-name="Y" unicode="Y" vert-adv-y="1200" 
d="M264 0v293l-240 422h79l196 -365h2l197 365h78l-240 -422v-293h-72z" />
    <glyph glyph-name="Yacute" unicode="&#xdd;" vert-adv-y="1200" 
d="M264 0v293l-240 422h79l196 -365h2l197 365h78l-240 -422v-293h-72zM267 798l62 132h78l-86 -132h-54z" />
    <glyph glyph-name="Ycircumflex" unicode="&#x176;" vert-adv-y="1200" 
d="M264 0v293l-240 422h79l196 -365h2l197 365h78l-240 -422v-293h-72zM173 800l91 130h74l90 -130h-68l-59 93h-1l-59 -93h-68z" />
    <glyph glyph-name="Ydieresis" unicode="&#x178;" vert-adv-y="1200" 
d="M264 0v293l-240 422h79l196 -365h2l197 365h78l-240 -422v-293h-72zM184 817v84h84v-84h-84zM333 817v84h84v-84h-84z" />
    <glyph glyph-name="Ygrave" unicode="&#x1ef2;" vert-adv-y="1200" 
d="M264 0v293l-240 422h79l196 -365h2l197 365h78l-240 -422v-293h-72zM190 930h79l55 -132h-54z" />
    <glyph glyph-name="Z" unicode="Z" vert-adv-y="1200" 
d="M52 0v63l400 586v2h-382v64h469v-63l-399 -586v-2h408v-64h-496z" />
    <glyph glyph-name="Zacute" unicode="&#x179;" vert-adv-y="1200" 
d="M52 0v63l400 586v2h-382v64h469v-63l-399 -586v-2h408v-64h-496zM269 798l62 132h78l-86 -132h-54z" />
    <glyph glyph-name="Zcaron" unicode="&#x17d;" vert-adv-y="1200" 
d="M52 0v63l400 586v2h-382v64h469v-63l-399 -586v-2h408v-64h-496zM175 929h68l59 -93h2l59 93h67l-90 -130h-74z" />
    <glyph glyph-name="Zdotaccent" unicode="&#x17b;" vert-adv-y="1200" 
d="M52 0v63l400 586v2h-382v64h469v-63l-399 -586v-2h408v-64h-496zM251 817v101h103v-101h-103z" />
    <glyph glyph-name="A.fina" vert-adv-y="1200" 
d="M-10 -177v64h673v941h-673v64h740v-1069h-740zM38 0l221 715h81l222 -715h-78l-57 198h-257l-56 -198h-76zM192 263h214l-105 383h-4z" />
    <glyph glyph-name="B.fina" vert-adv-y="1200" 
d="M-10 -177v64h673v941h-673v64h740v-1069h-740zM88 0v715h244c117 0 188 -68 188 -180c0 -84 -41 -129 -94 -151v-2c67 -16 118 -77 118 -177c0 -135 -80 -205 -198 -205h-258zM160 64h181c89 0 127 57 127 141s-45 139 -114 139h-194v-280zM160 408h176
c74 0 108 49 108 120c0 74 -38 123 -109 123h-175v-243z" />
    <glyph glyph-name="C.fina" vert-adv-y="1200" 
d="M-10 -177v64h673v941h-673v64h740v-1069h-740zM72 358c0 213 82 370 239 370c131 0 206 -104 221 -241h-76c-14 97 -53 177 -147 177c-123 0 -162 -148 -162 -307c0 -165 43 -306 164 -306c107 0 139 106 146 203h76c-12 -156 -87 -267 -222 -267
c-157 0 -239 154 -239 371z" />
    <glyph glyph-name="D.fina" vert-adv-y="1200" 
d="M-10 -177v64h673v941h-673v64h740v-1069h-740zM84 0v715h211c159 0 250 -140 250 -359s-91 -356 -250 -356h-211zM157 64h132c133 0 180 132 180 292c0 159 -45 295 -178 295h-134v-587z" />
    <glyph glyph-name="E.fina" vert-adv-y="1200" 
d="M-10 -177v64h673v941h-673v64h740v-1069h-740zM98 0v715h433v-64h-360v-246h321v-64h-321v-277h370v-64h-443z" />
    <glyph glyph-name="F.fina" vert-adv-y="1200" 
d="M-10 -177v64h673v941h-673v64h740v-1069h-740zM106 0v715h445v-64h-371v-253h307v-64h-307v-334h-74z" />
    <glyph glyph-name="G.fina" vert-adv-y="1200" 
d="M-10 -177v64h673v941h-673v64h740v-1069h-740zM58 353c0 215 89 375 251 375c120 0 200 -89 217 -225h-75c-13 104 -68 161 -143 161c-124 0 -174 -158 -174 -311c0 -146 44 -302 166 -302c100 0 160 106 161 251h-155v65h228v-367h-50l-16 127h-2
c-32 -92 -87 -140 -170 -140c-153 0 -238 157 -238 366z" />
    <glyph glyph-name="H.fina" vert-adv-y="1200" 
d="M-10 -177v64h673v941h-673v64h740v-1069h-740zM81 0v715h73v-309h292v309h73v-715h-73v342h-292v-342h-73z" />
    <glyph glyph-name="I.fina" vert-adv-y="1200" 
d="M-10 -177v64h673v941h-673v64h740v-1069h-740zM88 0v64h175v587h-175v64h424v-64h-176v-587h176v-64h-424z" />
    <glyph glyph-name="J.fina" vert-adv-y="1200" 
d="M-10 -177v64h673v941h-673v64h740v-1069h-740zM48 207v23h73v-23c0 -91 41 -156 148 -156c108 0 151 65 151 156v508h73v-508c0 -114 -63 -220 -224 -220c-158 0 -221 106 -221 220z" />
    <glyph glyph-name="K.fina" vert-adv-y="1200" 
d="M-10 -177v64h673v941h-673v64h740v-1069h-740zM91 0v715h72v-401l306 401h83l-229 -294l248 -421h-85l-208 363l-115 -147v-216h-72z" />
    <glyph glyph-name="L.fina" vert-adv-y="1200" 
d="M-10 -177v64h673v941h-673v64h740v-1069h-740zM120 0v715h73v-651h352v-64h-425z" />
    <glyph glyph-name="M.fina" vert-adv-y="1200" 
d="M-10 -177v64h673v941h-673v64h740v-1069h-740zM67 0v715h91l141 -474h2l141 474h91v-715h-73v603h-1l-126 -437h-67l-125 437h-1v-603h-73z" />
    <glyph glyph-name="N.fina" vert-adv-y="1200" 
d="M-10 -177v64h673v941h-673v64h740v-1069h-740zM81 0v715h89l275 -612h2v612h72v-715h-89l-276 612h-1v-612h-72z" />
    <glyph glyph-name="O.fina" vert-adv-y="1200" 
d="M-10 -177v64h673v941h-673v64h740v-1069h-740zM56 358c0 234 93 370 245 370c151 0 243 -136 243 -370s-92 -371 -243 -371c-152 0 -245 137 -245 371zM132 358c0 -189 52 -307 169 -307c115 0 167 117 167 307s-52 306 -167 306c-117 0 -169 -117 -169 -306z" />
    <glyph glyph-name="P.fina" vert-adv-y="1200" 
d="M-10 -177v64h673v941h-673v64h740v-1069h-740zM98 0v715h243c117 0 204 -56 204 -206s-88 -207 -204 -207h-171v-302h-72zM170 366h173c81 0 126 45 126 143s-45 142 -126 142h-173v-285z" />
    <glyph glyph-name="Q.fina" vert-adv-y="1200" 
d="M-10 -177v64h673v941h-673v64h740v-1069h-740zM56 358c0 234 93 370 245 370c151 0 243 -136 243 -370c0 -108 -20 -196 -56 -258l92 -92l-46 -46l-85 85c-39 -39 -89 -60 -148 -60c-152 0 -245 137 -245 371zM132 358c0 -189 52 -307 169 -307c42 0 75 15 101 44
l-102 102l46 45l90 -90c22 52 32 122 32 206c0 190 -52 306 -167 306c-117 0 -169 -117 -169 -306z" />
    <glyph glyph-name="R.fina" vert-adv-y="1200" 
d="M-10 -177v64h673v941h-673v64h740v-1069h-740zM92 0v715h242c129 0 200 -71 200 -202c0 -95 -46 -160 -114 -180v-2c140 -33 92 -313 125 -325v-6h-78c-28 30 27 297 -130 297h-172v-297h-73zM165 361h153c91 0 144 50 144 151c0 92 -43 139 -140 139h-157v-290z" />
    <glyph glyph-name="S.fina" vert-adv-y="1200" 
d="M-10 -177v64h673v941h-673v64h740v-1069h-740zM53 237h76c8 -109 66 -187 191 -187c107 0 148 62 148 143c0 108 -65 125 -191 157c-100 27 -199 63 -199 194c0 114 83 184 212 184c139 0 225 -83 234 -219h-76c-10 99 -57 156 -158 156c-86 0 -136 -42 -136 -118
c0 -95 68 -115 161 -138c127 -33 229 -69 229 -214c0 -115 -73 -208 -222 -208c-151 0 -261 89 -269 250z" />
    <glyph glyph-name="T.fina" vert-adv-y="1200" 
d="M-10 -177v64h673v941h-673v64h740v-1069h-740zM48 651v64h504v-64h-216v-651h-72v651h-216z" />
    <glyph glyph-name="U.fina" vert-adv-y="1200" 
d="M-10 -177v64h673v941h-673v64h740v-1069h-740zM81 241v474h73v-474c0 -129 48 -190 146 -190c97 0 146 61 146 190v474h73v-474c0 -151 -64 -254 -219 -254s-219 102 -219 254z" />
    <glyph glyph-name="V.fina" vert-adv-y="1200" 
d="M-10 -177v64h673v941h-673v64h740v-1069h-740zM40 715h80l182 -641h1l181 641h76l-220 -715h-76z" />
    <glyph glyph-name="W.fina" vert-adv-y="1200" 
d="M-10 -177v64h673v941h-673v64h740v-1069h-740zM40 715h73l63 -603h2l88 417h68l88 -417h2l63 603h73l-94 -715h-74l-92 454h-1l-91 -454h-74z" />
    <glyph glyph-name="X.fina" vert-adv-y="1200" 
d="M-10 -177v64h673v941h-673v64h740v-1069h-740zM36 0l222 367l-211 348h84l169 -296h1l172 296h81l-212 -349l223 -366h-85l-183 313h-1l-179 -313h-81z" />
    <glyph glyph-name="Y.fina" vert-adv-y="1200" 
d="M-10 -177v64h673v941h-673v64h740v-1069h-740zM24 715h79l196 -365h2l197 365h78l-240 -422v-293h-72v293z" />
    <glyph glyph-name="Z.fina" vert-adv-y="1200" 
d="M-10 -177v64h673v941h-673v64h740v-1069h-740zM52 0v63l400 586v2h-382v64h469v-63l-399 -586v-2h408v-64h-496z" />
    <glyph glyph-name="A.init" vert-adv-y="1200" 
d="M-130 -177v1069h740v-64h-673v-941h673v-64h-740zM38 0l221 715h81l222 -715h-78l-57 198h-257l-56 -198h-76zM192 263h214l-105 383h-4z" />
    <glyph glyph-name="B.init" vert-adv-y="1200" 
d="M-130 -177v1069h740v-64h-673v-941h673v-64h-740zM88 0v715h244c117 0 188 -68 188 -180c0 -84 -41 -129 -94 -151v-2c67 -16 118 -77 118 -177c0 -135 -80 -205 -198 -205h-258zM160 64h181c89 0 127 57 127 141s-45 139 -114 139h-194v-280zM160 408h176
c74 0 108 49 108 120c0 74 -38 123 -109 123h-175v-243z" />
    <glyph glyph-name="C.init" vert-adv-y="1200" 
d="M-130 -177v1069h740v-64h-673v-941h673v-64h-740zM72 358c0 213 82 370 239 370c131 0 206 -104 221 -241h-76c-14 97 -53 177 -147 177c-123 0 -162 -148 -162 -307c0 -165 43 -306 164 -306c107 0 139 106 146 203h76c-12 -156 -87 -267 -222 -267
c-157 0 -239 154 -239 371z" />
    <glyph glyph-name="D.init" vert-adv-y="1200" 
d="M-130 -177v1069h740v-64h-673v-941h673v-64h-740zM84 0v715h211c159 0 250 -140 250 -359s-91 -356 -250 -356h-211zM157 64h132c133 0 180 132 180 292c0 159 -45 295 -178 295h-134v-587z" />
    <glyph glyph-name="E.init" vert-adv-y="1200" 
d="M-130 -177v1069h740v-64h-673v-941h673v-64h-740zM98 0v715h433v-64h-360v-246h321v-64h-321v-277h370v-64h-443z" />
    <glyph glyph-name="F.init" vert-adv-y="1200" 
d="M-130 -177v1069h740v-64h-673v-941h673v-64h-740zM106 0v715h445v-64h-371v-253h307v-64h-307v-334h-74z" />
    <glyph glyph-name="G.init" vert-adv-y="1200" 
d="M-130 -177v1069h740v-64h-673v-941h673v-64h-740zM58 353c0 215 89 375 251 375c120 0 200 -89 217 -225h-75c-13 104 -68 161 -143 161c-124 0 -174 -158 -174 -311c0 -146 44 -302 166 -302c100 0 160 106 161 251h-155v65h228v-367h-50l-16 127h-2
c-32 -92 -87 -140 -170 -140c-153 0 -238 157 -238 366z" />
    <glyph glyph-name="H.init" vert-adv-y="1200" 
d="M-130 -177v1069h740v-64h-673v-941h673v-64h-740zM81 0v715h73v-309h292v309h73v-715h-73v342h-292v-342h-73z" />
    <glyph glyph-name="I.init" vert-adv-y="1200" 
d="M-130 -177v1069h740v-64h-673v-941h673v-64h-740zM88 0v64h175v587h-175v64h424v-64h-176v-587h176v-64h-424z" />
    <glyph glyph-name="J.init" vert-adv-y="1200" 
d="M-130 -177v1069h740v-64h-673v-941h673v-64h-740zM48 207v23h73v-23c0 -91 41 -156 148 -156c108 0 151 65 151 156v508h73v-508c0 -114 -63 -220 -224 -220c-158 0 -221 106 -221 220z" />
    <glyph glyph-name="K.init" vert-adv-y="1200" 
d="M-130 -177v1069h740v-64h-673v-941h673v-64h-740zM91 0v715h72v-401l306 401h83l-229 -294l248 -421h-85l-208 363l-115 -147v-216h-72z" />
    <glyph glyph-name="L.init" vert-adv-y="1200" 
d="M-130 -177v1069h740v-64h-673v-941h673v-64h-740zM120 0v715h73v-651h352v-64h-425z" />
    <glyph glyph-name="M.init" vert-adv-y="1200" 
d="M-130 -177v1069h740v-64h-673v-941h673v-64h-740zM67 0v715h91l141 -474h2l141 474h91v-715h-73v603h-1l-126 -437h-67l-125 437h-1v-603h-73z" />
    <glyph glyph-name="N.init" vert-adv-y="1200" 
d="M-130 -177v1069h740v-64h-673v-941h673v-64h-740zM81 0v715h89l275 -612h2v612h72v-715h-89l-276 612h-1v-612h-72z" />
    <glyph glyph-name="O.init" vert-adv-y="1200" 
d="M-130 -177v1069h740v-64h-673v-941h673v-64h-740zM56 358c0 234 93 370 245 370c151 0 243 -136 243 -370s-92 -371 -243 -371c-152 0 -245 137 -245 371zM132 358c0 -189 52 -307 169 -307c115 0 167 117 167 307s-52 306 -167 306c-117 0 -169 -117 -169 -306z" />
    <glyph glyph-name="P.init" vert-adv-y="1200" 
d="M-130 -177v1069h740v-64h-673v-941h673v-64h-740zM98 0v715h243c117 0 204 -56 204 -206s-88 -207 -204 -207h-171v-302h-72zM170 366h173c81 0 126 45 126 143s-45 142 -126 142h-173v-285z" />
    <glyph glyph-name="Q.init" vert-adv-y="1200" 
d="M-130 -177v1069h740v-64h-673v-941h673v-64h-740zM56 358c0 234 93 370 245 370c151 0 243 -136 243 -370c0 -108 -20 -196 -56 -258l92 -92l-46 -46l-85 85c-39 -39 -89 -60 -148 -60c-152 0 -245 137 -245 371zM132 358c0 -189 52 -307 169 -307c42 0 75 15 101 44
l-102 102l46 45l90 -90c22 52 32 122 32 206c0 190 -52 306 -167 306c-117 0 -169 -117 -169 -306z" />
    <glyph glyph-name="R.init" vert-adv-y="1200" 
d="M-130 -177v1069h740v-64h-673v-941h673v-64h-740zM92 0v715h242c129 0 200 -71 200 -202c0 -95 -46 -160 -114 -180v-2c140 -33 92 -313 125 -325v-6h-78c-28 30 27 297 -130 297h-172v-297h-73zM165 361h153c91 0 144 50 144 151c0 92 -43 139 -140 139h-157v-290z" />
    <glyph glyph-name="S.init" vert-adv-y="1200" 
d="M-130 -177v1069h740v-64h-673v-941h673v-64h-740zM53 237h76c8 -109 66 -187 191 -187c107 0 148 62 148 143c0 108 -65 125 -191 157c-100 27 -199 63 -199 194c0 114 83 184 212 184c139 0 225 -83 234 -219h-76c-10 99 -57 156 -158 156c-86 0 -136 -42 -136 -118
c0 -95 68 -115 161 -138c127 -33 229 -69 229 -214c0 -115 -73 -208 -222 -208c-151 0 -261 89 -269 250z" />
    <glyph glyph-name="T.init" vert-adv-y="1200" 
d="M-130 -177v1069h740v-64h-673v-941h673v-64h-740zM48 651v64h504v-64h-216v-651h-72v651h-216z" />
    <glyph glyph-name="U.init" vert-adv-y="1200" 
d="M-130 -177v1069h740v-64h-673v-941h673v-64h-740zM81 241v474h73v-474c0 -129 48 -190 146 -190c97 0 146 61 146 190v474h73v-474c0 -151 -64 -254 -219 -254s-219 102 -219 254z" />
    <glyph glyph-name="V.init" vert-adv-y="1200" 
d="M-130 -177v1069h740v-64h-673v-941h673v-64h-740zM40 715h80l182 -641h1l181 641h76l-220 -715h-76z" />
    <glyph glyph-name="W.init" vert-adv-y="1200" 
d="M-130 -177v1069h740v-64h-673v-941h673v-64h-740zM40 715h73l63 -603h2l88 417h68l88 -417h2l63 603h73l-94 -715h-74l-92 454h-1l-91 -454h-74z" />
    <glyph glyph-name="X.init" vert-adv-y="1200" 
d="M-130 -177v1069h740v-64h-673v-941h673v-64h-740zM36 0l222 367l-211 348h84l169 -296h1l172 296h81l-212 -349l223 -366h-85l-183 313h-1l-179 -313h-81z" />
    <glyph glyph-name="Y.init" vert-adv-y="1200" 
d="M-130 -177v1069h740v-64h-673v-941h673v-64h-740zM24 715h79l196 -365h2l197 365h78l-240 -422v-293h-72v293z" />
    <glyph glyph-name="Z.init" vert-adv-y="1200" 
d="M-130 -177v1069h740v-64h-673v-941h673v-64h-740zM52 0v63l400 586v2h-382v64h469v-63l-399 -586v-2h408v-64h-496z" />
    <glyph glyph-name="A.medi" vert-adv-y="1200" 
d="M-10 828v64h620v-64h-620zM-10 -177v64h620v-64h-620zM38 0l221 715h81l222 -715h-78l-57 198h-257l-56 -198h-76zM192 263h214l-105 383h-4z" />
    <glyph glyph-name="B.medi" vert-adv-y="1200" 
d="M-10 828v64h620v-64h-620zM-10 -177v64h620v-64h-620zM88 0v715h244c117 0 188 -68 188 -180c0 -84 -41 -129 -94 -151v-2c67 -16 118 -77 118 -177c0 -135 -80 -205 -198 -205h-258zM160 64h181c89 0 127 57 127 141s-45 139 -114 139h-194v-280zM160 408h176
c74 0 108 49 108 120c0 74 -38 123 -109 123h-175v-243z" />
    <glyph glyph-name="C.medi" vert-adv-y="1200" 
d="M-10 828v64h620v-64h-620zM-10 -177v64h620v-64h-620zM72 358c0 213 82 370 239 370c131 0 206 -104 221 -241h-76c-14 97 -53 177 -147 177c-123 0 -162 -148 -162 -307c0 -165 43 -306 164 -306c107 0 139 106 146 203h76c-12 -156 -87 -267 -222 -267
c-157 0 -239 154 -239 371z" />
    <glyph glyph-name="D.medi" vert-adv-y="1200" 
d="M-10 828v64h620v-64h-620zM-10 -177v64h620v-64h-620zM84 0v715h211c159 0 250 -140 250 -359s-91 -356 -250 -356h-211zM157 64h132c133 0 180 132 180 292c0 159 -45 295 -178 295h-134v-587z" />
    <glyph glyph-name="E.medi" vert-adv-y="1200" 
d="M-10 828v64h620v-64h-620zM-10 -177v64h620v-64h-620zM98 0v715h433v-64h-360v-246h321v-64h-321v-277h370v-64h-443z" />
    <glyph glyph-name="F.medi" vert-adv-y="1200" 
d="M-10 828v64h620v-64h-620zM-10 -177v64h620v-64h-620zM106 0v715h445v-64h-371v-253h307v-64h-307v-334h-74z" />
    <glyph glyph-name="G.medi" vert-adv-y="1200" 
d="M-10 828v64h620v-64h-620zM-10 -177v64h620v-64h-620zM58 353c0 215 89 375 251 375c120 0 200 -89 217 -225h-75c-13 104 -68 161 -143 161c-124 0 -174 -158 -174 -311c0 -146 44 -302 166 -302c100 0 160 106 161 251h-155v65h228v-367h-50l-16 127h-2
c-32 -92 -87 -140 -170 -140c-153 0 -238 157 -238 366z" />
    <glyph glyph-name="H.medi" vert-adv-y="1200" 
d="M-10 828v64h620v-64h-620zM-10 -177v64h620v-64h-620zM81 0v715h73v-309h292v309h73v-715h-73v342h-292v-342h-73z" />
    <glyph glyph-name="I.medi" vert-adv-y="1200" 
d="M-10 828v64h620v-64h-620zM-10 -177v64h620v-64h-620zM88 0v64h175v587h-175v64h424v-64h-176v-587h176v-64h-424z" />
    <glyph glyph-name="J.medi" vert-adv-y="1200" 
d="M-10 828v64h620v-64h-620zM-10 -177v64h620v-64h-620zM48 207v23h73v-23c0 -91 41 -156 148 -156c108 0 151 65 151 156v508h73v-508c0 -114 -63 -220 -224 -220c-158 0 -221 106 -221 220z" />
    <glyph glyph-name="K.medi" vert-adv-y="1200" 
d="M-10 828v64h620v-64h-620zM-10 -177v64h620v-64h-620zM91 0v715h72v-401l306 401h83l-229 -294l248 -421h-85l-208 363l-115 -147v-216h-72z" />
    <glyph glyph-name="L.medi" vert-adv-y="1200" 
d="M-10 828v64h620v-64h-620zM-10 -177v64h620v-64h-620zM120 0v715h73v-651h352v-64h-425z" />
    <glyph glyph-name="M.medi" vert-adv-y="1200" 
d="M-10 828v64h620v-64h-620zM-10 -177v64h620v-64h-620zM67 0v715h91l141 -474h2l141 474h91v-715h-73v603h-1l-126 -437h-67l-125 437h-1v-603h-73z" />
    <glyph glyph-name="N.medi" vert-adv-y="1200" 
d="M-10 828v64h620v-64h-620zM-10 -177v64h620v-64h-620zM81 0v715h89l275 -612h2v612h72v-715h-89l-276 612h-1v-612h-72z" />
    <glyph glyph-name="O.medi" vert-adv-y="1200" 
d="M-10 828v64h620v-64h-620zM-10 -177v64h620v-64h-620zM56 358c0 234 93 370 245 370c151 0 243 -136 243 -370s-92 -371 -243 -371c-152 0 -245 137 -245 371zM132 358c0 -189 52 -307 169 -307c115 0 167 117 167 307s-52 306 -167 306c-117 0 -169 -117 -169 -306z" />
    <glyph glyph-name="P.medi" vert-adv-y="1200" 
d="M-10 828v64h620v-64h-620zM-10 -177v64h620v-64h-620zM98 0v715h243c117 0 204 -56 204 -206s-88 -207 -204 -207h-171v-302h-72zM170 366h173c81 0 126 45 126 143s-45 142 -126 142h-173v-285z" />
    <glyph glyph-name="Q.medi" vert-adv-y="1200" 
d="M-10 828v64h620v-64h-620zM-10 -177v64h620v-64h-620zM56 358c0 234 93 370 245 370c151 0 243 -136 243 -370c0 -108 -20 -196 -56 -258l92 -92l-46 -46l-85 85c-39 -39 -89 -60 -148 -60c-152 0 -245 137 -245 371zM132 358c0 -189 52 -307 169 -307c42 0 75 15 101 44
l-102 102l46 45l90 -90c22 52 32 122 32 206c0 190 -52 306 -167 306c-117 0 -169 -117 -169 -306z" />
    <glyph glyph-name="R.medi" vert-adv-y="1200" 
d="M-10 828v64h620v-64h-620zM-10 -177v64h620v-64h-620zM92 0v715h242c129 0 200 -71 200 -202c0 -95 -46 -160 -114 -180v-2c140 -33 92 -313 125 -325v-6h-78c-28 30 27 297 -130 297h-172v-297h-73zM165 361h153c91 0 144 50 144 151c0 92 -43 139 -140 139h-157v-290z
" />
    <glyph glyph-name="S.medi" vert-adv-y="1200" 
d="M-10 828v64h620v-64h-620zM-10 -177v64h620v-64h-620zM53 237h76c8 -109 66 -187 191 -187c107 0 148 62 148 143c0 108 -65 125 -191 157c-100 27 -199 63 -199 194c0 114 83 184 212 184c139 0 225 -83 234 -219h-76c-10 99 -57 156 -158 156c-86 0 -136 -42 -136 -118
c0 -95 68 -115 161 -138c127 -33 229 -69 229 -214c0 -115 -73 -208 -222 -208c-151 0 -261 89 -269 250z" />
    <glyph glyph-name="T.medi" vert-adv-y="1200" 
d="M-10 828v64h620v-64h-620zM-10 -177v64h620v-64h-620zM48 651v64h504v-64h-216v-651h-72v651h-216z" />
    <glyph glyph-name="U.medi" vert-adv-y="1200" 
d="M-10 828v64h620v-64h-620zM-10 -177v64h620v-64h-620zM81 241v474h73v-474c0 -129 48 -190 146 -190c97 0 146 61 146 190v474h73v-474c0 -151 -64 -254 -219 -254s-219 102 -219 254z" />
    <glyph glyph-name="V.medi" vert-adv-y="1200" 
d="M-10 828v64h620v-64h-620zM-10 -177v64h620v-64h-620zM40 715h80l182 -641h1l181 641h76l-220 -715h-76z" />
    <glyph glyph-name="W.medi" vert-adv-y="1200" 
d="M-10 828v64h620v-64h-620zM-10 -177v64h620v-64h-620zM40 715h73l63 -603h2l88 417h68l88 -417h2l63 603h73l-94 -715h-74l-92 454h-1l-91 -454h-74z" />
    <glyph glyph-name="X.medi" vert-adv-y="1200" 
d="M-10 828v64h620v-64h-620zM-10 -177v64h620v-64h-620zM36 0l222 367l-211 348h84l169 -296h1l172 296h81l-212 -349l223 -366h-85l-183 313h-1l-179 -313h-81z" />
    <glyph glyph-name="Y.medi" vert-adv-y="1200" 
d="M-10 828v64h620v-64h-620zM-10 -177v64h620v-64h-620zM24 715h79l196 -365h2l197 365h78l-240 -422v-293h-72v293z" />
    <glyph glyph-name="Z.medi" vert-adv-y="1200" 
d="M-10 828v64h620v-64h-620zM-10 -177v64h620v-64h-620zM52 0v63l400 586v2h-382v64h469v-63l-399 -586v-2h408v-64h-496z" />
    <glyph glyph-name="Adieresis.ss02" vert-adv-y="1200" 
d="M38 0l221 715h81l222 -715h-78l-57 198h-257l-56 -198h-76zM181 857c0 24 16 45 44 45c29 0 45 -21 45 -45c0 -23 -16 -44 -45 -44c-28 0 -44 21 -44 44zM192 263h214l-105 383h-4zM329 857c0 24 16 45 44 45c29 0 45 -21 45 -45c0 -23 -16 -44 -45 -44
c-28 0 -44 21 -44 44z" />
    <glyph glyph-name="Cdotaccent.ss02" vert-adv-y="1200" 
d="M311 -13c-157 0 -239 154 -239 371c0 213 82 370 239 370c131 0 206 -104 221 -241h-76c-14 97 -53 177 -147 177c-123 0 -162 -148 -162 -307c0 -165 43 -306 164 -306c107 0 139 106 146 203h76c-12 -156 -87 -267 -222 -267zM257 867c0 31 19 55 54 55
c36 0 55 -24 55 -55c0 -30 -20 -54 -55 -54c-34 0 -54 24 -54 54z" />
    <glyph glyph-name="Edieresis.ss02" vert-adv-y="1200" 
d="M98 0v715h433v-64h-360v-246h321v-64h-321v-277h370v-64h-443zM200 857c0 24 16 45 44 45c29 0 45 -21 45 -45c0 -23 -16 -44 -45 -44c-28 0 -44 21 -44 44zM348 857c0 24 16 45 44 45c29 0 45 -21 45 -45c0 -23 -16 -44 -45 -44c-28 0 -44 21 -44 44z" />
    <glyph glyph-name="Edotaccent.ss02" vert-adv-y="1200" 
d="M98 0v715h433v-64h-360v-246h321v-64h-321v-277h370v-64h-443zM264 867c0 31 19 55 54 55c36 0 55 -24 55 -55c0 -30 -20 -54 -55 -54c-34 0 -54 24 -54 54z" />
    <glyph glyph-name="uni0122.ss02" vert-adv-y="1200" 
d="M296 -13c-153 0 -238 157 -238 366c0 215 89 375 251 375c120 0 200 -89 217 -225h-75c-13 104 -68 161 -143 161c-124 0 -174 -158 -174 -311c0 -146 44 -302 166 -302c100 0 160 106 161 251h-155v65h228v-367h-50l-16 127h-2c-32 -92 -87 -140 -170 -140zM230 -224
l40 176h79l-68 -176h-51z" />
    <glyph glyph-name="Gdotaccent.ss02" vert-adv-y="1200" 
d="M296 -13c-153 0 -238 157 -238 366c0 215 89 375 251 375c120 0 200 -89 217 -225h-75c-13 104 -68 161 -143 161c-124 0 -174 -158 -174 -311c0 -146 44 -302 166 -302c100 0 160 106 161 251h-155v65h228v-367h-50l-16 127h-2c-32 -92 -87 -140 -170 -140zM249 867
c0 31 19 55 54 55c36 0 55 -24 55 -55c0 -30 -20 -54 -55 -54c-34 0 -54 24 -54 54z" />
    <glyph glyph-name="Idieresis.ss02" vert-adv-y="1200" 
d="M88 0v64h175v587h-175v64h424v-64h-176v-587h176v-64h-424zM182 857c0 24 16 45 44 45c29 0 45 -21 45 -45c0 -23 -16 -44 -45 -44c-28 0 -44 21 -44 44zM330 857c0 24 16 45 44 45c29 0 45 -21 45 -45c0 -23 -16 -44 -45 -44c-28 0 -44 21 -44 44z" />
    <glyph glyph-name="Idotaccent.ss02" vert-adv-y="1200" 
d="M88 0v64h175v587h-175v64h424v-64h-176v-587h176v-64h-424zM245 867c0 31 19 55 54 55c36 0 55 -24 55 -55c0 -30 -20 -54 -55 -54c-34 0 -54 24 -54 54z" />
    <glyph glyph-name="uni0136.ss02" vert-adv-y="1200" 
d="M91 0v715h72v-401l306 401h83l-229 -294l248 -421h-85l-208 363l-115 -147v-216h-72zM242 -224l40 176h79l-68 -176h-51z" />
    <glyph glyph-name="uni013B.ss02" vert-adv-y="1200" 
d="M120 0v715h73v-651h352v-64h-425zM252 -224l40 176h79l-68 -176h-51z" />
    <glyph glyph-name="uni0145.ss02" vert-adv-y="1200" 
d="M81 0v715h89l275 -612h2v612h72v-715h-89l-276 612h-1v-612h-72zM221 -224l40 176h79l-68 -176h-51z" />
    <glyph glyph-name="Odieresis.ss02" vert-adv-y="1200" 
d="M301 -13c-152 0 -245 137 -245 371s93 370 245 370c151 0 243 -136 243 -370s-92 -371 -243 -371zM132 358c0 -189 52 -307 169 -307c115 0 167 117 167 307s-52 306 -167 306c-117 0 -169 -117 -169 -306zM182 857c0 24 16 45 44 45c29 0 45 -21 45 -45
c0 -23 -16 -44 -45 -44c-28 0 -44 21 -44 44zM330 857c0 24 16 45 44 45c29 0 45 -21 45 -45c0 -23 -16 -44 -45 -44c-28 0 -44 21 -44 44z" />
    <glyph glyph-name="uni0156.ss02" vert-adv-y="1200" 
d="M92 0v715h242c129 0 200 -71 200 -202c0 -95 -46 -160 -114 -180v-2c140 -33 92 -313 125 -325v-6h-78c-28 30 27 297 -130 297h-172v-297h-73zM165 361h153c91 0 144 50 144 151c0 92 -43 139 -140 139h-157v-290zM232 -224l40 176h79l-68 -176h-51z" />
    <glyph glyph-name="uni0218.ss02" vert-adv-y="1200" 
d="M322 -13c-151 0 -261 89 -269 250h76c8 -109 66 -187 191 -187c107 0 148 62 148 143c0 108 -65 125 -191 157c-100 27 -199 63 -199 194c0 114 83 184 212 184c139 0 225 -83 234 -219h-76c-10 99 -57 156 -158 156c-86 0 -136 -42 -136 -118c0 -95 68 -115 161 -138
c127 -33 229 -69 229 -214c0 -115 -73 -208 -222 -208zM250 -224l40 176h79l-68 -176h-51z" />
    <glyph glyph-name="uni021A.ss02" vert-adv-y="1200" 
d="M264 0v651h-216v64h504v-64h-216v-651h-72zM222 -224l40 176h79l-68 -176h-51z" />
    <glyph glyph-name="Udieresis.ss02" vert-adv-y="1200" 
d="M300 -13c-155 0 -219 102 -219 254v474h73v-474c0 -129 48 -190 146 -190c97 0 146 61 146 190v474h73v-474c0 -151 -64 -254 -219 -254zM182 857c0 24 16 45 44 45c29 0 45 -21 45 -45c0 -23 -16 -44 -45 -44c-28 0 -44 21 -44 44zM330 857c0 24 16 45 44 45
c29 0 45 -21 45 -45c0 -23 -16 -44 -45 -44c-28 0 -44 21 -44 44z" />
    <glyph glyph-name="Wdieresis.ss02" vert-adv-y="1200" 
d="M134 0l-94 715h73l63 -603h2l88 417h68l88 -417h2l63 603h73l-94 -715h-74l-92 454h-1l-91 -454h-74zM183 857c0 24 16 45 44 45c29 0 45 -21 45 -45c0 -23 -16 -44 -45 -44c-28 0 -44 21 -44 44zM331 857c0 24 16 45 44 45c29 0 45 -21 45 -45c0 -23 -16 -44 -45 -44
c-28 0 -44 21 -44 44z" />
    <glyph glyph-name="Ydieresis.ss02" vert-adv-y="1200" 
d="M264 0v293l-240 422h79l196 -365h2l197 365h78l-240 -422v-293h-72zM182 857c0 24 16 45 44 45c29 0 45 -21 45 -45c0 -23 -16 -44 -45 -44c-28 0 -44 21 -44 44zM330 857c0 24 16 45 44 45c29 0 45 -21 45 -45c0 -23 -16 -44 -45 -44c-28 0 -44 21 -44 44z" />
    <glyph glyph-name="Zdotaccent.ss02" vert-adv-y="1200" 
d="M52 0v63l400 586v2h-382v64h469v-63l-399 -586v-2h408v-64h-496zM248 867c0 31 19 55 54 55c36 0 55 -24 55 -55c0 -30 -20 -54 -55 -54c-34 0 -54 24 -54 54z" />
    <glyph glyph-name="A.fina.ss01" vert-adv-y="1200" 
d="M-10 -177v64h444c155 0 236 83 236 237v467c0 154 -81 237 -236 237h-444v64h444c200 0 302 -105 302 -301v-467c0 -197 -102 -301 -302 -301h-444zM38 0l221 715h81l222 -715h-78l-57 198h-257l-56 -198h-76zM192 263h214l-105 383h-4z" />
    <glyph glyph-name="B.fina.ss01" vert-adv-y="1200" 
d="M-10 -177v64h444c155 0 236 83 236 237v467c0 154 -81 237 -236 237h-444v64h444c200 0 302 -105 302 -301v-467c0 -197 -102 -301 -302 -301h-444zM88 0v715h244c117 0 188 -68 188 -180c0 -84 -41 -129 -94 -151v-2c67 -16 118 -77 118 -177c0 -135 -80 -205 -198 -205
h-258zM160 64h181c89 0 127 57 127 141s-45 139 -114 139h-194v-280zM160 408h176c74 0 108 49 108 120c0 74 -38 123 -109 123h-175v-243z" />
    <glyph glyph-name="C.fina.ss01" vert-adv-y="1200" 
d="M-10 -177v64h444c155 0 236 83 236 237v467c0 154 -81 237 -236 237h-444v64h444c200 0 302 -105 302 -301v-467c0 -197 -102 -301 -302 -301h-444zM72 358c0 213 82 370 239 370c131 0 206 -104 221 -241h-76c-14 97 -53 177 -147 177c-123 0 -162 -148 -162 -307
c0 -165 43 -306 164 -306c107 0 139 106 146 203h76c-12 -156 -87 -267 -222 -267c-157 0 -239 154 -239 371z" />
    <glyph glyph-name="D.fina.ss01" vert-adv-y="1200" 
d="M-10 -177v64h444c155 0 236 83 236 237v467c0 154 -81 237 -236 237h-444v64h444c200 0 302 -105 302 -301v-467c0 -197 -102 -301 -302 -301h-444zM84 0v715h211c159 0 250 -140 250 -359s-91 -356 -250 -356h-211zM157 64h132c133 0 180 132 180 292
c0 159 -45 295 -178 295h-134v-587z" />
    <glyph glyph-name="E.fina.ss01" vert-adv-y="1200" 
d="M-10 -177v64h444c155 0 236 83 236 237v467c0 154 -81 237 -236 237h-444v64h444c200 0 302 -105 302 -301v-467c0 -197 -102 -301 -302 -301h-444zM98 0v715h433v-64h-360v-246h321v-64h-321v-277h370v-64h-443z" />
    <glyph glyph-name="F.fina.ss01" vert-adv-y="1200" 
d="M-10 -177v64h444c155 0 236 83 236 237v467c0 154 -81 237 -236 237h-444v64h444c200 0 302 -105 302 -301v-467c0 -197 -102 -301 -302 -301h-444zM106 0v715h445v-64h-371v-253h307v-64h-307v-334h-74z" />
    <glyph glyph-name="G.fina.ss01" vert-adv-y="1200" 
d="M-10 -177v64h444c155 0 236 83 236 237v467c0 154 -81 237 -236 237h-444v64h444c200 0 302 -105 302 -301v-467c0 -197 -102 -301 -302 -301h-444zM58 353c0 215 89 375 251 375c120 0 200 -89 217 -225h-75c-13 104 -68 161 -143 161c-124 0 -174 -158 -174 -311
c0 -146 44 -302 166 -302c100 0 160 106 161 251h-155v65h228v-367h-50l-16 127h-2c-32 -92 -87 -140 -170 -140c-153 0 -238 157 -238 366z" />
    <glyph glyph-name="H.fina.ss01" vert-adv-y="1200" 
d="M-10 -177v64h444c155 0 236 83 236 237v467c0 154 -81 237 -236 237h-444v64h444c200 0 302 -105 302 -301v-467c0 -197 -102 -301 -302 -301h-444zM81 0v715h73v-309h292v309h73v-715h-73v342h-292v-342h-73z" />
    <glyph glyph-name="I.fina.ss01" vert-adv-y="1200" 
d="M-10 -177v64h444c155 0 236 83 236 237v467c0 154 -81 237 -236 237h-444v64h444c200 0 302 -105 302 -301v-467c0 -197 -102 -301 -302 -301h-444zM88 0v64h175v587h-175v64h424v-64h-176v-587h176v-64h-424z" />
    <glyph glyph-name="J.fina.ss01" vert-adv-y="1200" 
d="M-10 -177v64h444c155 0 236 83 236 237v467c0 154 -81 237 -236 237h-444v64h444c200 0 302 -105 302 -301v-467c0 -197 -102 -301 -302 -301h-444zM48 207v23h73v-23c0 -91 41 -156 148 -156c108 0 151 65 151 156v508h73v-508c0 -114 -63 -220 -224 -220
c-158 0 -221 106 -221 220z" />
    <glyph glyph-name="K.fina.ss01" vert-adv-y="1200" 
d="M-10 -177v64h444c155 0 236 83 236 237v467c0 154 -81 237 -236 237h-444v64h444c200 0 302 -105 302 -301v-467c0 -197 -102 -301 -302 -301h-444zM91 0v715h72v-401l306 401h83l-229 -294l248 -421h-85l-208 363l-115 -147v-216h-72z" />
    <glyph glyph-name="L.fina.ss01" vert-adv-y="1200" 
d="M-10 -177v64h444c155 0 236 83 236 237v467c0 154 -81 237 -236 237h-444v64h444c200 0 302 -105 302 -301v-467c0 -197 -102 -301 -302 -301h-444zM120 0v715h73v-651h352v-64h-425z" />
    <glyph glyph-name="M.fina.ss01" vert-adv-y="1200" 
d="M-10 -177v64h444c155 0 236 83 236 237v467c0 154 -81 237 -236 237h-444v64h444c200 0 302 -105 302 -301v-467c0 -197 -102 -301 -302 -301h-444zM67 0v715h91l141 -474h2l141 474h91v-715h-73v603h-1l-126 -437h-67l-125 437h-1v-603h-73z" />
    <glyph glyph-name="N.fina.ss01" vert-adv-y="1200" 
d="M-10 -177v64h444c155 0 236 83 236 237v467c0 154 -81 237 -236 237h-444v64h444c200 0 302 -105 302 -301v-467c0 -197 -102 -301 -302 -301h-444zM81 0v715h89l275 -612h2v612h72v-715h-89l-276 612h-1v-612h-72z" />
    <glyph glyph-name="O.fina.ss01" vert-adv-y="1200" 
d="M-10 -177v64h444c155 0 236 83 236 237v467c0 154 -81 237 -236 237h-444v64h444c200 0 302 -105 302 -301v-467c0 -197 -102 -301 -302 -301h-444zM56 358c0 234 93 370 245 370c151 0 243 -136 243 -370s-92 -371 -243 -371c-152 0 -245 137 -245 371zM132 358
c0 -189 52 -307 169 -307c115 0 167 117 167 307s-52 306 -167 306c-117 0 -169 -117 -169 -306z" />
    <glyph glyph-name="P.fina.ss01" vert-adv-y="1200" 
d="M-10 -177v64h444c155 0 236 83 236 237v467c0 154 -81 237 -236 237h-444v64h444c200 0 302 -105 302 -301v-467c0 -197 -102 -301 -302 -301h-444zM98 0v715h243c117 0 204 -56 204 -206s-88 -207 -204 -207h-171v-302h-72zM170 366h173c81 0 126 45 126 143
s-45 142 -126 142h-173v-285z" />
    <glyph glyph-name="Q.fina.ss01" vert-adv-y="1200" 
d="M-10 -177v64h444c155 0 236 83 236 237v467c0 154 -81 237 -236 237h-444v64h444c200 0 302 -105 302 -301v-467c0 -197 -102 -301 -302 -301h-444zM56 358c0 234 93 370 245 370c151 0 243 -136 243 -370c0 -108 -20 -196 -56 -258l92 -92l-46 -46l-85 85
c-39 -39 -89 -60 -148 -60c-152 0 -245 137 -245 371zM132 358c0 -189 52 -307 169 -307c42 0 75 15 101 44l-102 102l46 45l90 -90c22 52 32 122 32 206c0 190 -52 306 -167 306c-117 0 -169 -117 -169 -306z" />
    <glyph glyph-name="R.fina.ss01" vert-adv-y="1200" 
d="M-10 -177v64h444c155 0 236 83 236 237v467c0 154 -81 237 -236 237h-444v64h444c200 0 302 -105 302 -301v-467c0 -197 -102 -301 -302 -301h-444zM92 0v715h242c129 0 200 -71 200 -202c0 -95 -46 -160 -114 -180v-2c140 -33 92 -313 125 -325v-6h-78
c-28 30 27 297 -130 297h-172v-297h-73zM165 361h153c91 0 144 50 144 151c0 92 -43 139 -140 139h-157v-290z" />
    <glyph glyph-name="S.fina.ss01" vert-adv-y="1200" 
d="M-10 -177v64h444c155 0 236 83 236 237v467c0 154 -81 237 -236 237h-444v64h444c200 0 302 -105 302 -301v-467c0 -197 -102 -301 -302 -301h-444zM53 237h76c8 -109 66 -187 191 -187c107 0 148 62 148 143c0 108 -65 125 -191 157c-100 27 -199 63 -199 194
c0 114 83 184 212 184c139 0 225 -83 234 -219h-76c-10 99 -57 156 -158 156c-86 0 -136 -42 -136 -118c0 -95 68 -115 161 -138c127 -33 229 -69 229 -214c0 -115 -73 -208 -222 -208c-151 0 -261 89 -269 250z" />
    <glyph glyph-name="T.fina.ss01" vert-adv-y="1200" 
d="M-10 -177v64h444c155 0 236 83 236 237v467c0 154 -81 237 -236 237h-444v64h444c200 0 302 -105 302 -301v-467c0 -197 -102 -301 -302 -301h-444zM48 651v64h504v-64h-216v-651h-72v651h-216z" />
    <glyph glyph-name="U.fina.ss01" vert-adv-y="1200" 
d="M-10 -177v64h444c155 0 236 83 236 237v467c0 154 -81 237 -236 237h-444v64h444c200 0 302 -105 302 -301v-467c0 -197 -102 -301 -302 -301h-444zM81 241v474h73v-474c0 -129 48 -190 146 -190c97 0 146 61 146 190v474h73v-474c0 -151 -64 -254 -219 -254
s-219 102 -219 254z" />
    <glyph glyph-name="V.fina.ss01" vert-adv-y="1200" 
d="M-10 -177v64h444c155 0 236 83 236 237v467c0 154 -81 237 -236 237h-444v64h444c200 0 302 -105 302 -301v-467c0 -197 -102 -301 -302 -301h-444zM40 715h80l182 -641h1l181 641h76l-220 -715h-76z" />
    <glyph glyph-name="W.fina.ss01" vert-adv-y="1200" 
d="M-10 -177v64h444c155 0 236 83 236 237v467c0 154 -81 237 -236 237h-444v64h444c200 0 302 -105 302 -301v-467c0 -197 -102 -301 -302 -301h-444zM40 715h73l63 -603h2l88 417h68l88 -417h2l63 603h73l-94 -715h-74l-92 454h-1l-91 -454h-74z" />
    <glyph glyph-name="X.fina.ss01" vert-adv-y="1200" 
d="M-10 -177v64h444c155 0 236 83 236 237v467c0 154 -81 237 -236 237h-444v64h444c200 0 302 -105 302 -301v-467c0 -197 -102 -301 -302 -301h-444zM36 0l222 367l-211 348h84l169 -296h1l172 296h81l-212 -349l223 -366h-85l-183 313h-1l-179 -313h-81z" />
    <glyph glyph-name="Y.fina.ss01" vert-adv-y="1200" 
d="M-10 -177v64h444c155 0 236 83 236 237v467c0 154 -81 237 -236 237h-444v64h444c200 0 302 -105 302 -301v-467c0 -197 -102 -301 -302 -301h-444zM24 715h79l196 -365h2l197 365h78l-240 -422v-293h-72v293z" />
    <glyph glyph-name="Z.fina.ss01" vert-adv-y="1200" 
d="M-10 -177v64h444c155 0 236 83 236 237v467c0 154 -81 237 -236 237h-444v64h444c200 0 302 -105 302 -301v-467c0 -197 -102 -301 -302 -301h-444zM52 0v63l400 586v2h-382v64h469v-63l-399 -586v-2h408v-64h-496z" />
    <glyph glyph-name="A.init.ss01" vert-adv-y="1200" 
d="M166 -177c-200 0 -302 104 -302 301v467c0 196 102 301 302 301h444v-64h-444c-155 0 -236 -83 -236 -237v-467c0 -154 81 -237 236 -237h444v-64h-444zM38 0l221 715h81l222 -715h-78l-57 198h-257l-56 -198h-76zM192 263h214l-105 383h-4z" />
    <glyph glyph-name="B.init.ss01" vert-adv-y="1200" 
d="M166 -177c-200 0 -302 104 -302 301v467c0 196 102 301 302 301h444v-64h-444c-155 0 -236 -83 -236 -237v-467c0 -154 81 -237 236 -237h444v-64h-444zM88 0v715h244c117 0 188 -68 188 -180c0 -84 -41 -129 -94 -151v-2c67 -16 118 -77 118 -177
c0 -135 -80 -205 -198 -205h-258zM160 64h181c89 0 127 57 127 141s-45 139 -114 139h-194v-280zM160 408h176c74 0 108 49 108 120c0 74 -38 123 -109 123h-175v-243z" />
    <glyph glyph-name="C.init.ss01" vert-adv-y="1200" 
d="M166 -177c-200 0 -302 104 -302 301v467c0 196 102 301 302 301h444v-64h-444c-155 0 -236 -83 -236 -237v-467c0 -154 81 -237 236 -237h444v-64h-444zM72 358c0 213 82 370 239 370c131 0 206 -104 221 -241h-76c-14 97 -53 177 -147 177c-123 0 -162 -148 -162 -307
c0 -165 43 -306 164 -306c107 0 139 106 146 203h76c-12 -156 -87 -267 -222 -267c-157 0 -239 154 -239 371z" />
    <glyph glyph-name="D.init.ss01" vert-adv-y="1200" 
d="M166 -177c-200 0 -302 104 -302 301v467c0 196 102 301 302 301h444v-64h-444c-155 0 -236 -83 -236 -237v-467c0 -154 81 -237 236 -237h444v-64h-444zM84 0v715h211c159 0 250 -140 250 -359s-91 -356 -250 -356h-211zM157 64h132c133 0 180 132 180 292
c0 159 -45 295 -178 295h-134v-587z" />
    <glyph glyph-name="E.init.ss01" vert-adv-y="1200" 
d="M166 -177c-200 0 -302 104 -302 301v467c0 196 102 301 302 301h444v-64h-444c-155 0 -236 -83 -236 -237v-467c0 -154 81 -237 236 -237h444v-64h-444zM98 0v715h433v-64h-360v-246h321v-64h-321v-277h370v-64h-443z" />
    <glyph glyph-name="F.init.ss01" vert-adv-y="1200" 
d="M166 -177c-200 0 -302 104 -302 301v467c0 196 102 301 302 301h444v-64h-444c-155 0 -236 -83 -236 -237v-467c0 -154 81 -237 236 -237h444v-64h-444zM106 0v715h445v-64h-371v-253h307v-64h-307v-334h-74z" />
    <glyph glyph-name="G.init.ss01" vert-adv-y="1200" 
d="M166 -177c-200 0 -302 104 -302 301v467c0 196 102 301 302 301h444v-64h-444c-155 0 -236 -83 -236 -237v-467c0 -154 81 -237 236 -237h444v-64h-444zM58 353c0 215 89 375 251 375c120 0 200 -89 217 -225h-75c-13 104 -68 161 -143 161c-124 0 -174 -158 -174 -311
c0 -146 44 -302 166 -302c100 0 160 106 161 251h-155v65h228v-367h-50l-16 127h-2c-32 -92 -87 -140 -170 -140c-153 0 -238 157 -238 366z" />
    <glyph glyph-name="H.init.ss01" vert-adv-y="1200" 
d="M166 -177c-200 0 -302 104 -302 301v467c0 196 102 301 302 301h444v-64h-444c-155 0 -236 -83 -236 -237v-467c0 -154 81 -237 236 -237h444v-64h-444zM81 0v715h73v-309h292v309h73v-715h-73v342h-292v-342h-73z" />
    <glyph glyph-name="I.init.ss01" vert-adv-y="1200" 
d="M166 -177c-200 0 -302 104 -302 301v467c0 196 102 301 302 301h444v-64h-444c-155 0 -236 -83 -236 -237v-467c0 -154 81 -237 236 -237h444v-64h-444zM88 0v64h175v587h-175v64h424v-64h-176v-587h176v-64h-424z" />
    <glyph glyph-name="J.init.ss01" vert-adv-y="1200" 
d="M166 -177c-200 0 -302 104 -302 301v467c0 196 102 301 302 301h444v-64h-444c-155 0 -236 -83 -236 -237v-467c0 -154 81 -237 236 -237h444v-64h-444zM48 207v23h73v-23c0 -91 41 -156 148 -156c108 0 151 65 151 156v508h73v-508c0 -114 -63 -220 -224 -220
c-158 0 -221 106 -221 220z" />
    <glyph glyph-name="K.init.ss01" vert-adv-y="1200" 
d="M166 -177c-200 0 -302 104 -302 301v467c0 196 102 301 302 301h444v-64h-444c-155 0 -236 -83 -236 -237v-467c0 -154 81 -237 236 -237h444v-64h-444zM91 0v715h72v-401l306 401h83l-229 -294l248 -421h-85l-208 363l-115 -147v-216h-72z" />
    <glyph glyph-name="L.init.ss01" vert-adv-y="1200" 
d="M166 -177c-200 0 -302 104 -302 301v467c0 196 102 301 302 301h444v-64h-444c-155 0 -236 -83 -236 -237v-467c0 -154 81 -237 236 -237h444v-64h-444zM120 0v715h73v-651h352v-64h-425z" />
    <glyph glyph-name="M.init.ss01" vert-adv-y="1200" 
d="M166 -177c-200 0 -302 104 -302 301v467c0 196 102 301 302 301h444v-64h-444c-155 0 -236 -83 -236 -237v-467c0 -154 81 -237 236 -237h444v-64h-444zM67 0v715h91l141 -474h2l141 474h91v-715h-73v603h-1l-126 -437h-67l-125 437h-1v-603h-73z" />
    <glyph glyph-name="N.init.ss01" vert-adv-y="1200" 
d="M166 -177c-200 0 -302 104 -302 301v467c0 196 102 301 302 301h444v-64h-444c-155 0 -236 -83 -236 -237v-467c0 -154 81 -237 236 -237h444v-64h-444zM81 0v715h89l275 -612h2v612h72v-715h-89l-276 612h-1v-612h-72z" />
    <glyph glyph-name="O.init.ss01" vert-adv-y="1200" 
d="M166 -177c-200 0 -302 104 -302 301v467c0 196 102 301 302 301h444v-64h-444c-155 0 -236 -83 -236 -237v-467c0 -154 81 -237 236 -237h444v-64h-444zM56 358c0 234 93 370 245 370c151 0 243 -136 243 -370s-92 -371 -243 -371c-152 0 -245 137 -245 371zM132 358
c0 -189 52 -307 169 -307c115 0 167 117 167 307s-52 306 -167 306c-117 0 -169 -117 -169 -306z" />
    <glyph glyph-name="P.init.ss01" vert-adv-y="1200" 
d="M166 -177c-200 0 -302 104 -302 301v467c0 196 102 301 302 301h444v-64h-444c-155 0 -236 -83 -236 -237v-467c0 -154 81 -237 236 -237h444v-64h-444zM98 0v715h243c117 0 204 -56 204 -206s-88 -207 -204 -207h-171v-302h-72zM170 366h173c81 0 126 45 126 143
s-45 142 -126 142h-173v-285z" />
    <glyph glyph-name="Q.init.ss01" vert-adv-y="1200" 
d="M166 -177c-200 0 -302 104 -302 301v467c0 196 102 301 302 301h444v-64h-444c-155 0 -236 -83 -236 -237v-467c0 -154 81 -237 236 -237h444v-64h-444zM56 358c0 234 93 370 245 370c151 0 243 -136 243 -370c0 -108 -20 -196 -56 -258l92 -92l-46 -46l-85 85
c-39 -39 -89 -60 -148 -60c-152 0 -245 137 -245 371zM132 358c0 -189 52 -307 169 -307c42 0 75 15 101 44l-102 102l46 45l90 -90c22 52 32 122 32 206c0 190 -52 306 -167 306c-117 0 -169 -117 -169 -306z" />
    <glyph glyph-name="R.init.ss01" vert-adv-y="1200" 
d="M166 -177c-200 0 -302 104 -302 301v467c0 196 102 301 302 301h444v-64h-444c-155 0 -236 -83 -236 -237v-467c0 -154 81 -237 236 -237h444v-64h-444zM92 0v715h242c129 0 200 -71 200 -202c0 -95 -46 -160 -114 -180v-2c140 -33 92 -313 125 -325v-6h-78
c-28 30 27 297 -130 297h-172v-297h-73zM165 361h153c91 0 144 50 144 151c0 92 -43 139 -140 139h-157v-290z" />
    <glyph glyph-name="S.init.ss01" vert-adv-y="1200" 
d="M166 -177c-200 0 -302 104 -302 301v467c0 196 102 301 302 301h444v-64h-444c-155 0 -236 -83 -236 -237v-467c0 -154 81 -237 236 -237h444v-64h-444zM53 237h76c8 -109 66 -187 191 -187c107 0 148 62 148 143c0 108 -65 125 -191 157c-100 27 -199 63 -199 194
c0 114 83 184 212 184c139 0 225 -83 234 -219h-76c-10 99 -57 156 -158 156c-86 0 -136 -42 -136 -118c0 -95 68 -115 161 -138c127 -33 229 -69 229 -214c0 -115 -73 -208 -222 -208c-151 0 -261 89 -269 250z" />
    <glyph glyph-name="T.init.ss01" vert-adv-y="1200" 
d="M166 -177c-200 0 -302 104 -302 301v467c0 196 102 301 302 301h444v-64h-444c-155 0 -236 -83 -236 -237v-467c0 -154 81 -237 236 -237h444v-64h-444zM48 651v64h504v-64h-216v-651h-72v651h-216z" />
    <glyph glyph-name="U.init.ss01" vert-adv-y="1200" 
d="M166 -177c-200 0 -302 104 -302 301v467c0 196 102 301 302 301h444v-64h-444c-155 0 -236 -83 -236 -237v-467c0 -154 81 -237 236 -237h444v-64h-444zM81 241v474h73v-474c0 -129 48 -190 146 -190c97 0 146 61 146 190v474h73v-474c0 -151 -64 -254 -219 -254
s-219 102 -219 254z" />
    <glyph glyph-name="V.init.ss01" vert-adv-y="1200" 
d="M166 -177c-200 0 -302 104 -302 301v467c0 196 102 301 302 301h444v-64h-444c-155 0 -236 -83 -236 -237v-467c0 -154 81 -237 236 -237h444v-64h-444zM40 715h80l182 -641h1l181 641h76l-220 -715h-76z" />
    <glyph glyph-name="W.init.ss01" vert-adv-y="1200" 
d="M166 -177c-200 0 -302 104 -302 301v467c0 196 102 301 302 301h444v-64h-444c-155 0 -236 -83 -236 -237v-467c0 -154 81 -237 236 -237h444v-64h-444zM40 715h73l63 -603h2l88 417h68l88 -417h2l63 603h73l-94 -715h-74l-92 454h-1l-91 -454h-74z" />
    <glyph glyph-name="X.init.ss01" vert-adv-y="1200" 
d="M166 -177c-200 0 -302 104 -302 301v467c0 196 102 301 302 301h444v-64h-444c-155 0 -236 -83 -236 -237v-467c0 -154 81 -237 236 -237h444v-64h-444zM36 0l222 367l-211 348h84l169 -296h1l172 296h81l-212 -349l223 -366h-85l-183 313h-1l-179 -313h-81z" />
    <glyph glyph-name="Y.init.ss01" vert-adv-y="1200" 
d="M166 -177c-200 0 -302 104 -302 301v467c0 196 102 301 302 301h444v-64h-444c-155 0 -236 -83 -236 -237v-467c0 -154 81 -237 236 -237h444v-64h-444zM24 715h79l196 -365h2l197 365h78l-240 -422v-293h-72v293z" />
    <glyph glyph-name="Z.init.ss01" vert-adv-y="1200" 
d="M166 -177c-200 0 -302 104 -302 301v467c0 196 102 301 302 301h444v-64h-444c-155 0 -236 -83 -236 -237v-467c0 -154 81 -237 236 -237h444v-64h-444zM52 0v63l400 586v2h-382v64h469v-63l-399 -586v-2h408v-64h-496z" />
    <glyph glyph-name="A.fina.ss02" vert-adv-y="1200" 
d="M-10 -177v64h570l221 471l-221 470h-570v64h621l251 -534l-251 -535h-621zM38 0l221 715h81l222 -715h-78l-57 198h-257l-56 -198h-76zM192 263h214l-105 383h-4z" />
    <glyph glyph-name="B.fina.ss02" vert-adv-y="1200" 
d="M-10 -177v64h570l221 471l-221 470h-570v64h621l251 -534l-251 -535h-621zM88 0v715h244c117 0 188 -68 188 -180c0 -84 -41 -129 -94 -151v-2c67 -16 118 -77 118 -177c0 -135 -80 -205 -198 -205h-258zM160 64h181c89 0 127 57 127 141s-45 139 -114 139h-194v-280z
M160 408h176c74 0 108 49 108 120c0 74 -38 123 -109 123h-175v-243z" />
    <glyph glyph-name="C.fina.ss02" vert-adv-y="1200" 
d="M-10 -177v64h570l221 471l-221 470h-570v64h621l251 -534l-251 -535h-621zM72 358c0 213 82 370 239 370c131 0 206 -104 221 -241h-76c-14 97 -53 177 -147 177c-123 0 -162 -148 -162 -307c0 -165 43 -306 164 -306c107 0 139 106 146 203h76
c-12 -156 -87 -267 -222 -267c-157 0 -239 154 -239 371z" />
    <glyph glyph-name="D.fina.ss02" vert-adv-y="1200" 
d="M-10 -177v64h570l221 471l-221 470h-570v64h621l251 -534l-251 -535h-621zM84 0v715h211c159 0 250 -140 250 -359s-91 -356 -250 -356h-211zM157 64h132c133 0 180 132 180 292c0 159 -45 295 -178 295h-134v-587z" />
    <glyph glyph-name="E.fina.ss02" vert-adv-y="1200" 
d="M-10 -177v64h570l221 471l-221 470h-570v64h621l251 -534l-251 -535h-621zM98 0v715h433v-64h-360v-246h321v-64h-321v-277h370v-64h-443z" />
    <glyph glyph-name="F.fina.ss02" vert-adv-y="1200" 
d="M-10 -177v64h570l221 471l-221 470h-570v64h621l251 -534l-251 -535h-621zM106 0v715h445v-64h-371v-253h307v-64h-307v-334h-74z" />
    <glyph glyph-name="G.fina.ss02" vert-adv-y="1200" 
d="M-10 -177v64h570l221 471l-221 470h-570v64h621l251 -534l-251 -535h-621zM58 353c0 215 89 375 251 375c120 0 200 -89 217 -225h-75c-13 104 -68 161 -143 161c-124 0 -174 -158 -174 -311c0 -146 44 -302 166 -302c100 0 160 106 161 251h-155v65h228v-367h-50
l-16 127h-2c-32 -92 -87 -140 -170 -140c-153 0 -238 157 -238 366z" />
    <glyph glyph-name="H.fina.ss02" vert-adv-y="1200" 
d="M-10 -177v64h570l221 471l-221 470h-570v64h621l251 -534l-251 -535h-621zM81 0v715h73v-309h292v309h73v-715h-73v342h-292v-342h-73z" />
    <glyph glyph-name="I.fina.ss02" vert-adv-y="1200" 
d="M-10 -177v64h570l221 471l-221 470h-570v64h621l251 -534l-251 -535h-621zM88 0v64h175v587h-175v64h424v-64h-176v-587h176v-64h-424z" />
    <glyph glyph-name="J.fina.ss02" vert-adv-y="1200" 
d="M-10 -177v64h570l221 471l-221 470h-570v64h621l251 -534l-251 -535h-621zM48 207v23h73v-23c0 -91 41 -156 148 -156c108 0 151 65 151 156v508h73v-508c0 -114 -63 -220 -224 -220c-158 0 -221 106 -221 220z" />
    <glyph glyph-name="K.fina.ss02" vert-adv-y="1200" 
d="M-10 -177v64h570l221 471l-221 470h-570v64h621l251 -534l-251 -535h-621zM91 0v715h72v-401l306 401h83l-229 -294l248 -421h-85l-208 363l-115 -147v-216h-72z" />
    <glyph glyph-name="L.fina.ss02" vert-adv-y="1200" 
d="M-10 -177v64h570l221 471l-221 470h-570v64h621l251 -534l-251 -535h-621zM120 0v715h73v-651h352v-64h-425z" />
    <glyph glyph-name="M.fina.ss02" vert-adv-y="1200" 
d="M-10 -177v64h570l221 471l-221 470h-570v64h621l251 -534l-251 -535h-621zM67 0v715h91l141 -474h2l141 474h91v-715h-73v603h-1l-126 -437h-67l-125 437h-1v-603h-73z" />
    <glyph glyph-name="N.fina.ss02" vert-adv-y="1200" 
d="M-10 -177v64h570l221 471l-221 470h-570v64h621l251 -534l-251 -535h-621zM81 0v715h89l275 -612h2v612h72v-715h-89l-276 612h-1v-612h-72z" />
    <glyph glyph-name="O.fina.ss02" vert-adv-y="1200" 
d="M-10 -177v64h570l221 471l-221 470h-570v64h621l251 -534l-251 -535h-621zM56 358c0 234 93 370 245 370c151 0 243 -136 243 -370s-92 -371 -243 -371c-152 0 -245 137 -245 371zM132 358c0 -189 52 -307 169 -307c115 0 167 117 167 307s-52 306 -167 306
c-117 0 -169 -117 -169 -306z" />
    <glyph glyph-name="P.fina.ss02" vert-adv-y="1200" 
d="M-10 -177v64h570l221 471l-221 470h-570v64h621l251 -534l-251 -535h-621zM98 0v715h243c117 0 204 -56 204 -206s-88 -207 -204 -207h-171v-302h-72zM170 366h173c81 0 126 45 126 143s-45 142 -126 142h-173v-285z" />
    <glyph glyph-name="Q.fina.ss02" vert-adv-y="1200" 
d="M-10 -177v64h570l221 471l-221 470h-570v64h621l251 -534l-251 -535h-621zM56 358c0 234 93 370 245 370c151 0 243 -136 243 -370c0 -108 -20 -196 -56 -258l92 -92l-46 -46l-85 85c-39 -39 -89 -60 -148 -60c-152 0 -245 137 -245 371zM132 358
c0 -189 52 -307 169 -307c42 0 75 15 101 44l-102 102l46 45l90 -90c22 52 32 122 32 206c0 190 -52 306 -167 306c-117 0 -169 -117 -169 -306z" />
    <glyph glyph-name="R.fina.ss02" vert-adv-y="1200" 
d="M-10 -177v64h570l221 471l-221 470h-570v64h621l251 -534l-251 -535h-621zM92 0v715h242c129 0 200 -71 200 -202c0 -95 -46 -160 -114 -180v-2c140 -33 92 -313 125 -325v-6h-78c-28 30 27 297 -130 297h-172v-297h-73zM165 361h153c91 0 144 50 144 151
c0 92 -43 139 -140 139h-157v-290z" />
    <glyph glyph-name="S.fina.ss02" vert-adv-y="1200" 
d="M-10 -177v64h570l221 471l-221 470h-570v64h621l251 -534l-251 -535h-621zM53 237h76c8 -109 66 -187 191 -187c107 0 148 62 148 143c0 108 -65 125 -191 157c-100 27 -199 63 -199 194c0 114 83 184 212 184c139 0 225 -83 234 -219h-76c-10 99 -57 156 -158 156
c-86 0 -136 -42 -136 -118c0 -95 68 -115 161 -138c127 -33 229 -69 229 -214c0 -115 -73 -208 -222 -208c-151 0 -261 89 -269 250z" />
    <glyph glyph-name="T.fina.ss02" vert-adv-y="1200" 
d="M-10 -177v64h570l221 471l-221 470h-570v64h621l251 -534l-251 -535h-621zM48 651v64h504v-64h-216v-651h-72v651h-216z" />
    <glyph glyph-name="U.fina.ss02" vert-adv-y="1200" 
d="M-10 -177v64h570l221 471l-221 470h-570v64h621l251 -534l-251 -535h-621zM81 241v474h73v-474c0 -129 48 -190 146 -190c97 0 146 61 146 190v474h73v-474c0 -151 -64 -254 -219 -254s-219 102 -219 254z" />
    <glyph glyph-name="V.fina.ss02" vert-adv-y="1200" 
d="M-10 -177v64h570l221 471l-221 470h-570v64h621l251 -534l-251 -535h-621zM40 715h80l182 -641h1l181 641h76l-220 -715h-76z" />
    <glyph glyph-name="W.fina.ss02" vert-adv-y="1200" 
d="M-10 -177v64h570l221 471l-221 470h-570v64h621l251 -534l-251 -535h-621zM40 715h73l63 -603h2l88 417h68l88 -417h2l63 603h73l-94 -715h-74l-92 454h-1l-91 -454h-74z" />
    <glyph glyph-name="X.fina.ss02" vert-adv-y="1200" 
d="M-10 -177v64h570l221 471l-221 470h-570v64h621l251 -534l-251 -535h-621zM36 0l222 367l-211 348h84l169 -296h1l172 296h81l-212 -349l223 -366h-85l-183 313h-1l-179 -313h-81z" />
    <glyph glyph-name="Y.fina.ss02" vert-adv-y="1200" 
d="M-10 -177v64h570l221 471l-221 470h-570v64h621l251 -534l-251 -535h-621zM24 715h79l196 -365h2l197 365h78l-240 -422v-293h-72v293z" />
    <glyph glyph-name="Z.fina.ss02" vert-adv-y="1200" 
d="M-10 -177v64h570l221 471l-221 470h-570v64h621l251 -534l-251 -535h-621zM52 0v63l400 586v2h-382v64h469v-63l-399 -586v-2h408v-64h-496z" />
    <glyph glyph-name="A.init.ss02" vert-adv-y="1200" 
d="M-11 -177l-251 535l251 534h621v-64h-570l-221 -470l221 -471h570v-64h-621zM38 0l221 715h81l222 -715h-78l-57 198h-257l-56 -198h-76zM192 263h214l-105 383h-4z" />
    <glyph glyph-name="B.init.ss02" vert-adv-y="1200" 
d="M-11 -177l-251 535l251 534h621v-64h-570l-221 -470l221 -471h570v-64h-621zM88 0v715h244c117 0 188 -68 188 -180c0 -84 -41 -129 -94 -151v-2c67 -16 118 -77 118 -177c0 -135 -80 -205 -198 -205h-258zM160 64h181c89 0 127 57 127 141s-45 139 -114 139h-194v-280z
M160 408h176c74 0 108 49 108 120c0 74 -38 123 -109 123h-175v-243z" />
    <glyph glyph-name="C.init.ss02" vert-adv-y="1200" 
d="M-11 -177l-251 535l251 534h621v-64h-570l-221 -470l221 -471h570v-64h-621zM72 358c0 213 82 370 239 370c131 0 206 -104 221 -241h-76c-14 97 -53 177 -147 177c-123 0 -162 -148 -162 -307c0 -165 43 -306 164 -306c107 0 139 106 146 203h76
c-12 -156 -87 -267 -222 -267c-157 0 -239 154 -239 371z" />
    <glyph glyph-name="D.init.ss02" vert-adv-y="1200" 
d="M-11 -177l-251 535l251 534h621v-64h-570l-221 -470l221 -471h570v-64h-621zM84 0v715h211c159 0 250 -140 250 -359s-91 -356 -250 -356h-211zM157 64h132c133 0 180 132 180 292c0 159 -45 295 -178 295h-134v-587z" />
    <glyph glyph-name="E.init.ss02" vert-adv-y="1200" 
d="M-11 -177l-251 535l251 534h621v-64h-570l-221 -470l221 -471h570v-64h-621zM98 0v715h433v-64h-360v-246h321v-64h-321v-277h370v-64h-443z" />
    <glyph glyph-name="F.init.ss02" vert-adv-y="1200" 
d="M-11 -177l-251 535l251 534h621v-64h-570l-221 -470l221 -471h570v-64h-621zM106 0v715h445v-64h-371v-253h307v-64h-307v-334h-74z" />
    <glyph glyph-name="G.init.ss02" vert-adv-y="1200" 
d="M-11 -177l-251 535l251 534h621v-64h-570l-221 -470l221 -471h570v-64h-621zM58 353c0 215 89 375 251 375c120 0 200 -89 217 -225h-75c-13 104 -68 161 -143 161c-124 0 -174 -158 -174 -311c0 -146 44 -302 166 -302c100 0 160 106 161 251h-155v65h228v-367h-50
l-16 127h-2c-32 -92 -87 -140 -170 -140c-153 0 -238 157 -238 366z" />
    <glyph glyph-name="H.init.ss02" vert-adv-y="1200" 
d="M-11 -177l-251 535l251 534h621v-64h-570l-221 -470l221 -471h570v-64h-621zM81 0v715h73v-309h292v309h73v-715h-73v342h-292v-342h-73z" />
    <glyph glyph-name="I.init.ss02" vert-adv-y="1200" 
d="M-11 -177l-251 535l251 534h621v-64h-570l-221 -470l221 -471h570v-64h-621zM88 0v64h175v587h-175v64h424v-64h-176v-587h176v-64h-424z" />
    <glyph glyph-name="J.init.ss02" vert-adv-y="1200" 
d="M-11 -177l-251 535l251 534h621v-64h-570l-221 -470l221 -471h570v-64h-621zM48 207v23h73v-23c0 -91 41 -156 148 -156c108 0 151 65 151 156v508h73v-508c0 -114 -63 -220 -224 -220c-158 0 -221 106 -221 220z" />
    <glyph glyph-name="K.init.ss02" vert-adv-y="1200" 
d="M-11 -177l-251 535l251 534h621v-64h-570l-221 -470l221 -471h570v-64h-621zM91 0v715h72v-401l306 401h83l-229 -294l248 -421h-85l-208 363l-115 -147v-216h-72z" />
    <glyph glyph-name="L.init.ss02" vert-adv-y="1200" 
d="M-11 -177l-251 535l251 534h621v-64h-570l-221 -470l221 -471h570v-64h-621zM120 0v715h73v-651h352v-64h-425z" />
    <glyph glyph-name="M.init.ss02" vert-adv-y="1200" 
d="M-11 -177l-251 535l251 534h621v-64h-570l-221 -470l221 -471h570v-64h-621zM67 0v715h91l141 -474h2l141 474h91v-715h-73v603h-1l-126 -437h-67l-125 437h-1v-603h-73z" />
    <glyph glyph-name="N.init.ss02" vert-adv-y="1200" 
d="M-11 -177l-251 535l251 534h621v-64h-570l-221 -470l221 -471h570v-64h-621zM81 0v715h89l275 -612h2v612h72v-715h-89l-276 612h-1v-612h-72z" />
    <glyph glyph-name="O.init.ss02" vert-adv-y="1200" 
d="M-11 -177l-251 535l251 534h621v-64h-570l-221 -470l221 -471h570v-64h-621zM56 358c0 234 93 370 245 370c151 0 243 -136 243 -370s-92 -371 -243 -371c-152 0 -245 137 -245 371zM132 358c0 -189 52 -307 169 -307c115 0 167 117 167 307s-52 306 -167 306
c-117 0 -169 -117 -169 -306z" />
    <glyph glyph-name="P.init.ss02" vert-adv-y="1200" 
d="M-11 -177l-251 535l251 534h621v-64h-570l-221 -470l221 -471h570v-64h-621zM98 0v715h243c117 0 204 -56 204 -206s-88 -207 -204 -207h-171v-302h-72zM170 366h173c81 0 126 45 126 143s-45 142 -126 142h-173v-285z" />
    <glyph glyph-name="Q.init.ss02" vert-adv-y="1200" 
d="M-11 -177l-251 535l251 534h621v-64h-570l-221 -470l221 -471h570v-64h-621zM56 358c0 234 93 370 245 370c151 0 243 -136 243 -370c0 -108 -20 -196 -56 -258l92 -92l-46 -46l-85 85c-39 -39 -89 -60 -148 -60c-152 0 -245 137 -245 371zM132 358
c0 -189 52 -307 169 -307c42 0 75 15 101 44l-102 102l46 45l90 -90c22 52 32 122 32 206c0 190 -52 306 -167 306c-117 0 -169 -117 -169 -306z" />
    <glyph glyph-name="R.init.ss02" vert-adv-y="1200" 
d="M-11 -177l-251 535l251 534h621v-64h-570l-221 -470l221 -471h570v-64h-621zM92 0v715h242c129 0 200 -71 200 -202c0 -95 -46 -160 -114 -180v-2c140 -33 92 -313 125 -325v-6h-78c-28 30 27 297 -130 297h-172v-297h-73zM165 361h153c91 0 144 50 144 151
c0 92 -43 139 -140 139h-157v-290z" />
    <glyph glyph-name="S.init.ss02" vert-adv-y="1200" 
d="M-11 -177l-251 535l251 534h621v-64h-570l-221 -470l221 -471h570v-64h-621zM53 237h76c8 -109 66 -187 191 -187c107 0 148 62 148 143c0 108 -65 125 -191 157c-100 27 -199 63 -199 194c0 114 83 184 212 184c139 0 225 -83 234 -219h-76c-10 99 -57 156 -158 156
c-86 0 -136 -42 -136 -118c0 -95 68 -115 161 -138c127 -33 229 -69 229 -214c0 -115 -73 -208 -222 -208c-151 0 -261 89 -269 250z" />
    <glyph glyph-name="T.init.ss02" vert-adv-y="1200" 
d="M-11 -177l-251 535l251 534h621v-64h-570l-221 -470l221 -471h570v-64h-621zM48 651v64h504v-64h-216v-651h-72v651h-216z" />
    <glyph glyph-name="U.init.ss02" vert-adv-y="1200" 
d="M-11 -177l-251 535l251 534h621v-64h-570l-221 -470l221 -471h570v-64h-621zM81 241v474h73v-474c0 -129 48 -190 146 -190c97 0 146 61 146 190v474h73v-474c0 -151 -64 -254 -219 -254s-219 102 -219 254z" />
    <glyph glyph-name="V.init.ss02" vert-adv-y="1200" 
d="M-11 -177l-251 535l251 534h621v-64h-570l-221 -470l221 -471h570v-64h-621zM40 715h80l182 -641h1l181 641h76l-220 -715h-76z" />
    <glyph glyph-name="W.init.ss02" vert-adv-y="1200" 
d="M-11 -177l-251 535l251 534h621v-64h-570l-221 -470l221 -471h570v-64h-621zM40 715h73l63 -603h2l88 417h68l88 -417h2l63 603h73l-94 -715h-74l-92 454h-1l-91 -454h-74z" />
    <glyph glyph-name="X.init.ss02" vert-adv-y="1200" 
d="M-11 -177l-251 535l251 534h621v-64h-570l-221 -470l221 -471h570v-64h-621zM36 0l222 367l-211 348h84l169 -296h1l172 296h81l-212 -349l223 -366h-85l-183 313h-1l-179 -313h-81z" />
    <glyph glyph-name="Y.init.ss02" vert-adv-y="1200" 
d="M-11 -177l-251 535l251 534h621v-64h-570l-221 -470l221 -471h570v-64h-621zM24 715h79l196 -365h2l197 365h78l-240 -422v-293h-72v293z" />
    <glyph glyph-name="Z.init.ss02" vert-adv-y="1200" 
d="M-11 -177l-251 535l251 534h621v-64h-570l-221 -470l221 -471h570v-64h-621zM52 0v63l400 586v2h-382v64h469v-63l-399 -586v-2h408v-64h-496z" />
    <glyph glyph-name="a" unicode="a" vert-adv-y="1200" 
d="M237 -13c-100 0 -162 53 -162 149c0 110 79 139 201 161c80 14 138 22 138 85c0 50 -36 84 -119 84c-93 0 -124 -42 -128 -110h-68c5 93 65 167 200 167c98 0 179 -40 179 -162v-267c0 -38 9 -49 36 -49c5 0 12 0 21 3v-47c-11 -4 -26 -6 -44 -6c-42 0 -73 17 -76 82h-2
c-36 -57 -98 -90 -176 -90zM143 136c0 -62 31 -92 107 -92c100 0 164 55 164 146v97c-20 -23 -52 -29 -126 -44c-105 -21 -145 -37 -145 -107z" />
    <glyph glyph-name="aacute" unicode="&#xe1;" vert-adv-y="1200" 
d="M237 -13c-100 0 -162 53 -162 149c0 110 79 139 201 161c80 14 138 22 138 85c0 50 -36 84 -119 84c-93 0 -124 -42 -128 -110h-68c5 93 65 167 200 167c98 0 179 -40 179 -162v-267c0 -38 9 -49 36 -49c5 0 12 0 21 3v-47c-11 -4 -26 -6 -44 -6c-42 0 -73 17 -76 82h-2
c-36 -57 -98 -90 -176 -90zM143 136c0 -62 31 -92 107 -92c100 0 164 55 164 146v97c-20 -23 -52 -29 -126 -44c-105 -21 -145 -37 -145 -107zM273 593l62 132h78l-86 -132h-54z" />
    <glyph glyph-name="abreve" unicode="&#x103;" vert-adv-y="1200" 
d="M237 -13c-100 0 -162 53 -162 149c0 110 79 139 201 161c80 14 138 22 138 85c0 50 -36 84 -119 84c-93 0 -124 -42 -128 -110h-68c5 93 65 167 200 167c98 0 179 -40 179 -162v-267c0 -38 9 -49 36 -49c5 0 12 0 21 3v-47c-11 -4 -26 -6 -44 -6c-42 0 -73 17 -76 82h-2
c-36 -57 -98 -90 -176 -90zM143 136c0 -62 31 -92 107 -92c100 0 164 55 164 146v97c-20 -23 -52 -29 -126 -44c-105 -21 -145 -37 -145 -107zM182 715h50c5 -50 28 -78 74 -78s69 28 73 78h51c-4 -81 -52 -127 -124 -127c-71 0 -121 44 -124 127z" />
    <glyph glyph-name="acircumflex" unicode="&#xe2;" vert-adv-y="1200" 
d="M237 -13c-100 0 -162 53 -162 149c0 110 79 139 201 161c80 14 138 22 138 85c0 50 -36 84 -119 84c-93 0 -124 -42 -128 -110h-68c5 93 65 167 200 167c98 0 179 -40 179 -162v-267c0 -38 9 -49 36 -49c5 0 12 0 21 3v-47c-11 -4 -26 -6 -44 -6c-42 0 -73 17 -76 82h-2
c-36 -57 -98 -90 -176 -90zM143 136c0 -62 31 -92 107 -92c100 0 164 55 164 146v97c-20 -23 -52 -29 -126 -44c-105 -21 -145 -37 -145 -107zM179 595l91 130h74l90 -130h-68l-59 93h-1l-59 -93h-68z" />
    <glyph glyph-name="adieresis" unicode="&#xe4;" vert-adv-y="1200" 
d="M237 -13c-100 0 -162 53 -162 149c0 110 79 139 201 161c80 14 138 22 138 85c0 50 -36 84 -119 84c-93 0 -124 -42 -128 -110h-68c5 93 65 167 200 167c98 0 179 -40 179 -162v-267c0 -38 9 -49 36 -49c5 0 12 0 21 3v-47c-11 -4 -26 -6 -44 -6c-42 0 -73 17 -76 82h-2
c-36 -57 -98 -90 -176 -90zM143 136c0 -62 31 -92 107 -92c100 0 164 55 164 146v97c-20 -23 -52 -29 -126 -44c-105 -21 -145 -37 -145 -107zM190 612v84h84v-84h-84zM339 612v84h84v-84h-84z" />
    <glyph glyph-name="agrave" unicode="&#xe0;" vert-adv-y="1200" 
d="M237 -13c-100 0 -162 53 -162 149c0 110 79 139 201 161c80 14 138 22 138 85c0 50 -36 84 -119 84c-93 0 -124 -42 -128 -110h-68c5 93 65 167 200 167c98 0 179 -40 179 -162v-267c0 -38 9 -49 36 -49c5 0 12 0 21 3v-47c-11 -4 -26 -6 -44 -6c-42 0 -73 17 -76 82h-2
c-36 -57 -98 -90 -176 -90zM143 136c0 -62 31 -92 107 -92c100 0 164 55 164 146v97c-20 -23 -52 -29 -126 -44c-105 -21 -145 -37 -145 -107zM196 725h79l55 -132h-54z" />
    <glyph glyph-name="amacron" unicode="&#x101;" vert-adv-y="1200" 
d="M237 -13c-100 0 -162 53 -162 149c0 110 79 139 201 161c80 14 138 22 138 85c0 50 -36 84 -119 84c-93 0 -124 -42 -128 -110h-68c5 93 65 167 200 167c98 0 179 -40 179 -162v-267c0 -38 9 -49 36 -49c5 0 12 0 21 3v-47c-11 -4 -26 -6 -44 -6c-42 0 -73 17 -76 82h-2
c-36 -57 -98 -90 -176 -90zM143 136c0 -62 31 -92 107 -92c100 0 164 55 164 146v97c-20 -23 -52 -29 -126 -44c-105 -21 -145 -37 -145 -107zM182 617v57h249v-57h-249z" />
    <glyph glyph-name="aogonek" unicode="&#x105;" vert-adv-y="1200" 
d="M237 -13c-100 0 -162 53 -162 149c0 110 79 139 201 161c80 14 138 22 138 85c0 50 -36 84 -119 84c-93 0 -124 -42 -128 -110h-68c5 93 65 167 200 167c98 0 179 -40 179 -162v-267c0 -38 9 -49 36 -49c5 0 12 0 21 3v-47c-47 -33 -72 -63 -72 -89c0 -23 18 -37 45 -37
c19 0 34 3 50 10v-49c-17 -6 -39 -11 -62 -11c-61 0 -91 31 -91 75c0 41 34 77 69 96c-33 5 -56 25 -59 81h-2c-36 -57 -98 -90 -176 -90zM143 136c0 -62 31 -92 107 -92c100 0 164 55 164 146v97c-20 -23 -52 -29 -126 -44c-105 -21 -145 -37 -145 -107z" />
    <glyph glyph-name="aring" unicode="&#xe5;" vert-adv-y="1200" 
d="M237 -13c-100 0 -162 53 -162 149c0 110 79 139 201 161c80 14 138 22 138 85c0 50 -36 84 -119 84c-93 0 -124 -42 -128 -110h-68c5 93 65 167 200 167c98 0 179 -40 179 -162v-267c0 -38 9 -49 36 -49c5 0 12 0 21 3v-47c-11 -4 -26 -6 -44 -6c-42 0 -73 17 -76 82h-2
c-36 -57 -98 -90 -176 -90zM143 136c0 -62 31 -92 107 -92c100 0 164 55 164 146v97c-20 -23 -52 -29 -126 -44c-105 -21 -145 -37 -145 -107zM219 646c0 51 36 85 86 85s86 -34 86 -85c0 -50 -36 -85 -86 -85s-86 35 -86 85zM256 646c0 -30 19 -51 49 -51s50 21 50 51
c0 29 -20 51 -50 51s-49 -22 -49 -51z" />
    <glyph glyph-name="atilde" unicode="&#xe3;" vert-adv-y="1200" 
d="M237 -13c-100 0 -162 53 -162 149c0 110 79 139 201 161c80 14 138 22 138 85c0 50 -36 84 -119 84c-93 0 -124 -42 -128 -110h-68c5 93 65 167 200 167c98 0 179 -40 179 -162v-267c0 -38 9 -49 36 -49c5 0 12 0 21 3v-47c-11 -4 -26 -6 -44 -6c-42 0 -73 17 -76 82h-2
c-36 -57 -98 -90 -176 -90zM143 136c0 -62 31 -92 107 -92c100 0 164 55 164 146v97c-20 -23 -52 -29 -126 -44c-105 -21 -145 -37 -145 -107zM169 600c1 63 34 90 72 90c51 0 93 -41 124 -41c21 0 26 19 27 39h51c-1 -64 -34 -89 -72 -89c-50 0 -93 41 -124 41
c-21 0 -26 -21 -27 -40h-51z" />
    <glyph glyph-name="ae" unicode="&#xe6;" vert-adv-y="1200" 
d="M152 -13c-72 0 -137 47 -137 145c0 101 69 139 154 165c55 17 99 20 99 89c0 44 -19 80 -73 80c-50 0 -85 -32 -87 -110h-68c4 99 55 167 151 167c53 0 97 -22 118 -80c26 51 67 80 125 80c90 0 151 -70 151 -233c0 -16 0 -31 -1 -48h-251c2 -148 39 -199 95 -199
c51 0 75 40 85 113h66c-13 -105 -69 -169 -149 -169c-52 0 -100 28 -129 100c-30 -69 -90 -100 -149 -100zM84 136c0 -67 38 -92 79 -92c50 0 105 38 105 138v108c-9 -19 -33 -27 -91 -47c-51 -19 -93 -38 -93 -107zM334 299h183c0 123 -33 168 -87 168
c-58 0 -90 -53 -96 -168z" />
    <glyph glyph-name="b" unicode="b" vert-adv-y="1200" 
d="M324 -12c-84 0 -136 44 -163 99h-3v-87h-65v715h65v-287h3c28 52 81 95 164 95c118 0 212 -100 212 -268c0 -167 -94 -267 -213 -267zM159 255c0 -128 65 -210 156 -210c98 0 154 95 154 210c0 117 -56 212 -154 212c-91 0 -156 -83 -156 -212z" />
    <glyph glyph-name="c" unicode="c" vert-adv-y="1200" 
d="M314 -13c-137 0 -230 108 -230 268c0 159 93 267 230 267c117 0 196 -83 207 -191h-68c-3 57 -44 134 -139 134c-112 0 -162 -106 -162 -210c0 -105 50 -212 162 -212c96 0 136 77 139 139h68c-6 -110 -89 -195 -207 -195z" />
    <glyph glyph-name="cacute" unicode="&#x107;" vert-adv-y="1200" 
d="M314 -13c-137 0 -230 108 -230 268c0 159 93 267 230 267c117 0 196 -83 207 -191h-68c-3 57 -44 134 -139 134c-112 0 -162 -106 -162 -210c0 -105 50 -212 162 -212c96 0 136 77 139 139h68c-6 -110 -89 -195 -207 -195zM280 593l62 132h78l-86 -132h-54z" />
    <glyph glyph-name="ccaron" unicode="&#x10d;" vert-adv-y="1200" 
d="M314 -13c-137 0 -230 108 -230 268c0 159 93 267 230 267c117 0 196 -83 207 -191h-68c-3 57 -44 134 -139 134c-112 0 -162 -106 -162 -210c0 -105 50 -212 162 -212c96 0 136 77 139 139h68c-6 -110 -89 -195 -207 -195zM186 724h68l59 -93h2l59 93h67l-90 -130h-74z
" />
    <glyph glyph-name="ccedilla" unicode="&#xe7;" vert-adv-y="1200" 
d="M294 -194c-39 0 -76 13 -103 30l19 22c23 -10 45 -16 72 -16c36 0 55 15 55 40c0 24 -16 33 -42 33c-14 0 -32 -3 -42 -8l-12 18l51 63c-125 11 -208 116 -208 267c0 159 93 267 230 267c117 0 196 -83 207 -191h-68c-3 57 -44 134 -139 134c-112 0 -162 -106 -162 -210
c0 -105 50 -212 162 -212c96 0 136 77 139 139h68c-6 -103 -79 -184 -185 -194l-35 -42v-2c45 8 94 -10 94 -63s-48 -75 -101 -75z" />
    <glyph glyph-name="ccircumflex" unicode="&#x109;" vert-adv-y="1200" 
d="M314 -13c-137 0 -230 108 -230 268c0 159 93 267 230 267c117 0 196 -83 207 -191h-68c-3 57 -44 134 -139 134c-112 0 -162 -106 -162 -210c0 -105 50 -212 162 -212c96 0 136 77 139 139h68c-6 -110 -89 -195 -207 -195zM186 595l91 130h74l90 -130h-68l-59 93h-1
l-59 -93h-68z" />
    <glyph glyph-name="cdotaccent" unicode="&#x10b;" vert-adv-y="1200" 
d="M314 -13c-137 0 -230 108 -230 268c0 159 93 267 230 267c117 0 196 -83 207 -191h-68c-3 57 -44 134 -139 134c-112 0 -162 -106 -162 -210c0 -105 50 -212 162 -212c96 0 136 77 139 139h68c-6 -110 -89 -195 -207 -195zM262 612v101h103v-101h-103z" />
    <glyph glyph-name="d" unicode="d" vert-adv-y="1200" 
d="M275 -13c-118 0 -212 101 -212 268c0 166 94 267 213 267c85 0 136 -44 164 -98h2v291h65v-715h-65v83h-2c-29 -53 -82 -96 -165 -96zM131 255c0 -116 56 -212 154 -212c91 0 157 82 157 212c0 129 -66 211 -157 211c-98 0 -154 -96 -154 -211z" />
    <glyph glyph-name="dcaron" unicode="&#x10f;" vert-adv-y="1200" 
d="M540 527l24 188h76l-49 -188h-51zM63 255c0 166 84 267 203 267c75 0 116 -44 144 -98h2v291h65v-715h-65v83h-2c-29 -53 -72 -96 -145 -96c-118 0 -202 101 -202 268zM131 255c0 -116 46 -212 144 -212c81 0 137 82 137 212c0 129 -56 211 -137 211
c-98 0 -144 -96 -144 -211z" />
    <glyph glyph-name="dcroat" unicode="&#x111;" vert-adv-y="1200" 
d="M271 -13c-105 0 -208 87 -208 268c0 180 103 267 210 267c77 0 132 -44 159 -98h2v169h-153v50h153v72h65v-72h74v-50h-74v-593h-65v83h-2c-31 -54 -85 -96 -161 -96zM131 255c0 -131 65 -212 151 -212c83 0 152 82 152 212c0 129 -69 211 -152 211
c-86 0 -151 -81 -151 -211z" />
    <glyph glyph-name="eth" unicode="&#xf0;" vert-adv-y="1200" 
d="M302 -14c-149 0 -223 112 -223 270c0 159 94 262 214 262c62 0 118 -35 147 -91c-16 60 -49 119 -95 172l-142 -41l-14 48l118 34c-27 27 -57 52 -89 75h90c17 -13 40 -31 63 -56l126 37l13 -49l-102 -30c59 -74 115 -186 115 -342c0 -146 -57 -289 -221 -289zM147 256
c0 -113 45 -213 155 -213c105 0 153 100 153 216c0 111 -60 202 -154 202c-100 0 -154 -93 -154 -205z" />
    <glyph glyph-name="e" unicode="e" vert-adv-y="1200" 
d="M308 -14c-142 0 -224 114 -224 269c0 162 89 268 225 268s212 -104 212 -245c0 -12 0 -28 -1 -36h-368c1 -102 53 -200 158 -200c90 0 128 68 138 114h66c-22 -92 -86 -170 -206 -170zM152 299h300c0 91 -51 168 -146 168c-89 0 -149 -73 -154 -168z" />
    <glyph glyph-name="eacute" unicode="&#xe9;" vert-adv-y="1200" 
d="M308 -14c-142 0 -224 114 -224 269c0 162 89 268 225 268s212 -104 212 -245c0 -12 0 -28 -1 -36h-368c1 -102 53 -200 158 -200c90 0 128 68 138 114h66c-22 -92 -86 -170 -206 -170zM152 299h300c0 91 -51 168 -146 168c-89 0 -149 -73 -154 -168zM269 595l62 132h78
l-86 -132h-54z" />
    <glyph glyph-name="ecaron" unicode="&#x11b;" vert-adv-y="1200" 
d="M308 -14c-142 0 -224 114 -224 269c0 162 89 268 225 268s212 -104 212 -245c0 -12 0 -28 -1 -36h-368c1 -102 53 -200 158 -200c90 0 128 68 138 114h66c-22 -92 -86 -170 -206 -170zM152 299h300c0 91 -51 168 -146 168c-89 0 -149 -73 -154 -168zM175 726h68l59 -93h2
l59 93h67l-90 -130h-74z" />
    <glyph glyph-name="ecircumflex" unicode="&#xea;" vert-adv-y="1200" 
d="M308 -14c-142 0 -224 114 -224 269c0 162 89 268 225 268s212 -104 212 -245c0 -12 0 -28 -1 -36h-368c1 -102 53 -200 158 -200c90 0 128 68 138 114h66c-22 -92 -86 -170 -206 -170zM152 299h300c0 91 -51 168 -146 168c-89 0 -149 -73 -154 -168zM175 597l91 130h74
l90 -130h-68l-59 93h-1l-59 -93h-68z" />
    <glyph glyph-name="edieresis" unicode="&#xeb;" vert-adv-y="1200" 
d="M308 -14c-142 0 -224 114 -224 269c0 162 89 268 225 268s212 -104 212 -245c0 -12 0 -28 -1 -36h-368c1 -102 53 -200 158 -200c90 0 128 68 138 114h66c-22 -92 -86 -170 -206 -170zM152 299h300c0 91 -51 168 -146 168c-89 0 -149 -73 -154 -168zM186 614v84h84v-84
h-84zM335 614v84h84v-84h-84z" />
    <glyph glyph-name="edotaccent" unicode="&#x117;" vert-adv-y="1200" 
d="M308 -14c-142 0 -224 114 -224 269c0 162 89 268 225 268s212 -104 212 -245c0 -12 0 -28 -1 -36h-368c1 -102 53 -200 158 -200c90 0 128 68 138 114h66c-22 -92 -86 -170 -206 -170zM152 299h300c0 91 -51 168 -146 168c-89 0 -149 -73 -154 -168zM251 614v101h103
v-101h-103z" />
    <glyph glyph-name="egrave" unicode="&#xe8;" vert-adv-y="1200" 
d="M308 -14c-142 0 -224 114 -224 269c0 162 89 268 225 268s212 -104 212 -245c0 -12 0 -28 -1 -36h-368c1 -102 53 -200 158 -200c90 0 128 68 138 114h66c-22 -92 -86 -170 -206 -170zM152 299h300c0 91 -51 168 -146 168c-89 0 -149 -73 -154 -168zM192 727h79l55 -132
h-54z" />
    <glyph glyph-name="emacron" unicode="&#x113;" vert-adv-y="1200" 
d="M308 -14c-142 0 -224 114 -224 269c0 162 89 268 225 268s212 -104 212 -245c0 -12 0 -28 -1 -36h-368c1 -102 53 -200 158 -200c90 0 128 68 138 114h66c-22 -92 -86 -170 -206 -170zM152 299h300c0 91 -51 168 -146 168c-89 0 -149 -73 -154 -168zM178 619v57h249v-57
h-249z" />
    <glyph glyph-name="eogonek" unicode="&#x119;" vert-adv-y="1200" 
d="M308 -14c-142 0 -224 114 -224 269c0 162 89 268 225 268s212 -104 212 -245c0 -12 0 -28 -1 -36h-368c1 -102 53 -200 158 -200c90 0 128 68 138 114h66c-16 -69 -56 -130 -125 -156h1c-47 -33 -72 -63 -72 -89c0 -23 18 -37 45 -37c19 0 34 3 50 10v-49
c-17 -6 -39 -11 -62 -11c-61 0 -91 31 -91 75c0 36 26 67 55 87h-7zM152 299h300c0 91 -51 168 -146 168c-89 0 -149 -73 -154 -168z" />
    <glyph glyph-name="f" unicode="f" vert-adv-y="1200" 
d="M249 585c0 111 49 136 171 136c37 0 70 -2 107 -6v-55c-34 3 -60 4 -108 4c-88 0 -105 -18 -105 -83v-71h213v-57h-213v-396h193v-57h-393v57h135v396h-156v57h156v75z" />
    <glyph glyph-name="g" unicode="g" vert-adv-y="1200" 
d="M291 -183c-131 0 -202 67 -210 156h68c10 -56 52 -99 143 -99c96 0 154 44 154 149v96h-2c-29 -57 -86 -95 -164 -95c-115 0 -214 80 -214 250c0 168 99 248 214 248c79 0 135 -40 164 -94h2v82h65v-478c0 -144 -87 -215 -220 -215zM135 274c0 -118 59 -193 156 -193
c86 0 155 62 155 193c0 130 -69 191 -155 191c-97 0 -156 -75 -156 -191z" />
    <glyph glyph-name="gbreve" unicode="&#x11f;" vert-adv-y="1200" 
d="M291 -183c-131 0 -202 67 -210 156h68c10 -56 52 -99 143 -99c96 0 154 44 154 149v96h-2c-29 -57 -86 -95 -164 -95c-115 0 -214 80 -214 250c0 168 99 248 214 248c79 0 135 -40 164 -94h2v82h65v-478c0 -144 -87 -215 -220 -215zM135 274c0 -118 59 -193 156 -193
c86 0 155 62 155 193c0 130 -69 191 -155 191c-97 0 -156 -75 -156 -191zM167 715h50c5 -50 28 -78 74 -78s69 28 73 78h51c-4 -81 -52 -127 -124 -127c-71 0 -121 44 -124 127z" />
    <glyph glyph-name="gcircumflex" unicode="&#x11d;" vert-adv-y="1200" 
d="M291 -183c-131 0 -202 67 -210 156h68c10 -56 52 -99 143 -99c96 0 154 44 154 149v96h-2c-29 -57 -86 -95 -164 -95c-115 0 -214 80 -214 250c0 168 99 248 214 248c79 0 135 -40 164 -94h2v82h65v-478c0 -144 -87 -215 -220 -215zM135 274c0 -118 59 -193 156 -193
c86 0 155 62 155 193c0 130 -69 191 -155 191c-97 0 -156 -75 -156 -191zM163 595l91 130h74l90 -130h-68l-59 93h-1l-59 -93h-68z" />
    <glyph glyph-name="uni0123" unicode="&#x123;" vert-adv-y="1200" 
d="M291 -183c-131 0 -202 67 -210 156h68c10 -56 52 -99 143 -99c96 0 154 44 154 149v96h-2c-29 -57 -86 -95 -164 -95c-115 0 -214 80 -214 250c0 168 99 248 214 248c79 0 135 -40 164 -94h2v82h65v-478c0 -144 -87 -215 -220 -215zM135 274c0 -118 59 -193 156 -193
c86 0 155 62 155 193c0 130 -69 191 -155 191c-97 0 -156 -75 -156 -191zM249 596l68 176h51l-39 -176h-80z" />
    <glyph glyph-name="gdotaccent" unicode="&#x121;" vert-adv-y="1200" 
d="M291 -183c-131 0 -202 67 -210 156h68c10 -56 52 -99 143 -99c96 0 154 44 154 149v96h-2c-29 -57 -86 -95 -164 -95c-115 0 -214 80 -214 250c0 168 99 248 214 248c79 0 135 -40 164 -94h2v82h65v-478c0 -144 -87 -215 -220 -215zM135 274c0 -118 59 -193 156 -193
c86 0 155 62 155 193c0 130 -69 191 -155 191c-97 0 -156 -75 -156 -191zM239 612v101h103v-101h-103z" />
    <glyph glyph-name="h" unicode="h" vert-adv-y="1200" 
d="M101 0v715h65v-279h2c32 47 88 86 176 86c93 0 164 -49 164 -172v-350h-65v337c0 74 -31 128 -116 128c-99 0 -161 -68 -161 -143v-322h-65z" />
    <glyph glyph-name="hbar" unicode="&#x127;" vert-adv-y="1200" 
d="M28 593v50h73v72h65v-72h157v-50h-157v-157h2c32 47 88 86 176 86c93 0 164 -49 164 -172v-350h-65v337c0 74 -31 128 -116 128c-99 0 -161 -68 -161 -143v-322h-65v593h-73z" />
    <glyph glyph-name="hcircumflex" unicode="&#x125;" vert-adv-y="1200" 
d="M101 0v715h65v-279h2c32 47 88 86 176 86c93 0 164 -49 164 -172v-350h-65v337c0 74 -31 128 -116 128c-99 0 -161 -68 -161 -143v-322h-65zM0 755l91 130h74l90 -130h-68l-59 93h-1l-59 -93h-68z" />
    <glyph glyph-name="i" unicode="i" vert-adv-y="1200" 
d="M121 0v57h166v396h-166v57h231v-453h146v-57h-377zM259 612v101h103v-101h-103z" />
    <glyph glyph-name="dotlessi" unicode="&#x131;" vert-adv-y="1200" 
d="M121 0v57h166v396h-166v57h231v-453h146v-57h-377z" />
    <glyph glyph-name="iacute" unicode="&#xed;" vert-adv-y="1200" 
d="M121 0v57h166v396h-166v57h231v-453h146v-57h-377zM277 593l62 132h78l-86 -132h-54z" />
    <glyph glyph-name="icircumflex" unicode="&#xee;" vert-adv-y="1200" 
d="M121 0v57h166v396h-166v57h231v-453h146v-57h-377zM183 595l91 130h74l90 -130h-68l-59 93h-1l-59 -93h-68z" />
    <glyph glyph-name="idieresis" unicode="&#xef;" vert-adv-y="1200" 
d="M121 0v57h166v396h-166v57h231v-453h146v-57h-377zM194 612v84h84v-84h-84zM343 612v84h84v-84h-84z" />
    <glyph glyph-name="igrave" unicode="&#xec;" vert-adv-y="1200" 
d="M121 0v57h166v396h-166v57h231v-453h146v-57h-377zM200 725h79l55 -132h-54z" />
    <glyph glyph-name="imacron" unicode="&#x12b;" vert-adv-y="1200" 
d="M121 0v57h166v396h-166v57h231v-453h146v-57h-377zM186 617v57h249v-57h-249z" />
    <glyph glyph-name="iogonek" unicode="&#x12f;" vert-adv-y="1200" 
d="M121 0v57h166v396h-166v57h231v-453h146v-57h-150c-47 -33 -72 -63 -72 -89c0 -23 18 -37 45 -37c19 0 34 3 50 10v-49c-17 -6 -39 -11 -62 -11c-61 0 -91 31 -91 75c0 45 41 83 79 101h-176zM259 612v101h103v-101h-103z" />
    <glyph glyph-name="itilde" unicode="&#x129;" vert-adv-y="1200" 
d="M121 0v57h166v396h-166v57h231v-453h146v-57h-377zM173 600c1 63 34 90 72 90c51 0 93 -41 124 -41c21 0 26 19 27 39h51c-1 -64 -34 -89 -72 -89c-50 0 -93 41 -124 41c-21 0 -26 -21 -27 -40h-51z" />
    <glyph glyph-name="j" unicode="j" vert-adv-y="1200" 
d="M246 -180c-29 0 -89 1 -130 4v56c36 -2 90 -3 121 -3c94 0 132 17 132 79v497h-253v57h318v-559c0 -99 -78 -131 -188 -131zM342 612v101h103v-101h-103z" />
    <glyph glyph-name="uni0237" unicode="&#x237;" vert-adv-y="1200" 
d="M246 -180c-29 0 -89 1 -130 4v56c36 -2 90 -3 121 -3c94 0 132 17 132 79v497h-253v57h318v-559c0 -99 -78 -131 -188 -131z" />
    <glyph glyph-name="jcircumflex" unicode="&#x135;" vert-adv-y="1200" 
d="M246 -180c-29 0 -89 1 -130 4v56c36 -2 90 -3 121 -3c94 0 132 17 132 79v497h-253v57h318v-559c0 -99 -78 -131 -188 -131zM266 595l91 130h74l90 -130h-68l-59 93h-1l-59 -93h-68z" />
    <glyph glyph-name="k" unicode="k" vert-adv-y="1200" 
d="M114 0v715h65v-450l278 245h80l-215 -189l245 -321h-78l-212 282l-98 -86v-196h-65z" />
    <glyph glyph-name="uni0137" unicode="&#x137;" vert-adv-y="1200" 
d="M114 0v715h65v-450l278 245h80l-215 -189l245 -321h-78l-212 282l-98 -86v-196h-65zM248 -224l40 176h79l-68 -176h-51z" />
    <glyph glyph-name="kgreenlandic" unicode="&#x138;" vert-adv-y="1200" 
d="M114 0v510h65v-245l278 245h80l-215 -189l245 -321h-78l-212 282l-98 -86v-196h-65z" />
    <glyph glyph-name="l" unicode="l" vert-adv-y="1200" 
d="M83 0v57h185v601h-185v57h250v-658h184v-57h-434z" />
    <glyph glyph-name="lacute" unicode="&#x13a;" vert-adv-y="1200" 
d="M83 0v57h185v601h-185v57h250v-658h184v-57h-434zM266 753l62 132h78l-86 -132h-54z" />
    <glyph glyph-name="lcaron" unicode="&#x13e;" vert-adv-y="1200" 
d="M83 0v57h185v601h-185v57h250v-658h184v-57h-434zM425 527l24 188h77l-50 -188h-51z" />
    <glyph glyph-name="uni013C" unicode="&#x13c;" vert-adv-y="1200" 
d="M83 0v57h185v601h-185v57h250v-658h184v-57h-434zM222 -224l40 176h79l-68 -176h-51z" />
    <glyph glyph-name="lslash" unicode="&#x142;" vert-adv-y="1200" 
d="M165 264v64l140 64v266h-185v57h250v-293l140 64v-64l-140 -64v-301h184v-57h-434v57h185v271z" />
    <glyph glyph-name="m" unicode="m" vert-adv-y="1200" 
d="M269 345c0 63 -13 120 -63 120c-51 0 -81 -68 -81 -143v-322h-63v510h63v-69h1c19 42 52 81 103 81c48 0 79 -34 92 -95h1c25 56 59 95 111 95c69 0 105 -61 105 -164v-358h-63v345c0 64 -13 120 -62 120c-51 0 -82 -65 -82 -143v-322h-62v345z" />
    <glyph glyph-name="n" unicode="n" vert-adv-y="1200" 
d="M101 0v510h65v-74h2c32 47 88 86 176 86c95 0 164 -53 164 -169v-353h-65v339c0 68 -27 126 -116 126c-99 0 -161 -68 -161 -143v-322h-65z" />
    <glyph glyph-name="nacute" unicode="&#x144;" vert-adv-y="1200" 
d="M101 0v510h65v-74h2c32 47 88 86 176 86c95 0 164 -53 164 -169v-353h-65v339c0 68 -27 126 -116 126c-99 0 -161 -68 -161 -143v-322h-65zM274 593l62 132h78l-86 -132h-54z" />
    <glyph glyph-name="ncaron" unicode="&#x148;" vert-adv-y="1200" 
d="M101 0v510h65v-74h2c32 47 88 86 176 86c95 0 164 -53 164 -169v-353h-65v339c0 68 -27 126 -116 126c-99 0 -161 -68 -161 -143v-322h-65zM179 724h68l59 -93h2l59 93h67l-90 -130h-74z" />
    <glyph glyph-name="uni0146" unicode="&#x146;" vert-adv-y="1200" 
d="M101 0v510h65v-74h2c32 47 88 86 176 86c95 0 164 -53 164 -169v-353h-65v339c0 68 -27 126 -116 126c-99 0 -161 -68 -161 -143v-322h-65zM225 -224l40 176h79l-68 -176h-51z" />
    <glyph glyph-name="ntilde" unicode="&#xf1;" vert-adv-y="1200" 
d="M101 0v510h65v-74h2c32 47 88 86 176 86c95 0 164 -53 164 -169v-353h-65v339c0 68 -27 126 -116 126c-99 0 -161 -68 -161 -143v-322h-65zM170 600c1 63 34 90 72 90c51 0 93 -41 124 -41c21 0 26 19 27 39h51c-1 -64 -34 -89 -72 -89c-50 0 -93 41 -124 41
c-21 0 -26 -21 -27 -40h-51z" />
    <glyph glyph-name="eng" unicode="&#x14b;" vert-adv-y="1200" 
d="M101 0v510h65v-74h2c32 47 88 86 176 86c95 0 164 -53 164 -169v-386c0 -98 -67 -130 -171 -130c-18 0 -65 1 -91 4v56c21 -2 53 -3 80 -3c78 0 117 16 117 78v367c0 68 -27 126 -116 126c-99 0 -161 -68 -161 -143v-322h-65z" />
    <glyph glyph-name="o" unicode="o" vert-adv-y="1200" 
d="M300 -14c-137 0 -221 110 -221 268c0 159 84 269 222 269c137 0 220 -110 220 -269c0 -158 -83 -268 -221 -268zM147 254c0 -118 52 -211 153 -211c103 0 153 94 153 211c0 118 -51 212 -153 212c-101 0 -153 -93 -153 -212z" />
    <glyph glyph-name="oacute" unicode="&#xf3;" vert-adv-y="1200" 
d="M300 -14c-137 0 -221 110 -221 268c0 159 84 269 222 269c137 0 220 -110 220 -269c0 -158 -83 -268 -221 -268zM147 254c0 -118 52 -211 153 -211c103 0 153 94 153 211c0 118 -51 212 -153 212c-101 0 -153 -93 -153 -212zM266 594l62 132h78l-86 -132h-54z" />
    <glyph glyph-name="ocircumflex" unicode="&#xf4;" vert-adv-y="1200" 
d="M300 -14c-137 0 -221 110 -221 268c0 159 84 269 222 269c137 0 220 -110 220 -269c0 -158 -83 -268 -221 -268zM147 254c0 -118 52 -211 153 -211c103 0 153 94 153 211c0 118 -51 212 -153 212c-101 0 -153 -93 -153 -212zM172 596l91 130h74l90 -130h-68l-59 93h-1
l-59 -93h-68z" />
    <glyph glyph-name="odieresis" unicode="&#xf6;" vert-adv-y="1200" 
d="M300 -14c-137 0 -221 110 -221 268c0 159 84 269 222 269c137 0 220 -110 220 -269c0 -158 -83 -268 -221 -268zM147 254c0 -118 52 -211 153 -211c103 0 153 94 153 211c0 118 -51 212 -153 212c-101 0 -153 -93 -153 -212zM183 613v84h84v-84h-84zM332 613v84h84v-84
h-84z" />
    <glyph glyph-name="ograve" unicode="&#xf2;" vert-adv-y="1200" 
d="M300 -14c-137 0 -221 110 -221 268c0 159 84 269 222 269c137 0 220 -110 220 -269c0 -158 -83 -268 -221 -268zM147 254c0 -118 52 -211 153 -211c103 0 153 94 153 211c0 118 -51 212 -153 212c-101 0 -153 -93 -153 -212zM189 726h79l55 -132h-54z" />
    <glyph glyph-name="ohungarumlaut" unicode="&#x151;" vert-adv-y="1200" 
d="M300 -14c-137 0 -221 110 -221 268c0 159 84 269 222 269c137 0 220 -110 220 -269c0 -158 -83 -268 -221 -268zM147 254c0 -118 52 -211 153 -211c103 0 153 94 153 211c0 118 -51 212 -153 212c-101 0 -153 -93 -153 -212zM200 593l62 132h78l-86 -132h-54zM337 593
l62 132h79l-87 -132h-54z" />
    <glyph glyph-name="omacron" unicode="&#x14d;" vert-adv-y="1200" 
d="M300 -14c-137 0 -221 110 -221 268c0 159 84 269 222 269c137 0 220 -110 220 -269c0 -158 -83 -268 -221 -268zM147 254c0 -118 52 -211 153 -211c103 0 153 94 153 211c0 118 -51 212 -153 212c-101 0 -153 -93 -153 -212zM175 618v57h249v-57h-249z" />
    <glyph glyph-name="oslash" unicode="&#xf8;" vert-adv-y="1200" 
d="M82 -10l-30 31l65 70c-25 44 -38 100 -38 163c0 159 84 269 222 269c65 0 118 -25 156 -68l60 65l31 -30l-66 -71c25 -44 39 -101 39 -165c0 -158 -83 -268 -221 -268c-66 0 -119 25 -157 69zM147 254c0 -41 6 -79 19 -111l246 265c-25 36 -63 58 -112 58
c-101 0 -153 -93 -153 -212zM187 102c25 -36 63 -59 113 -59c103 0 153 94 153 211c0 42 -6 81 -19 113z" />
    <glyph glyph-name="otilde" unicode="&#xf5;" vert-adv-y="1200" 
d="M300 -14c-137 0 -221 110 -221 268c0 159 84 269 222 269c137 0 220 -110 220 -269c0 -158 -83 -268 -221 -268zM147 254c0 -118 52 -211 153 -211c103 0 153 94 153 211c0 118 -51 212 -153 212c-101 0 -153 -93 -153 -212zM162 601c1 63 34 90 72 90
c51 0 93 -41 124 -41c21 0 26 19 27 39h51c-1 -64 -34 -89 -72 -89c-50 0 -93 41 -124 41c-21 0 -26 -21 -27 -40h-51z" />
    <glyph glyph-name="oe" unicode="&#x153;" vert-adv-y="1200" 
d="M175 43c51 0 90 59 90 213c0 157 -39 210 -90 210s-90 -54 -90 -209s39 -214 90 -214zM17 255c0 197 70 268 154 268c54 0 101 -30 128 -104c24 65 68 104 135 104c90 0 151 -70 151 -233c0 -16 0 -31 -1 -48h-251c2 -144 38 -199 96 -199c49 0 75 42 84 113h66
c-13 -102 -68 -169 -149 -169c-54 0 -103 31 -131 105c-27 -75 -75 -105 -129 -105c-83 0 -153 71 -153 268zM334 299h183c0 123 -33 168 -87 168c-58 0 -90 -53 -96 -168z" />
    <glyph glyph-name="p" unicode="p" vert-adv-y="1200" 
d="M93 -177v687h65v-82h3c28 52 81 95 164 95c118 0 212 -100 212 -268c0 -167 -94 -267 -212 -267c-85 0 -137 43 -164 98h-3v-263h-65zM159 255c0 -128 65 -210 157 -210c98 0 153 94 153 210c0 117 -55 211 -153 211c-92 0 -157 -82 -157 -211z" />
    <glyph glyph-name="thorn" unicode="&#xfe;" vert-adv-y="1200" 
d="M93 -177v892h65v-287h3c28 52 81 95 164 95c118 0 212 -100 212 -268c0 -167 -94 -267 -212 -267c-85 0 -137 43 -164 98h-3v-263h-65zM159 255c0 -128 65 -210 157 -210c98 0 153 94 153 210c0 117 -55 211 -153 211c-92 0 -157 -82 -157 -211z" />
    <glyph glyph-name="q" unicode="q" vert-adv-y="1200" 
d="M442 -177v260h-2c-29 -53 -82 -96 -165 -96c-118 0 -212 101 -212 268c0 166 94 267 213 267c85 0 136 -44 164 -98h2v86h65v-687h-65zM131 255c0 -116 56 -212 154 -212c91 0 157 82 157 212c0 129 -66 211 -157 211c-98 0 -154 -96 -154 -211z" />
    <glyph glyph-name="r" unicode="r" vert-adv-y="1200" 
d="M274 285v-228h186v-57h-377v57h126v396h-126v57h191v-104h3c34 67 110 116 202 116c23 0 49 -1 67 -3v-64c-14 2 -46 3 -66 3c-101 0 -206 -74 -206 -173z" />
    <glyph glyph-name="racute" unicode="&#x155;" vert-adv-y="1200" 
d="M274 285v-228h186v-57h-377v57h126v396h-126v57h191v-104h3c34 67 110 116 202 116c23 0 49 -1 67 -3v-64c-14 2 -46 3 -66 3c-101 0 -206 -74 -206 -173zM327 593l62 132h78l-86 -132h-54z" />
    <glyph glyph-name="rcaron" unicode="&#x159;" vert-adv-y="1200" 
d="M274 285v-228h186v-57h-377v57h126v396h-126v57h191v-104h3c34 67 110 116 202 116c23 0 49 -1 67 -3v-64c-14 2 -46 3 -66 3c-101 0 -206 -74 -206 -173zM233 724h68l59 -93h2l59 93h67l-90 -130h-74z" />
    <glyph glyph-name="uni0157" unicode="&#x157;" vert-adv-y="1200" 
d="M274 285v-228h186v-57h-377v57h126v396h-126v57h191v-104h3c34 67 110 116 202 116c23 0 49 -1 67 -3v-64c-14 2 -46 3 -66 3c-101 0 -206 -74 -206 -173zM165 -224l40 176h79l-68 -176h-51z" />
    <glyph glyph-name="s" unicode="s" vert-adv-y="1200" 
d="M317 -13c-146 0 -222 78 -226 180h67c4 -72 57 -123 159 -123c94 0 133 44 133 95c0 67 -51 77 -153 101c-106 25 -188 47 -188 145c0 83 67 137 185 137c136 0 196 -71 206 -155h-67c-13 63 -57 98 -140 98c-70 0 -116 -27 -116 -76c0 -57 50 -69 150 -92
c102 -24 191 -50 191 -156c0 -93 -75 -154 -201 -154z" />
    <glyph glyph-name="sacute" unicode="&#x15b;" vert-adv-y="1200" 
d="M317 -13c-146 0 -222 78 -226 180h67c4 -72 57 -123 159 -123c94 0 133 44 133 95c0 67 -51 77 -153 101c-106 25 -188 47 -188 145c0 83 67 137 185 137c136 0 196 -71 206 -155h-67c-13 63 -57 98 -140 98c-70 0 -116 -27 -116 -76c0 -57 50 -69 150 -92
c102 -24 191 -50 191 -156c0 -93 -75 -154 -201 -154zM266 593l62 132h78l-86 -132h-54z" />
    <glyph glyph-name="scaron" unicode="&#x161;" vert-adv-y="1200" 
d="M317 -13c-146 0 -222 78 -226 180h67c4 -72 57 -123 159 -123c94 0 133 44 133 95c0 67 -51 77 -153 101c-106 25 -188 47 -188 145c0 83 67 137 185 137c136 0 196 -71 206 -155h-67c-13 63 -57 98 -140 98c-70 0 -116 -27 -116 -76c0 -57 50 -69 150 -92
c102 -24 191 -50 191 -156c0 -93 -75 -154 -201 -154zM172 724h68l59 -93h2l59 93h67l-90 -130h-74z" />
    <glyph glyph-name="scedilla" unicode="&#x15f;" vert-adv-y="1200" 
d="M287 -194c-39 0 -76 13 -103 30l19 22c23 -10 45 -16 72 -16c36 0 55 15 55 40c0 24 -16 33 -42 33c-14 0 -32 -3 -42 -8l-12 18l51 63c-125 11 -190 85 -194 179h67c4 -72 57 -123 159 -123c94 0 133 44 133 95c0 67 -51 77 -153 101c-106 25 -188 47 -188 145
c0 83 67 137 185 137c136 0 196 -71 206 -155h-67c-13 63 -57 98 -140 98c-70 0 -116 -27 -116 -76c0 -57 50 -69 150 -92c102 -24 191 -50 191 -156c0 -90 -71 -150 -190 -154l-34 -41v-2c45 8 94 -10 94 -63s-48 -75 -101 -75z" />
    <glyph glyph-name="scircumflex" unicode="&#x15d;" vert-adv-y="1200" 
d="M317 -13c-146 0 -222 78 -226 180h67c4 -72 57 -123 159 -123c94 0 133 44 133 95c0 67 -51 77 -153 101c-106 25 -188 47 -188 145c0 83 67 137 185 137c136 0 196 -71 206 -155h-67c-13 63 -57 98 -140 98c-70 0 -116 -27 -116 -76c0 -57 50 -69 150 -92
c102 -24 191 -50 191 -156c0 -93 -75 -154 -201 -154zM172 595l91 130h74l90 -130h-68l-59 93h-1l-59 -93h-68z" />
    <glyph glyph-name="uni0219" unicode="&#x219;" vert-adv-y="1200" 
d="M317 -13c-146 0 -222 78 -226 180h67c4 -72 57 -123 159 -123c94 0 133 44 133 95c0 67 -51 77 -153 101c-106 25 -188 47 -188 145c0 83 67 137 185 137c136 0 196 -71 206 -155h-67c-13 63 -57 98 -140 98c-70 0 -116 -27 -116 -76c0 -57 50 -69 150 -92
c102 -24 191 -50 191 -156c0 -93 -75 -154 -201 -154zM234 -224l40 176h79l-68 -176h-51z" />
    <glyph glyph-name="germandbls" unicode="&#xdf;" vert-adv-y="1200" 
d="M341 -13c-36 0 -65 5 -96 14v57c31 -11 58 -15 80 -15c96 0 140 67 140 155c0 126 -99 170 -181 170h-30v56h27c74 0 146 39 146 130c0 62 -37 117 -123 117c-108 0 -136 -73 -136 -167v-504h-65v524c0 127 71 204 200 204c110 0 192 -62 192 -172
c0 -84 -46 -131 -112 -159v-2c95 -25 149 -91 149 -203c0 -119 -72 -205 -191 -205z" />
    <glyph glyph-name="t" unicode="t" vert-adv-y="1200" 
d="M401 -4c-123 0 -178 25 -178 136v321h-170v57h170v170h65v-170h226v-57h-226v-322c0 -63 28 -78 120 -78c53 0 72 0 106 2v-55c-30 -3 -54 -4 -113 -4z" />
    <glyph glyph-name="tbar" unicode="&#x167;" vert-adv-y="1200" 
d="M97 289v57h130v107h-170v57h170v170h65v-170h226v-57h-226v-107h186v-57h-186v-158c0 -63 28 -78 120 -78c53 0 72 0 106 2v-55c-30 -3 -54 -4 -113 -4c-123 0 -178 25 -178 136v157h-130z" />
    <glyph glyph-name="tcaron" unicode="&#x165;" vert-adv-y="1200" 
d="M454 564l18 151h77l-45 -151h-50zM53 453v57h170v170h65v-170h226v-57h-226v-322c0 -63 28 -78 120 -78c53 0 72 0 106 2v-55c-30 -3 -54 -4 -113 -4c-123 0 -178 25 -178 136v321h-170z" />
    <glyph glyph-name="uni0163" unicode="&#x163;" vert-adv-y="1200" 
d="M53 453v57h170v170h65v-170h226v-57h-226v-322c0 -63 28 -78 120 -78c53 0 72 0 106 2v-55c-30 -3 -53 -4 -110 -4l-31 -37v-2c45 8 94 -10 94 -63s-48 -75 -101 -75c-39 0 -76 13 -103 30l19 22c23 -10 45 -16 72 -16c36 0 55 15 55 40c0 24 -16 33 -42 33
c-14 0 -32 -3 -42 -8l-12 18l48 59c-95 6 -138 37 -138 135v321h-170z" />
    <glyph glyph-name="uni021B" unicode="&#x21b;" vert-adv-y="1200" 
d="M401 -4c-123 0 -178 25 -178 136v321h-170v57h170v170h65v-170h226v-57h-226v-322c0 -63 28 -78 120 -78c53 0 72 0 106 2v-55c-30 -3 -54 -4 -113 -4zM314 -211l40 176h79l-68 -176h-51z" />
    <glyph glyph-name="u" unicode="u" vert-adv-y="1200" 
d="M434 0v73h-2c-32 -47 -88 -85 -176 -85c-95 0 -164 53 -164 169v353h65v-339c0 -68 28 -126 116 -126c99 0 161 67 161 142v323h65v-510h-65z" />
    <glyph glyph-name="uacute" unicode="&#xfa;" vert-adv-y="1200" 
d="M434 0v73h-2c-32 -47 -88 -85 -176 -85c-95 0 -164 53 -164 169v353h65v-339c0 -68 28 -126 116 -126c99 0 161 67 161 142v323h65v-510h-65zM258 593l62 132h78l-86 -132h-54z" />
    <glyph glyph-name="ubreve" unicode="&#x16d;" vert-adv-y="1200" 
d="M434 0v73h-2c-32 -47 -88 -85 -176 -85c-95 0 -164 53 -164 169v353h65v-339c0 -68 28 -126 116 -126c99 0 161 67 161 142v323h65v-510h-65zM168 715h50c5 -50 28 -78 74 -78s69 28 73 78h51c-4 -81 -52 -127 -124 -127c-71 0 -121 44 -124 127z" />
    <glyph glyph-name="ucircumflex" unicode="&#xfb;" vert-adv-y="1200" 
d="M434 0v73h-2c-32 -47 -88 -85 -176 -85c-95 0 -164 53 -164 169v353h65v-339c0 -68 28 -126 116 -126c99 0 161 67 161 142v323h65v-510h-65zM164 595l91 130h74l90 -130h-68l-59 93h-1l-59 -93h-68z" />
    <glyph glyph-name="udieresis" unicode="&#xfc;" vert-adv-y="1200" 
d="M434 0v73h-2c-32 -47 -88 -85 -176 -85c-95 0 -164 53 -164 169v353h65v-339c0 -68 28 -126 116 -126c99 0 161 67 161 142v323h65v-510h-65zM175 612v84h84v-84h-84zM324 612v84h84v-84h-84z" />
    <glyph glyph-name="ugrave" unicode="&#xf9;" vert-adv-y="1200" 
d="M434 0v73h-2c-32 -47 -88 -85 -176 -85c-95 0 -164 53 -164 169v353h65v-339c0 -68 28 -126 116 -126c99 0 161 67 161 142v323h65v-510h-65zM181 725h79l55 -132h-54z" />
    <glyph glyph-name="uhungarumlaut" unicode="&#x171;" vert-adv-y="1200" 
d="M434 0v73h-2c-32 -47 -88 -85 -176 -85c-95 0 -164 53 -164 169v353h65v-339c0 -68 28 -126 116 -126c99 0 161 67 161 142v323h65v-510h-65zM192 592l62 132h78l-86 -132h-54zM329 592l62 132h79l-87 -132h-54z" />
    <glyph glyph-name="umacron" unicode="&#x16b;" vert-adv-y="1200" 
d="M434 0v73h-2c-32 -47 -88 -85 -176 -85c-95 0 -164 53 -164 169v353h65v-339c0 -68 28 -126 116 -126c99 0 161 67 161 142v323h65v-510h-65zM167 617v57h249v-57h-249z" />
    <glyph glyph-name="uogonek" unicode="&#x173;" vert-adv-y="1200" 
d="M434 0v73h-2c-32 -47 -88 -85 -176 -85c-95 0 -164 53 -164 169v353h65v-339c0 -68 28 -126 116 -126c99 0 161 67 161 142v323h65v-510c-47 -33 -72 -63 -72 -89c0 -23 18 -37 45 -37c19 0 34 3 50 10v-49c-17 -6 -39 -11 -62 -11c-61 0 -91 31 -91 75
c0 45 41 83 79 101h-14z" />
    <glyph glyph-name="uring" unicode="&#x16f;" vert-adv-y="1200" 
d="M434 0v73h-2c-32 -47 -88 -85 -176 -85c-95 0 -164 53 -164 169v353h65v-339c0 -68 28 -126 116 -126c99 0 161 67 161 142v323h65v-510h-65zM205 646c0 51 36 85 86 85s86 -34 86 -85c0 -50 -36 -85 -86 -85s-86 35 -86 85zM242 646c0 -30 19 -51 49 -51s50 21 50 51
c0 29 -20 51 -50 51s-49 -22 -49 -51z" />
    <glyph glyph-name="utilde" unicode="&#x169;" vert-adv-y="1200" 
d="M434 0v73h-2c-32 -47 -88 -85 -176 -85c-95 0 -164 53 -164 169v353h65v-339c0 -68 28 -126 116 -126c99 0 161 67 161 142v323h65v-510h-65zM154 600c1 63 34 90 72 90c51 0 93 -41 124 -41c21 0 26 19 27 39h51c-1 -64 -34 -89 -72 -89c-50 0 -93 41 -124 41
c-21 0 -26 -21 -27 -40h-51z" />
    <glyph glyph-name="v" unicode="v" vert-adv-y="1200" 
d="M263 0l-195 510h72l160 -444h2l160 444h70l-194 -510h-75z" />
    <glyph glyph-name="w" unicode="w" vert-adv-y="1200" 
d="M131 0l-96 510h70l68 -436h4l84 436h79l84 -436h5l68 436h68l-96 -510h-78l-88 431h-5l-88 -431h-79z" />
    <glyph glyph-name="wacute" unicode="&#x1e83;" vert-adv-y="1200" 
d="M131 0l-96 510h70l68 -436h4l84 436h79l84 -436h5l68 436h68l-96 -510h-78l-88 431h-5l-88 -431h-79zM266 593l62 132h78l-86 -132h-54z" />
    <glyph glyph-name="wcircumflex" unicode="&#x175;" vert-adv-y="1200" 
d="M131 0l-96 510h70l68 -436h4l84 436h79l84 -436h5l68 436h68l-96 -510h-78l-88 431h-5l-88 -431h-79zM172 595l91 130h74l90 -130h-68l-59 93h-1l-59 -93h-68z" />
    <glyph glyph-name="wdieresis" unicode="&#x1e85;" vert-adv-y="1200" 
d="M131 0l-96 510h70l68 -436h4l84 436h79l84 -436h5l68 436h68l-96 -510h-78l-88 431h-5l-88 -431h-79zM184 612v84h84v-84h-84zM333 612v84h84v-84h-84z" />
    <glyph glyph-name="wgrave" unicode="&#x1e81;" vert-adv-y="1200" 
d="M131 0l-96 510h70l68 -436h4l84 436h79l84 -436h5l68 436h68l-96 -510h-78l-88 431h-5l-88 -431h-79zM189 725h79l55 -132h-54z" />
    <glyph glyph-name="x" unicode="x" vert-adv-y="0" 
d="M70 0l188 261l-171 249h78l134 -203h2l134 203h77l-172 -249l190 -261h-78l-152 217h-3l-149 -217h-78z" />
    <glyph glyph-name="y" unicode="y" vert-adv-y="1200" 
d="M157 -179c-15 0 -31 1 -52 4v56c20 -3 36 -3 42 -3c51 0 86 34 122 129l-208 503h73l168 -426h2l165 426h70l-210 -525c-51 -127 -96 -164 -172 -164z" />
    <glyph glyph-name="yacute" unicode="&#xfd;" vert-adv-y="1200" 
d="M157 -179c-15 0 -31 1 -52 4v56c20 -3 36 -3 42 -3c51 0 86 34 122 129l-208 503h73l168 -426h2l165 426h70l-210 -525c-51 -127 -96 -164 -172 -164zM265 593l62 132h78l-86 -132h-54z" />
    <glyph glyph-name="ycircumflex" unicode="&#x177;" vert-adv-y="1200" 
d="M157 -179c-15 0 -31 1 -52 4v56c20 -3 36 -3 42 -3c51 0 86 34 122 129l-208 503h73l168 -426h2l165 426h70l-210 -525c-51 -127 -96 -164 -172 -164zM171 595l91 130h74l90 -130h-68l-59 93h-1l-59 -93h-68z" />
    <glyph glyph-name="ydieresis" unicode="&#xff;" vert-adv-y="1200" 
d="M157 -179c-15 0 -31 1 -52 4v56c20 -3 36 -3 42 -3c51 0 86 34 122 129l-208 503h73l168 -426h2l165 426h70l-210 -525c-51 -127 -96 -164 -172 -164zM182 612v84h84v-84h-84zM331 612v84h84v-84h-84z" />
    <glyph glyph-name="ygrave" unicode="&#x1ef3;" vert-adv-y="1200" 
d="M157 -179c-15 0 -31 1 -52 4v56c20 -3 36 -3 42 -3c51 0 86 34 122 129l-208 503h73l168 -426h2l165 426h70l-210 -525c-51 -127 -96 -164 -172 -164zM188 725h79l55 -132h-54z" />
    <glyph glyph-name="z" unicode="z" vert-adv-y="1200" 
d="M88 0v49l323 402v2h-304v57h393v-41l-328 -410v-2h340v-57h-424z" />
    <glyph glyph-name="zacute" unicode="&#x17a;" vert-adv-y="1200" 
d="M88 0v49l323 402v2h-304v57h393v-41l-328 -410v-2h340v-57h-424zM265 593l62 132h78l-86 -132h-54z" />
    <glyph glyph-name="zcaron" unicode="&#x17e;" vert-adv-y="1200" 
d="M88 0v49l323 402v2h-304v57h393v-41l-328 -410v-2h340v-57h-424zM171 724h68l59 -93h2l59 93h67l-90 -130h-74z" />
    <glyph glyph-name="zdotaccent" unicode="&#x17c;" vert-adv-y="1200" 
d="M88 0v49l323 402v2h-304v57h393v-41l-328 -410v-2h340v-57h-424zM248 612v101h103v-101h-103z" />
    <glyph glyph-name="i.latn_TRK" vert-adv-y="1200" 
d="M121 0v57h166v396h-166v57h231v-453h146v-57h-377zM259 612v101h103v-101h-103z" />
    <glyph glyph-name="a.ss01" vert-adv-y="1200" 
d="M442 0v83h-2c-29 -53 -82 -96 -165 -96c-118 0 -212 101 -212 268c0 166 94 267 213 267c85 0 136 -44 164 -98h2v86h65v-510h-65zM131 255c0 -116 56 -212 154 -212c91 0 157 82 157 212c0 129 -66 211 -157 211c-98 0 -154 -96 -154 -211z" />
    <glyph glyph-name="aacute.ss01" vert-adv-y="1200" 
d="M442 0v83h-2c-29 -53 -82 -96 -165 -96c-118 0 -212 101 -212 268c0 166 94 267 213 267c85 0 136 -44 164 -98h2v86h65v-510h-65zM131 255c0 -116 56 -212 154 -212c91 0 157 82 157 212c0 129 -66 211 -157 211c-98 0 -154 -96 -154 -211zM261 593l62 132h78l-86 -132
h-54z" />
    <glyph glyph-name="abreve.ss01" vert-adv-y="1200" 
d="M442 0v83h-2c-29 -53 -82 -96 -165 -96c-118 0 -212 101 -212 268c0 166 94 267 213 267c85 0 136 -44 164 -98h2v86h65v-510h-65zM131 255c0 -116 56 -212 154 -212c91 0 157 82 157 212c0 129 -66 211 -157 211c-98 0 -154 -96 -154 -211zM170 715h50
c5 -50 28 -78 74 -78s69 28 73 78h51c-4 -81 -52 -127 -124 -127c-71 0 -121 44 -124 127z" />
    <glyph glyph-name="acircumflex.ss01" vert-adv-y="1200" 
d="M442 0v83h-2c-29 -53 -82 -96 -165 -96c-118 0 -212 101 -212 268c0 166 94 267 213 267c85 0 136 -44 164 -98h2v86h65v-510h-65zM131 255c0 -116 56 -212 154 -212c91 0 157 82 157 212c0 129 -66 211 -157 211c-98 0 -154 -96 -154 -211zM167 595l91 130h74l90 -130
h-68l-59 93h-1l-59 -93h-68z" />
    <glyph glyph-name="adieresis.ss01" vert-adv-y="1200" 
d="M442 0v83h-2c-29 -53 -82 -96 -165 -96c-118 0 -212 101 -212 268c0 166 94 267 213 267c85 0 136 -44 164 -98h2v86h65v-510h-65zM131 255c0 -116 56 -212 154 -212c91 0 157 82 157 212c0 129 -66 211 -157 211c-98 0 -154 -96 -154 -211zM178 612v84h84v-84h-84z
M327 612v84h84v-84h-84z" />
    <glyph glyph-name="agrave.ss01" vert-adv-y="1200" 
d="M442 0v83h-2c-29 -53 -82 -96 -165 -96c-118 0 -212 101 -212 268c0 166 94 267 213 267c85 0 136 -44 164 -98h2v86h65v-510h-65zM131 255c0 -116 56 -212 154 -212c91 0 157 82 157 212c0 129 -66 211 -157 211c-98 0 -154 -96 -154 -211zM184 725h79l55 -132h-54z" />
    <glyph glyph-name="amacron.ss01" vert-adv-y="1200" 
d="M442 0v83h-2c-29 -53 -82 -96 -165 -96c-118 0 -212 101 -212 268c0 166 94 267 213 267c85 0 136 -44 164 -98h2v86h65v-510h-65zM131 255c0 -116 56 -212 154 -212c91 0 157 82 157 212c0 129 -66 211 -157 211c-98 0 -154 -96 -154 -211zM170 617v57h249v-57h-249z
" />
    <glyph glyph-name="aogonek.ss01" vert-adv-y="1200" 
d="M442 0v83h-2c-29 -53 -82 -96 -165 -96c-118 0 -212 101 -212 268c0 166 94 267 213 267c85 0 136 -44 164 -98h2v86h65v-510c-47 -33 -72 -63 -72 -89c0 -23 18 -37 45 -37c19 0 34 3 50 10v-49c-17 -6 -39 -11 -62 -11c-61 0 -91 31 -91 75c0 45 41 83 79 101h-14z
M131 255c0 -116 56 -212 154 -212c91 0 157 82 157 212c0 129 -66 211 -157 211c-98 0 -154 -96 -154 -211z" />
    <glyph glyph-name="aring.ss01" vert-adv-y="1200" 
d="M442 0v83h-2c-29 -53 -82 -96 -165 -96c-118 0 -212 101 -212 268c0 166 94 267 213 267c85 0 136 -44 164 -98h2v86h65v-510h-65zM131 255c0 -116 56 -212 154 -212c91 0 157 82 157 212c0 129 -66 211 -157 211c-98 0 -154 -96 -154 -211zM207 646c0 51 36 85 86 85
s86 -34 86 -85c0 -50 -36 -85 -86 -85s-86 35 -86 85zM244 646c0 -30 19 -51 49 -51s50 21 50 51c0 29 -20 51 -50 51s-49 -22 -49 -51z" />
    <glyph glyph-name="atilde.ss01" vert-adv-y="1200" 
d="M442 0v83h-2c-29 -53 -82 -96 -165 -96c-118 0 -212 101 -212 268c0 166 94 267 213 267c85 0 136 -44 164 -98h2v86h65v-510h-65zM131 255c0 -116 56 -212 154 -212c91 0 157 82 157 212c0 129 -66 211 -157 211c-98 0 -154 -96 -154 -211zM157 600c1 63 34 90 72 90
c51 0 93 -41 124 -41c21 0 26 19 27 39h51c-1 -64 -34 -89 -72 -89c-50 0 -93 41 -124 41c-21 0 -26 -21 -27 -40h-51z" />
    <glyph glyph-name="adieresis.ss02" vert-adv-y="1200" 
d="M237 -13c-100 0 -162 53 -162 149c0 110 79 139 201 161c80 14 138 22 138 85c0 50 -36 84 -119 84c-93 0 -124 -42 -128 -110h-68c5 93 65 167 200 167c98 0 179 -40 179 -162v-267c0 -38 9 -49 36 -49c5 0 12 0 21 3v-47c-11 -4 -26 -6 -44 -6c-42 0 -73 17 -76 82h-2
c-36 -57 -98 -90 -176 -90zM143 136c0 -62 31 -92 107 -92c100 0 164 55 164 146v97c-20 -23 -52 -29 -126 -44c-105 -21 -145 -37 -145 -107zM188 652c0 24 16 45 44 45c29 0 45 -21 45 -45c0 -23 -16 -44 -45 -44c-28 0 -44 21 -44 44zM336 652c0 24 16 45 44 45
c29 0 45 -21 45 -45c0 -23 -16 -44 -45 -44c-28 0 -44 21 -44 44z" />
    <glyph glyph-name="cdotaccent.ss02" vert-adv-y="1200" 
d="M314 -13c-137 0 -230 108 -230 268c0 159 93 267 230 267c117 0 196 -83 207 -191h-68c-3 57 -44 134 -139 134c-112 0 -162 -106 -162 -210c0 -105 50 -212 162 -212c96 0 136 77 139 139h68c-6 -110 -89 -195 -207 -195zM259 662c0 31 19 55 54 55c36 0 55 -24 55 -55
c0 -30 -20 -54 -55 -54c-34 0 -54 24 -54 54z" />
    <glyph glyph-name="edieresis.ss02" vert-adv-y="1200" 
d="M308 -14c-142 0 -224 114 -224 269c0 162 89 268 225 268s212 -104 212 -245c0 -12 0 -28 -1 -36h-368c1 -102 53 -200 158 -200c90 0 128 68 138 114h66c-22 -92 -86 -170 -206 -170zM152 299h300c0 91 -51 168 -146 168c-89 0 -149 -73 -154 -168zM184 654
c0 24 16 45 44 45c29 0 45 -21 45 -45c0 -23 -16 -44 -45 -44c-28 0 -44 21 -44 44zM332 654c0 24 16 45 44 45c29 0 45 -21 45 -45c0 -23 -16 -44 -45 -44c-28 0 -44 21 -44 44z" />
    <glyph glyph-name="edotaccent.ss02" vert-adv-y="1200" 
d="M308 -14c-142 0 -224 114 -224 269c0 162 89 268 225 268s212 -104 212 -245c0 -12 0 -28 -1 -36h-368c1 -102 53 -200 158 -200c90 0 128 68 138 114h66c-22 -92 -86 -170 -206 -170zM152 299h300c0 91 -51 168 -146 168c-89 0 -149 -73 -154 -168zM248 664
c0 31 19 55 54 55c36 0 55 -24 55 -55c0 -30 -20 -54 -55 -54c-34 0 -54 24 -54 54z" />
    <glyph glyph-name="uni0123.ss02" vert-adv-y="1200" 
d="M291 -183c-131 0 -202 67 -210 156h68c10 -56 52 -99 143 -99c96 0 154 44 154 149v96h-2c-29 -57 -86 -95 -164 -95c-115 0 -214 80 -214 250c0 168 99 248 214 248c79 0 135 -40 164 -94h2v82h65v-478c0 -144 -87 -215 -220 -215zM135 274c0 -118 59 -193 156 -193
c86 0 155 62 155 193c0 130 -69 191 -155 191c-97 0 -156 -75 -156 -191zM249 596l68 176h51l-39 -176h-80z" />
    <glyph glyph-name="gdotaccent.ss02" vert-adv-y="1200" 
d="M291 -183c-131 0 -202 67 -210 156h68c10 -56 52 -99 143 -99c96 0 154 44 154 149v96h-2c-29 -57 -86 -95 -164 -95c-115 0 -214 80 -214 250c0 168 99 248 214 248c79 0 135 -40 164 -94h2v82h65v-478c0 -144 -87 -215 -220 -215zM135 274c0 -118 59 -193 156 -193
c86 0 155 62 155 193c0 130 -69 191 -155 191c-97 0 -156 -75 -156 -191zM236 662c0 31 19 55 54 55c36 0 55 -24 55 -55c0 -30 -20 -54 -55 -54c-34 0 -54 24 -54 54z" />
    <glyph glyph-name="i.ss02" vert-adv-y="1200" 
d="M121 0v57h166v396h-166v57h231v-453h146v-57h-377zM256 662c0 31 19 55 54 55c36 0 55 -24 55 -55c0 -30 -20 -54 -55 -54c-34 0 -54 24 -54 54z" />
    <glyph glyph-name="idieresis.ss02" vert-adv-y="1200" 
d="M121 0v57h166v396h-166v57h231v-453h146v-57h-377zM192 652c0 24 16 45 44 45c29 0 45 -21 45 -45c0 -23 -16 -44 -45 -44c-28 0 -44 21 -44 44zM340 652c0 24 16 45 44 45c29 0 45 -21 45 -45c0 -23 -16 -44 -45 -44c-28 0 -44 21 -44 44z" />
    <glyph glyph-name="iogonek.ss02" vert-adv-y="1200" 
d="M121 0v57h166v396h-166v57h231v-453h146v-57h-150c-47 -33 -72 -63 -72 -89c0 -23 18 -37 45 -37c19 0 34 3 50 10v-49c-17 -6 -39 -11 -62 -11c-61 0 -91 31 -91 75c0 45 41 83 79 101h-176zM256 662c0 31 19 55 54 55c36 0 55 -24 55 -55c0 -30 -20 -54 -55 -54
c-34 0 -54 24 -54 54z" />
    <glyph glyph-name="j.ss02" vert-adv-y="1200" 
d="M246 -180c-29 0 -89 1 -130 4v56c36 -2 90 -3 121 -3c94 0 132 17 132 79v497h-253v57h318v-559c0 -99 -78 -131 -188 -131zM339 662c0 31 19 55 54 55c36 0 55 -24 55 -55c0 -30 -20 -54 -55 -54c-34 0 -54 24 -54 54z" />
    <glyph glyph-name="uni0137.ss02" vert-adv-y="1200" 
d="M114 0v715h65v-450l278 245h80l-215 -189l245 -321h-78l-212 282l-98 -86v-196h-65zM248 -224l40 176h79l-68 -176h-51z" />
    <glyph glyph-name="uni013C.ss02" vert-adv-y="1200" 
d="M83 0v57h185v601h-185v57h250v-658h184v-57h-434zM222 -224l40 176h79l-68 -176h-51z" />
    <glyph glyph-name="uni0146.ss02" vert-adv-y="1200" 
d="M101 0v510h65v-74h2c32 47 88 86 176 86c95 0 164 -53 164 -169v-353h-65v339c0 68 -27 126 -116 126c-99 0 -161 -68 -161 -143v-322h-65zM225 -224l40 176h79l-68 -176h-51z" />
    <glyph glyph-name="odieresis.ss02" vert-adv-y="1200" 
d="M300 -14c-137 0 -221 110 -221 268c0 159 84 269 222 269c137 0 220 -110 220 -269c0 -158 -83 -268 -221 -268zM147 254c0 -118 52 -211 153 -211c103 0 153 94 153 211c0 118 -51 212 -153 212c-101 0 -153 -93 -153 -212zM181 653c0 24 16 45 44 45
c29 0 45 -21 45 -45c0 -23 -16 -44 -45 -44c-28 0 -44 21 -44 44zM329 653c0 24 16 45 44 45c29 0 45 -21 45 -45c0 -23 -16 -44 -45 -44c-28 0 -44 21 -44 44z" />
    <glyph glyph-name="uni0157.ss02" vert-adv-y="1200" 
d="M274 285v-228h186v-57h-377v57h126v396h-126v57h191v-104h3c34 67 110 116 202 116c23 0 49 -1 67 -3v-64c-14 2 -46 3 -66 3c-101 0 -206 -74 -206 -173zM165 -224l40 176h79l-68 -176h-51z" />
    <glyph glyph-name="uni0219.ss02" vert-adv-y="1200" 
d="M317 -13c-146 0 -222 78 -226 180h67c4 -72 57 -123 159 -123c94 0 133 44 133 95c0 67 -51 77 -153 101c-106 25 -188 47 -188 145c0 83 67 137 185 137c136 0 196 -71 206 -155h-67c-13 63 -57 98 -140 98c-70 0 -116 -27 -116 -76c0 -57 50 -69 150 -92
c102 -24 191 -50 191 -156c0 -93 -75 -154 -201 -154zM234 -224l40 176h79l-68 -176h-51z" />
    <glyph glyph-name="uni021B.ss02" vert-adv-y="1200" 
d="M401 -4c-123 0 -178 25 -178 136v321h-170v57h170v170h65v-170h226v-57h-226v-322c0 -63 28 -78 120 -78c53 0 72 0 106 2v-55c-30 -3 -54 -4 -113 -4zM314 -211l40 176h79l-68 -176h-51z" />
    <glyph glyph-name="udieresis.ss02" vert-adv-y="1200" 
d="M434 0v73h-2c-32 -47 -88 -85 -176 -85c-95 0 -164 53 -164 169v353h65v-339c0 -68 28 -126 116 -126c99 0 161 67 161 142v323h65v-510h-65zM173 652c0 24 16 45 44 45c29 0 45 -21 45 -45c0 -23 -16 -44 -45 -44c-28 0 -44 21 -44 44zM321 652c0 24 16 45 44 45
c29 0 45 -21 45 -45c0 -23 -16 -44 -45 -44c-28 0 -44 21 -44 44z" />
    <glyph glyph-name="wdieresis.ss02" vert-adv-y="1200" 
d="M131 0l-96 510h70l68 -436h4l84 436h79l84 -436h5l68 436h68l-96 -510h-78l-88 431h-5l-88 -431h-79zM182 652c0 24 16 45 44 45c29 0 45 -21 45 -45c0 -23 -16 -44 -45 -44c-28 0 -44 21 -44 44zM330 652c0 24 16 45 44 45c29 0 45 -21 45 -45c0 -23 -16 -44 -45 -44
c-28 0 -44 21 -44 44z" />
    <glyph glyph-name="ydieresis.ss02" vert-adv-y="1200" 
d="M157 -179c-15 0 -31 1 -52 4v56c20 -3 36 -3 42 -3c51 0 86 34 122 129l-208 503h73l168 -426h2l165 426h70l-210 -525c-51 -127 -96 -164 -172 -164zM180 652c0 24 16 45 44 45c29 0 45 -21 45 -45c0 -23 -16 -44 -45 -44c-28 0 -44 21 -44 44zM328 652
c0 24 16 45 44 45c29 0 45 -21 45 -45c0 -23 -16 -44 -45 -44c-28 0 -44 21 -44 44z" />
    <glyph glyph-name="zdotaccent.ss02" vert-adv-y="1200" 
d="M88 0v49l323 402v2h-304v57h393v-41l-328 -410v-2h340v-57h-424zM244 662c0 31 19 55 54 55c36 0 55 -24 55 -55c0 -30 -20 -54 -55 -54c-34 0 -54 24 -54 54z" />
    <glyph glyph-name="i.latn_TRK.ss02" vert-adv-y="1200" 
d="M121 0v57h166v396h-166v57h231v-453h146v-57h-377zM256 662c0 31 19 55 54 55c36 0 55 -24 55 -55c0 -30 -20 -54 -55 -54c-34 0 -54 24 -54 54z" />
    <glyph glyph-name="adieresis.ss01.ss02" vert-adv-y="1200" 
d="M442 0v83h-2c-29 -53 -82 -96 -165 -96c-118 0 -212 101 -212 268c0 166 94 267 213 267c85 0 136 -44 164 -98h2v86h65v-510h-65zM131 255c0 -116 56 -212 154 -212c91 0 157 82 157 212c0 129 -66 211 -157 211c-98 0 -154 -96 -154 -211zM176 652c0 24 16 45 44 45
c29 0 45 -21 45 -45c0 -23 -16 -44 -45 -44c-28 0 -44 21 -44 44zM324 652c0 24 16 45 44 45c29 0 45 -21 45 -45c0 -23 -16 -44 -45 -44c-28 0 -44 21 -44 44z" />
    <glyph glyph-name="fi" unicode="&#xfb01;" vert-adv-y="1200" 
d="M129 0v453h-103v57h103v75c0 111 49 136 132 136c15 0 28 -1 51 -4v-55c-18 1 -27 2 -42 2c-61 0 -76 -15 -76 -78v-76h308v-510h-65v453h-243v-453h-65zM413 607v93h93v-93h-93z" />
    <glyph glyph-name="fl" unicode="&#xfb02;" vert-adv-y="1200" 
d="M129 0v453h-103v57h103v75c0 111 49 136 132 136c15 0 28 -1 51 -4v-55c-18 1 -27 2 -42 2c-61 0 -76 -15 -76 -78v-76h118v-57h-118v-453h-65zM437 0v715h65v-715h-65z" />
    <glyph glyph-name="s_s" horiz-adv-x="1200" vert-adv-y="1200" 
d="M317 -13c-146 0 -222 78 -226 180h67c4 -72 57 -123 159 -123c94 0 133 44 133 95c0 67 -51 77 -153 101c-106 25 -188 47 -188 145c0 83 67 137 185 137c136 0 196 -71 206 -155h-67c-13 63 -57 98 -140 98c-70 0 -116 -27 -116 -76c0 -57 50 -69 150 -92
c102 -24 191 -50 191 -156c0 -93 -75 -154 -201 -154zM691 167h67c4 -72 57 -123 159 -123c94 0 133 44 133 95c0 67 -51 77 -153 101c-106 25 -188 47 -188 145c0 83 67 137 185 137c136 0 196 -71 206 -155h-67c-13 63 -57 98 -140 98c-70 0 -116 -27 -116 -76
c0 -57 50 -69 150 -92c102 -24 191 -50 191 -156c0 -93 -75 -154 -201 -154c-146 0 -222 78 -226 180z" />
    <glyph glyph-name="w_w_w" horiz-adv-x="1800" vert-adv-y="1200" 
d="M142 0l-110 510h70l81 -436h5l104 436h79l104 -436h4l89 436h95l88 -436h4l105 436h78l105 -436h4l88 436h97l87 -436h5l104 436h79l104 -436h4l86 436h67l-112 -510h-79l-108 431h-4l-109 -431h-78l-95 420l-96 -420h-78l-108 431h-4l-109 -431h-79l-95 417l-94 -417
h-79l-108 431h-4l-109 -431h-78z" />
    <glyph glyph-name="f_f_i.ss02" horiz-adv-x="1200" vert-adv-y="1200" 
d="M93 453v57h156v75c0 111 49 136 176 136c29 0 57 -2 96 -6v-55c-35 3 -52 4 -102 4c-90 0 -105 -18 -105 -83v-71h326v75c0 111 49 136 175 136c29 0 58 -2 97 -6v-55c-36 3 -53 4 -102 4c-91 0 -105 -18 -105 -83v-71h397v-510h-65v453h-332v-453h-65v453h-326v-453h-65
v453h-156zM1011 653c0 28 17 49 48 49c32 0 48 -21 48 -49c0 -26 -17 -47 -48 -47s-48 21 -48 47z" />
    <glyph glyph-name="f_i.ss02" vert-adv-y="1200" 
d="M129 0v453h-103v57h103v75c0 111 49 136 132 136c15 0 28 -1 51 -4v-55c-18 1 -27 2 -42 2c-61 0 -76 -15 -76 -78v-76h308v-510h-65v453h-243v-453h-65zM411 653c0 28 17 49 48 49c32 0 48 -21 48 -49c0 -26 -17 -47 -48 -47s-48 21 -48 47z" />
    <glyph glyph-name="ordfeminine" unicode="&#xaa;" vert-adv-y="1200" 
d="M244 311c-77 0 -125 43 -125 112c0 79 61 104 158 121c58 11 101 19 101 68c0 36 -26 61 -85 61c-66 0 -92 -31 -95 -83h-62c3 70 49 132 162 132c79 0 140 -32 140 -128v-190c0 -26 3 -41 20 -41h12v-40c-13 -3 -24 -5 -34 -5c-37 0 -54 18 -57 62h-3
c-27 -44 -75 -69 -132 -69zM182 426c0 -40 25 -63 78 -63c70 0 118 44 118 107v67c-10 -17 -40 -26 -92 -36c-60 -11 -104 -28 -104 -75z" />
    <glyph glyph-name="ordmasculine" unicode="&#xba;" vert-adv-y="1200" 
d="M300 311c-118 0 -189 85 -189 206c0 120 72 205 189 205s188 -84 188 -205s-71 -206 -188 -206zM172 517c0 -85 41 -153 128 -153c86 0 127 68 127 153s-41 152 -127 152c-87 0 -128 -67 -128 -152z" />
    <glyph glyph-name="uni0410" unicode="&#x410;" vert-adv-y="1200" 
d="M38 0l221 715h81l222 -715h-78l-57 198h-257l-56 -198h-76zM192 263h214l-105 383h-4z" />
    <glyph glyph-name="uni0411" unicode="&#x411;" vert-adv-y="1200" 
d="M88 0v715h404v-64h-332v-213h162c138 0 222 -66 222 -214c0 -150 -88 -224 -231 -224h-225zM160 64h155c106 0 152 62 152 160c0 92 -47 150 -141 150h-166v-310z" />
    <glyph glyph-name="uni0412" unicode="&#x412;" vert-adv-y="1200" 
d="M88 0v715h244c117 0 188 -68 188 -180c0 -84 -41 -129 -94 -151v-2c67 -16 118 -77 118 -177c0 -135 -80 -205 -198 -205h-258zM160 64h181c89 0 127 57 127 141s-45 139 -114 139h-194v-280zM160 408h176c74 0 108 49 108 120c0 74 -38 123 -109 123h-175v-243z" />
    <glyph glyph-name="uni0413" unicode="&#x413;" vert-adv-y="1200" 
d="M167 0v715h380v-64h-307v-651h-73z" />
    <glyph glyph-name="uni0403" unicode="&#x403;" vert-adv-y="1200" 
d="M167 0v715h380v-64h-307v-651h-73zM321 798l62 132h78l-86 -132h-54z" />
    <glyph glyph-name="uni0490" unicode="&#x490;" vert-adv-y="1200" 
d="M459 715v99h68v-163h-307v-651h-73v715h312z" />
    <glyph glyph-name="uni0492" unicode="&#x492;" vert-adv-y="1200" 
d="M27 321v57h140v337h380v-64h-307v-273h200v-57h-200v-321h-73v321h-140z" />
    <glyph glyph-name="uni0414" unicode="&#x414;" vert-adv-y="1200" 
d="M18 -129v193h45c53 0 71 54 77 180l21 471h346v-651h77v-193h-68v129h-431v-129h-67zM171 64h264v588h-202l-21 -449c-3 -70 -18 -110 -41 -137v-2z" />
    <glyph glyph-name="uni0415" unicode="&#x415;" vert-adv-y="1200" 
d="M98 0v715h433v-64h-360v-246h321v-64h-321v-277h370v-64h-443z" />
    <glyph glyph-name="uni0400" unicode="&#x400;" vert-adv-y="1200" 
d="M98 0v715h433v-64h-360v-246h321v-64h-321v-277h370v-64h-443zM208 930h79l55 -132h-54z" />
    <glyph glyph-name="uni0401" unicode="&#x401;" vert-adv-y="1200" 
d="M98 0v715h433v-64h-360v-246h321v-64h-321v-277h370v-64h-443zM202 817v84h84v-84h-84zM351 817v84h84v-84h-84z" />
    <glyph glyph-name="uni0416" unicode="&#x416;" vert-adv-y="1200" 
d="M5 0l150 352l-137 363h82l109 -334h55v334h73l1 -334h57l107 334h81l-137 -363l149 -352h-91l-111 316h-55l-1 -316h-73v316h-56l-112 -316h-91z" />
    <glyph glyph-name="uni0417" unicode="&#x417;" vert-adv-y="1200" 
d="M294 -14c-126 0 -237 70 -237 208h74c0 -95 80 -144 165 -144c96 0 160 58 160 141c0 75 -54 137 -155 137h-77v64h70c94 0 142 59 142 133c0 84 -66 136 -147 136c-76 0 -150 -45 -150 -137h-74c0 134 113 201 225 201c110 0 220 -64 220 -194c0 -75 -38 -138 -114 -169
v-2c81 -25 134 -78 134 -170c0 -131 -105 -204 -236 -204z" />
    <glyph glyph-name="uni0418" unicode="&#x418;" vert-adv-y="1200" 
d="M519 0h-72v612h-1l-276 -612h-89v715h72v-612h2l275 612h89v-715z" />
    <glyph glyph-name="uni0419" unicode="&#x419;" vert-adv-y="1200" 
d="M519 0h-72v612h-1l-276 -612h-89v715h72v-612h2l275 612h89v-715zM175 920h50c5 -50 28 -78 74 -78s69 28 73 78h51c-4 -81 -52 -127 -124 -127c-71 0 -121 44 -124 127z" />
    <glyph glyph-name="uni040D" unicode="&#x40d;" vert-adv-y="1200" 
d="M519 0h-72v612h-1l-276 -612h-89v715h72v-612h2l275 612h89v-715zM189 930h79l55 -132h-54z" />
    <glyph glyph-name="uni041A" unicode="&#x41a;" vert-adv-y="1200" 
d="M501 0l-241 316h-64v-316h-72v715h72v-334h65l241 334h81l-266 -360l277 -355h-93z" />
    <glyph glyph-name="uni040C" unicode="&#x40c;" vert-adv-y="1200" 
d="M501 0l-241 316h-64v-316h-72v715h72v-334h65l241 334h81l-266 -360l277 -355h-93zM308 798l62 132h78l-86 -132h-54z" />
    <glyph glyph-name="uni041B" unicode="&#x41b;" vert-adv-y="1200" 
d="M66 -15c-27 0 -51 4 -66 12v63c13 -5 33 -10 57 -10c53 0 82 24 85 111l19 554h349v-715h-72v651h-205l-19 -487c-6 -134 -56 -179 -148 -179z" />
    <glyph glyph-name="uni041C" unicode="&#x41c;" vert-adv-y="1200" 
d="M67 0v715h91l141 -474h2l141 474h91v-715h-73v603h-1l-126 -437h-67l-125 437h-1v-603h-73z" />
    <glyph glyph-name="uni041D" unicode="&#x41d;" vert-adv-y="1200" 
d="M81 0v715h73v-309h292v309h73v-715h-73v342h-292v-342h-73z" />
    <glyph glyph-name="uni041E" unicode="&#x41e;" vert-adv-y="1200" 
d="M301 -13c-152 0 -245 137 -245 371s93 370 245 370c151 0 243 -136 243 -370s-92 -371 -243 -371zM132 358c0 -189 52 -307 169 -307c115 0 167 117 167 307s-52 306 -167 306c-117 0 -169 -117 -169 -306z" />
    <glyph glyph-name="uni041F" unicode="&#x41f;" vert-adv-y="1200" 
d="M90 0v715h420v-715h-72v651h-276v-651h-72z" />
    <glyph glyph-name="uni0420" unicode="&#x420;" vert-adv-y="1200" 
d="M98 0v715h243c117 0 204 -56 204 -206s-88 -207 -204 -207h-171v-302h-72zM170 366h173c81 0 126 45 126 143s-45 142 -126 142h-173v-285z" />
    <glyph glyph-name="uni0421" unicode="&#x421;" vert-adv-y="1200" 
d="M311 -13c-157 0 -239 154 -239 371c0 213 82 370 239 370c131 0 206 -104 221 -241h-76c-14 97 -53 177 -147 177c-123 0 -162 -148 -162 -307c0 -165 43 -306 164 -306c107 0 139 106 146 203h76c-12 -156 -87 -267 -222 -267z" />
    <glyph glyph-name="uni0422" unicode="&#x422;" vert-adv-y="1200" 
d="M264 0v651h-216v64h504v-64h-216v-651h-72z" />
    <glyph glyph-name="uni0423" unicode="&#x423;" vert-adv-y="1200" 
d="M469 715h76l-284 -715h-76l75 188l-205 527h78l165 -423h3z" />
    <glyph glyph-name="uni040E" unicode="&#x40e;" vert-adv-y="1200" 
d="M469 715h76l-284 -715h-76l75 188l-205 527h78l165 -423h3zM182 920h50c5 -50 28 -78 74 -78s69 28 73 78h51c-4 -81 -52 -127 -124 -127c-71 0 -121 44 -124 127z" />
    <glyph glyph-name="uni0424" unicode="&#x424;" vert-adv-y="1200" 
d="M263 0v94c-144 13 -230 105 -230 259c0 155 86 248 230 261v101h73v-101c144 -13 231 -106 231 -261s-87 -247 -231 -259v-94h-73zM109 353c0 -118 57 -188 154 -201v404c-97 -14 -154 -84 -154 -203zM336 151c98 14 155 84 155 202c0 120 -57 190 -155 204v-406z" />
    <glyph glyph-name="uni0425" unicode="&#x425;" vert-adv-y="1200" 
d="M36 0l222 367l-211 348h84l169 -296h1l172 296h81l-212 -349l223 -366h-85l-183 313h-1l-179 -313h-81z" />
    <glyph glyph-name="uni0427" unicode="&#x427;" vert-adv-y="1200" 
d="M423 0v273h-2c-35 -29 -94 -50 -157 -50c-107 0 -200 60 -200 219v273h73v-273c0 -108 60 -155 143 -155c61 0 111 23 143 57v371h73v-715h-73z" />
    <glyph glyph-name="uni0426" unicode="&#x426;" vert-adv-y="1200" 
d="M516 -129v129h-426v715h72v-651h273v651h72v-651h77v-193h-68z" />
    <glyph glyph-name="uni0428" unicode="&#x428;" vert-adv-y="1200" 
d="M53 -1v715h73v-650h138v650h72v-650h138v650h73v-715h-494z" />
    <glyph glyph-name="uni0429" unicode="&#x429;" vert-adv-y="1200" 
d="M516 -129v129h-463v715h73v-651h121v651h73v-651h115v651h72v-651h77v-193h-68z" />
    <glyph glyph-name="uni040F" unicode="&#x40f;" vert-adv-y="1200" 
d="M266 -130v130h-176v715h72v-651h276v651h72v-715h-176v-130h-68z" />
    <glyph glyph-name="uni042C" unicode="&#x42c;" vert-adv-y="1200" 
d="M88 0v715h72v-277h162c138 0 222 -66 222 -214c0 -150 -88 -224 -231 -224h-225zM160 64h155c106 0 152 62 152 160c0 92 -47 150 -141 150h-166v-310z" />
    <glyph glyph-name="uni042B" unicode="&#x42b;" vert-adv-y="1200" 
d="M48 0v715h73v-277h93c117 0 189 -80 189 -221c0 -145 -74 -217 -189 -217h-166zM121 64h86c75 0 122 50 122 155c0 92 -43 155 -114 155h-94v-310zM479 0v715h73v-715h-73z" />
    <glyph glyph-name="uni042A" unicode="&#x42a;" vert-adv-y="1200" 
d="M123 0v651h-109v64h182v-277h165c134 0 216 -75 216 -216c0 -137 -85 -222 -224 -222h-230zM196 64h162c90 0 144 61 144 158c0 94 -50 152 -136 152h-170v-310z" />
    <glyph glyph-name="uni0409" unicode="&#x409;" vert-adv-y="1200" 
d="M57 -15c-20 0 -46 4 -57 12v63c10 -5 28 -10 45 -10c35 0 55 27 57 111l19 554h232v-277h57c111 0 167 -78 167 -216c0 -137 -59 -222 -174 -222h-122v651h-87l-20 -505c-6 -122 -48 -161 -117 -161zM353 64h50c66 0 99 61 99 158c0 92 -30 152 -91 152h-58v-310z" />
    <glyph glyph-name="uni040A" unicode="&#x40a;" vert-adv-y="1200" 
d="M353 715v-295h57c111 0 167 -69 167 -207c0 -137 -59 -213 -174 -213h-122v356h-161v-356h-73v715h73v-295h161v295h72zM353 64h50c66 0 99 53 99 149c0 92 -30 143 -91 143h-58v-292z" />
    <glyph glyph-name="uni0405" unicode="&#x405;" vert-adv-y="1200" 
d="M322 -13c-151 0 -261 89 -269 250h76c8 -109 66 -187 191 -187c107 0 148 62 148 143c0 108 -65 125 -191 157c-100 27 -199 63 -199 194c0 114 83 184 212 184c139 0 225 -83 234 -219h-76c-10 99 -57 156 -158 156c-86 0 -136 -42 -136 -118c0 -95 68 -115 161 -138
c127 -33 229 -69 229 -214c0 -115 -73 -208 -222 -208z" />
    <glyph glyph-name="uni0404" unicode="&#x404;" vert-adv-y="1200" 
d="M305 -13c-150 0 -233 143 -233 372c0 224 87 369 233 369c129 0 202 -92 223 -214l-77 -1c-18 85 -58 151 -146 151c-109 0 -153 -124 -158 -275h209v-64h-208c5 -156 46 -274 157 -274c102 0 138 88 149 176h76c-18 -142 -92 -240 -225 -240z" />
    <glyph glyph-name="uni042D" unicode="&#x42d;" vert-adv-y="1200" 
d="M296 -13c-134 0 -208 98 -226 240h76c11 -88 47 -176 149 -176c111 0 152 118 157 274h-208v64h209c-5 151 -49 275 -158 275c-88 0 -128 -66 -146 -151l-77 1c21 122 94 214 223 214c147 0 233 -130 233 -369c0 -241 -82 -372 -232 -372z" />
    <glyph glyph-name="uni0406" unicode="&#x406;" vert-adv-y="1200" 
d="M88 0v64h175v587h-175v64h424v-64h-176v-587h176v-64h-424z" />
    <glyph glyph-name="uni0407" unicode="&#x407;" vert-adv-y="1200" 
d="M88 0v64h175v587h-175v64h424v-64h-176v-587h176v-64h-424zM184 817v84h84v-84h-84zM333 817v84h84v-84h-84z" />
    <glyph glyph-name="uni0408" unicode="&#x408;" vert-adv-y="1200" 
d="M269 -13c-158 0 -221 106 -221 220v23h73v-23c0 -91 41 -156 148 -156c108 0 151 65 151 156v508h73v-508c0 -114 -63 -220 -224 -220z" />
    <glyph glyph-name="uni040B" unicode="&#x40b;" vert-adv-y="1200" 
d="M13 651v64h358v-64h-143v-202h2c31 23 81 43 134 43c91 0 172 -58 172 -187v-305h-73v295c0 92 -49 133 -116 133c-44 0 -87 -20 -119 -50v-378h-72v651h-143z" />
    <glyph glyph-name="uni042E" unicode="&#x42e;" vert-adv-y="1200" 
d="M391 -13c-123 0 -175 117 -179 341h-92v-328h-73v715h73v-323h92c5 220 56 336 180 336c130 0 175 -129 175 -370c0 -239 -45 -371 -176 -371zM286 358c0 -200 28 -307 105 -307c80 0 102 115 102 306c0 199 -23 307 -101 307s-106 -105 -106 -306z" />
    <glyph glyph-name="uni042F" unicode="&#x42f;" vert-adv-y="1200" 
d="M55 6c34 28 -22 301 149 334v2c-79 21 -130 85 -130 174c0 130 68 199 210 199h224v-715h-73v306h-153c-177 0 -120 -257 -146 -306h-81v6zM147 513c0 -96 53 -143 153 -143h135v281h-145c-99 0 -143 -47 -143 -138z" />
    <glyph glyph-name="uni0402" unicode="&#x402;" vert-adv-y="1200" 
d="M13 651v64h358v-64h-143v-202h2c31 23 81 43 134 43c91 0 172 -58 172 -187v-374c0 -81 -46 -113 -106 -113c-24 0 -43 2 -58 6v63c15 -4 33 -6 46 -6c26 0 45 15 45 61v353c0 92 -49 133 -116 133c-44 0 -87 -20 -119 -50v-378h-72v651h-143z" />
    <glyph glyph-name="uni0496" unicode="&#x496;" vert-adv-y="1200" 
d="M5 0l150 352l-137 363h82l109 -334h55v334h73l1 -334h57l107 334h81l-137 -363l122 -288h29v-194h-68v130h-25l-111 316h-55l-1 -316h-73v316h-56l-112 -316h-91z" />
    <glyph glyph-name="uni049A" unicode="&#x49a;" vert-adv-y="1200" 
d="M501 0l-241 316h-64v-316h-72v715h72v-334h65l241 334h81l-266 -360l227 -291h52v-194h-68v130h-27z" />
    <glyph glyph-name="uni04A2" unicode="&#x4a2;" vert-adv-y="1200" 
d="M81 0v715h73v-309h292v309h73v-651h35v-194h-68v130h-40v342h-292v-342h-73z" />
    <glyph glyph-name="uni04AE" unicode="&#x4ae;" vert-adv-y="1200" 
d="M264 0v293l-240 422h79l196 -365h2l197 365h78l-240 -422v-293h-72z" />
    <glyph glyph-name="uni04B0" unicode="&#x4b0;" vert-adv-y="1200" 
d="M97 198v57h167v38l-240 422h79l196 -365h2l197 365h78l-240 -422v-38h167v-57h-167v-198h-72v198h-167z" />
    <glyph glyph-name="uni04B2" unicode="&#x4b2;" vert-adv-y="1200" 
d="M36 0l222 367l-211 348h84l169 -296h1l172 296h81l-212 -349l184 -302h47v-194h-68v130h-25l-183 313h-1l-179 -313h-81z" />
    <glyph glyph-name="uni04B6" unicode="&#x4b6;" vert-adv-y="1200" 
d="M423 0v273h-2c-35 -29 -94 -50 -157 -50c-107 0 -200 60 -200 219v273h73v-273c0 -108 60 -155 143 -155c61 0 111 23 143 57v371h73v-651h38v-194h-68v130h-43z" />
    <glyph glyph-name="uni04BA" unicode="&#x4ba;" vert-adv-y="1200" 
d="M177 715v-273h2c35 29 94 50 157 50c107 0 200 -60 200 -219v-273h-73v273c0 108 -60 155 -143 155c-61 0 -110 -23 -143 -57v-371h-73v715h73z" />
    <glyph glyph-name="uni04D8" unicode="&#x4d8;" vert-adv-y="1200" 
d="M294 -14c-136 0 -227 125 -227 345c0 14 0 31 2 45l388 1c-5 208 -72 287 -158 287c-66 0 -123 -40 -141 -158h-78c23 162 122 222 219 222c139 0 233 -133 233 -372s-95 -370 -238 -370zM143 312c0 -168 50 -261 152 -261c97 0 153 87 161 261h-313z" />
    <glyph glyph-name="uni04E2" unicode="&#x4e2;" vert-adv-y="1200" 
d="M519 0h-72v612h-1l-276 -612h-89v715h72v-612h2l275 612h89v-715zM175 822v57h249v-57h-249z" />
    <glyph glyph-name="uni04E8" unicode="&#x4e8;" vert-adv-y="1200" 
d="M301 -13c-152 0 -245 137 -245 371s93 370 245 370c151 0 243 -136 243 -370s-92 -371 -243 -371zM133 326c5 -170 58 -275 168 -275c108 0 161 104 166 275h-334zM133 390h334c-5 171 -58 274 -166 274c-110 0 -163 -104 -168 -274z" />
    <glyph glyph-name="uni04EE" unicode="&#x4ee;" vert-adv-y="1200" 
d="M469 715h76l-284 -715h-76l75 188l-205 527h78l165 -423h3zM182 822v57h249v-57h-249z" />
    <glyph glyph-name="uni0410.fina" vert-adv-y="1200" 
d="M-10 -177v64h673v941h-673v64h740v-1069h-740zM38 0l221 715h81l222 -715h-78l-57 198h-257l-56 -198h-76zM192 263h214l-105 383h-4z" />
    <glyph glyph-name="uni0411.fina" vert-adv-y="1200" 
d="M-10 -177v64h673v941h-673v64h740v-1069h-740zM88 0v715h404v-64h-332v-213h162c138 0 222 -66 222 -214c0 -150 -88 -224 -231 -224h-225zM160 64h155c106 0 152 62 152 160c0 92 -47 150 -141 150h-166v-310z" />
    <glyph glyph-name="uni0412.fina" vert-adv-y="1200" 
d="M-10 -177v64h673v941h-673v64h740v-1069h-740zM88 0v715h244c117 0 188 -68 188 -180c0 -84 -41 -129 -94 -151v-2c67 -16 118 -77 118 -177c0 -135 -80 -205 -198 -205h-258zM160 64h181c89 0 127 57 127 141s-45 139 -114 139h-194v-280zM160 408h176
c74 0 108 49 108 120c0 74 -38 123 -109 123h-175v-243z" />
    <glyph glyph-name="uni0413.fina" vert-adv-y="1200" 
d="M-10 -177v64h673v941h-673v64h740v-1069h-740zM167 0v715h380v-64h-307v-651h-73z" />
    <glyph glyph-name="uni0403.fina" vert-adv-y="1200" 
d="M-10 -177v64h673v941h-268l-20 -30h-54l14 30h-345v64h375l18 38h78l-25 -38h294v-1069h-740zM167 0v715h380v-64h-307v-651h-73z" />
    <glyph glyph-name="uni0490.fina" vert-adv-y="1200" 
d="M-10 -177v64h673v941h-673v64h740v-1069h-740zM147 0v715h312v99h68v-163h-307v-651h-73z" />
    <glyph glyph-name="uni0492.fina" vert-adv-y="1200" 
d="M-10 -177v64h673v941h-673v64h740v-1069h-740zM27 321v57h140v337h380v-64h-307v-273h200v-57h-200v-321h-73v321h-140z" />
    <glyph glyph-name="uni0414.fina" vert-adv-y="1200" 
d="M-10 -177v64h28v177h45c53 0 71 54 77 180l21 471h346v-651h77v-177h79v941h-673v64h740v-1069h-740zM85 -113h431v113h-431v-113zM171 64h264v588h-202l-21 -449c-3 -70 -18 -110 -41 -137v-2z" />
    <glyph glyph-name="uni0415.fina" vert-adv-y="1200" 
d="M-10 -177v64h673v941h-673v64h740v-1069h-740zM98 0v715h433v-64h-360v-246h321v-64h-321v-277h370v-64h-443z" />
    <glyph glyph-name="uni0400.fina" vert-adv-y="1200" 
d="M-10 -177v64h673v941h-333l12 -30h-54l-18 30h-280v64h241l-23 38h79l16 -38h427v-1069h-740zM98 0v715h433v-64h-360v-246h321v-64h-321v-277h370v-64h-443z" />
    <glyph glyph-name="uni0401.fina" vert-adv-y="1200" 
d="M-10 -177v64h673v941h-228v-11h-84v11h-65v-11h-84v11h-212v64h212v9h84v-9h65v9h84v-9h295v-1069h-740zM98 0v715h433v-64h-360v-246h321v-64h-321v-277h370v-64h-443z" />
    <glyph glyph-name="uni0416.fina" vert-adv-y="1200" 
d="M-10 -177v64h673v941h-673v64h740v-1069h-740zM5 0l150 352l-137 363h82l109 -334h55v334h73l1 -334h57l107 334h81l-137 -363l149 -352h-91l-111 316h-55l-1 -316h-73v316h-56l-112 -316h-91z" />
    <glyph glyph-name="uni0417.fina" vert-adv-y="1200" 
d="M-10 -177v64h673v941h-673v64h740v-1069h-740zM57 194h74c0 -95 80 -144 165 -144c96 0 160 58 160 141c0 75 -54 137 -155 137h-77v64h70c94 0 142 59 142 133c0 84 -66 136 -147 136c-76 0 -150 -45 -150 -137h-74c0 134 113 201 225 201c110 0 220 -64 220 -194
c0 -75 -38 -138 -114 -169v-2c81 -25 134 -78 134 -170c0 -131 -105 -204 -236 -204c-126 0 -237 70 -237 208z" />
    <glyph glyph-name="uni0418.fina" vert-adv-y="1200" 
d="M-10 -177v64h673v941h-673v64h740v-1069h-740zM81 0v715h72v-612h2l275 612h89v-715h-72v612h-1l-276 -612h-89z" />
    <glyph glyph-name="uni0419.fina" vert-adv-y="1200" 
d="M-10 -177v64h673v941h-275c-21 -23 -52 -35 -89 -35s-68 12 -90 35h-219v64h188c-2 9 -3 18 -3 28h50c1 -10 3 -20 5 -28h137c3 8 4 18 5 28h51c0 -10 -2 -19 -3 -28h310v-1069h-740zM81 0v715h72v-612h2l275 612h89v-715h-72v612h-1l-276 -612h-89z" />
    <glyph glyph-name="uni040D.fina" vert-adv-y="1200" 
d="M-10 -177v64h673v941h-352l12 -30h-54l-18 30h-261v64h222l-23 38h79l16 -38h446v-1069h-740zM81 0v715h72v-612h2l275 612h89v-715h-72v612h-1l-276 -612h-89z" />
    <glyph glyph-name="uni041A.fina" vert-adv-y="1200" 
d="M-10 -177v64h673v941h-673v64h740v-1069h-740zM124 0v715h72v-334h65l241 334h81l-266 -360l277 -355h-93l-241 316h-64v-316h-72z" />
    <glyph glyph-name="uni040C.fina" vert-adv-y="1200" 
d="M-10 -177v64h673v941h-281l-20 -30h-54l14 30h-332v64h362l18 38h78l-25 -38h307v-1069h-740zM124 0v715h72v-334h65l241 334h81l-266 -360l277 -355h-93l-241 316h-64v-316h-72z" />
    <glyph glyph-name="uni041B.fina" vert-adv-y="1200" 
d="M-10 -177v64h673v941h-673v64h740v-1069h-740zM0 -3v63c13 -5 33 -10 57 -10c53 0 82 24 85 111l19 554h349v-715h-72v651h-205l-19 -487c-6 -134 -56 -179 -148 -179c-27 0 -51 4 -66 12z" />
    <glyph glyph-name="uni041C.fina" vert-adv-y="1200" 
d="M-10 -177v64h673v941h-673v64h740v-1069h-740zM67 0v715h91l141 -474h2l141 474h91v-715h-73v603h-1l-126 -437h-67l-125 437h-1v-603h-73z" />
    <glyph glyph-name="uni041D.fina" vert-adv-y="1200" 
d="M-10 -177v64h673v941h-673v64h740v-1069h-740zM81 0v715h73v-309h292v309h73v-715h-73v342h-292v-342h-73z" />
    <glyph glyph-name="uni041E.fina" vert-adv-y="1200" 
d="M-10 -177v64h673v941h-673v64h740v-1069h-740zM56 358c0 234 93 370 245 370c151 0 243 -136 243 -370s-92 -371 -243 -371c-152 0 -245 137 -245 371zM132 358c0 -189 52 -307 169 -307c115 0 167 117 167 307s-52 306 -167 306c-117 0 -169 -117 -169 -306z" />
    <glyph glyph-name="uni041F.fina" vert-adv-y="1200" 
d="M-10 -177v64h673v941h-673v64h740v-1069h-740zM90 0v715h420v-715h-72v651h-276v-651h-72z" />
    <glyph glyph-name="uni0420.fina" vert-adv-y="1200" 
d="M-10 -177v64h673v941h-673v64h740v-1069h-740zM98 0v715h243c117 0 204 -56 204 -206s-88 -207 -204 -207h-171v-302h-72zM170 366h173c81 0 126 45 126 143s-45 142 -126 142h-173v-285z" />
    <glyph glyph-name="uni0421.fina" vert-adv-y="1200" 
d="M-10 -177v64h673v941h-673v64h740v-1069h-740zM58 358c0 213 82 370 239 370c131 0 206 -104 221 -241h-76c-14 97 -53 177 -147 177c-123 0 -162 -148 -162 -307c0 -165 43 -306 164 -306c107 0 139 106 146 203h76c-12 -156 -87 -267 -222 -267
c-157 0 -239 154 -239 371z" />
    <glyph glyph-name="uni0422.fina" vert-adv-y="1200" 
d="M-10 -177v64h673v941h-673v64h740v-1069h-740zM48 651v64h504v-64h-216v-651h-72v651h-216z" />
    <glyph glyph-name="uni0423.fina" vert-adv-y="1200" 
d="M-10 -177v64h673v941h-673v64h740v-1069h-740zM55 715h78l165 -423h3l168 423h76l-284 -715h-76l75 188z" />
    <glyph glyph-name="uni040E.fina" vert-adv-y="1200" 
d="M-10 -177v64h673v941h-268c-21 -23 -52 -35 -89 -35s-68 12 -90 35h-226v64h195c-2 9 -3 18 -3 28h50c1 -10 3 -20 5 -28h137c3 8 4 18 5 28h51c0 -10 -2 -19 -3 -28h303v-1069h-740zM55 715h78l165 -423h3l168 423h76l-284 -715h-76l75 188z" />
    <glyph glyph-name="uni0424.fina" vert-adv-y="1200" 
d="M-10 -177v64h673v941h-673v64h740v-1069h-740zM33 353c0 155 86 248 230 261v101h73v-101c144 -13 231 -106 231 -261s-87 -247 -231 -259v-94h-73v94c-144 13 -230 105 -230 259zM109 353c0 -118 57 -188 154 -201v404c-97 -14 -154 -84 -154 -203zM336 151
c98 14 155 84 155 202c0 120 -57 190 -155 204v-406z" />
    <glyph glyph-name="uni0425.fina" vert-adv-y="1200" 
d="M-10 -177v64h673v941h-673v64h740v-1069h-740zM36 0l222 367l-211 348h84l169 -296h1l172 296h81l-212 -349l223 -366h-85l-183 313h-1l-179 -313h-81z" />
    <glyph glyph-name="uni0427.fina" vert-adv-y="1200" 
d="M-10 -177v64h673v941h-673v64h740v-1069h-740zM64 442v273h73v-273c0 -108 60 -155 143 -155c61 0 111 23 143 57v371h73v-715h-73v273h-2c-35 -29 -94 -50 -157 -50c-107 0 -200 60 -200 219z" />
    <glyph glyph-name="uni0426.fina" vert-adv-y="1200" 
d="M-10 -177v64h526v113h-426v715h72v-651h273v651h72v-651h77v-177h79v941h-673v64h740v-1069h-740z" />
    <glyph glyph-name="uni0428.fina" vert-adv-y="1200" 
d="M-10 -177v64h673v941h-673v64h740v-1069h-740zM53 -1v715h73v-650h138v650h72v-650h138v650h73v-715h-494z" />
    <glyph glyph-name="uni0429.fina" vert-adv-y="1200" 
d="M-10 -177v64h526v113h-463v715h73v-651h121v651h73v-651h115v651h72v-651h77v-177h79v941h-673v64h740v-1069h-740z" />
    <glyph glyph-name="uni040F.fina" vert-adv-y="1200" 
d="M-10 -177v64h276v113h-176v715h72v-651h276v651h72v-715h-176v-113h329v941h-673v64h740v-1069h-740z" />
    <glyph glyph-name="uni042C.fina" vert-adv-y="1200" 
d="M-10 -177v64h673v941h-673v64h740v-1069h-740zM88 0v715h72v-277h162c138 0 222 -66 222 -214c0 -150 -88 -224 -231 -224h-225zM160 64h155c106 0 152 62 152 160c0 92 -47 150 -141 150h-166v-310z" />
    <glyph glyph-name="uni042B.fina" vert-adv-y="1200" 
d="M-10 -177v64h673v941h-673v64h740v-1069h-740zM48 0v715h73v-277h93c117 0 189 -80 189 -221c0 -145 -74 -217 -189 -217h-166zM121 64h86c75 0 122 50 122 155c0 92 -43 155 -114 155h-94v-310zM479 0v715h73v-715h-73z" />
    <glyph glyph-name="uni042A.fina" vert-adv-y="1200" 
d="M-10 -177v64h673v941h-673v64h740v-1069h-740zM14 651v64h182v-277h165c134 0 216 -75 216 -216c0 -137 -85 -222 -224 -222h-230v651h-109zM196 64h162c90 0 144 61 144 158c0 94 -50 152 -136 152h-170v-310z" />
    <glyph glyph-name="uni0409.fina" vert-adv-y="1200" 
d="M-10 -177v64h673v941h-673v64h740v-1069h-740zM0 -3v63c10 -5 28 -10 45 -10c35 0 55 27 57 111l19 554h232v-277h57c111 0 167 -78 167 -216c0 -137 -59 -222 -174 -222h-122v651h-87l-20 -505c-6 -122 -48 -161 -117 -161c-20 0 -46 4 -57 12zM353 64h50
c66 0 99 61 99 158c0 92 -30 152 -91 152h-58v-310z" />
    <glyph glyph-name="uni040A.fina" vert-adv-y="1200" 
d="M-10 -177v64h673v941h-673v64h740v-1069h-740zM47 0v715h73v-295h161v295h72v-295h57c111 0 167 -69 167 -207c0 -137 -59 -213 -174 -213h-122v356h-161v-356h-73zM353 64h50c66 0 99 53 99 149c0 92 -30 143 -91 143h-58v-292z" />
    <glyph glyph-name="uni0405.fina" vert-adv-y="1200" 
d="M-10 -177v64h673v941h-673v64h740v-1069h-740zM53 237h76c8 -109 66 -187 191 -187c107 0 148 62 148 143c0 108 -65 125 -191 157c-100 27 -199 63 -199 194c0 114 83 184 212 184c139 0 225 -83 234 -219h-76c-10 99 -57 156 -158 156c-86 0 -136 -42 -136 -118
c0 -95 68 -115 161 -138c127 -33 229 -69 229 -214c0 -115 -73 -208 -222 -208c-151 0 -261 89 -269 250z" />
    <glyph glyph-name="uni0404.fina" vert-adv-y="1200" 
d="M-10 -177v64h673v941h-673v64h740v-1069h-740zM72 359c0 224 87 369 233 369c129 0 202 -92 223 -214l-77 -1c-18 85 -58 151 -146 151c-109 0 -153 -124 -158 -275h209v-64h-208c5 -156 46 -274 157 -274c102 0 138 88 149 176h76c-18 -142 -92 -240 -225 -240
c-150 0 -233 143 -233 372z" />
    <glyph glyph-name="uni042D.fina" vert-adv-y="1200" 
d="M-10 -177v64h673v941h-673v64h740v-1069h-740zM70 227h76c11 -88 47 -176 149 -176c111 0 152 118 157 274h-208v64h209c-5 151 -49 275 -158 275c-88 0 -128 -66 -146 -151l-77 1c21 122 94 214 223 214c147 0 233 -130 233 -369c0 -241 -82 -372 -232 -372
c-134 0 -208 98 -226 240z" />
    <glyph glyph-name="uni0406.fina" vert-adv-y="1200" 
d="M-10 -177v64h673v941h-673v64h740v-1069h-740zM88 0v64h175v587h-175v64h424v-64h-176v-587h176v-64h-424z" />
    <glyph glyph-name="uni0407.fina" vert-adv-y="1200" 
d="M-10 -177v64h673v941h-246v-11h-84v11h-65v-11h-84v11h-194v64h194v9h84v-9h65v9h84v-9h313v-1069h-740zM88 0v64h175v587h-175v64h424v-64h-176v-587h176v-64h-424z" />
    <glyph glyph-name="uni0408.fina" vert-adv-y="1200" 
d="M-10 -177v64h673v941h-673v64h740v-1069h-740zM48 207v23h73v-23c0 -91 41 -156 148 -156c108 0 151 65 151 156v508h73v-508c0 -114 -63 -220 -224 -220c-158 0 -221 106 -221 220z" />
    <glyph glyph-name="uni040B.fina" vert-adv-y="1200" 
d="M-10 -177v64h673v941h-673v64h740v-1069h-740zM13 651v64h358v-64h-143v-202h2c31 23 81 43 134 43c91 0 172 -58 172 -187v-305h-73v295c0 92 -49 133 -116 133c-44 0 -87 -20 -119 -50v-378h-72v651h-143z" />
    <glyph glyph-name="uni042E.fina" vert-adv-y="1200" 
d="M-10 -177v64h673v941h-673v64h740v-1069h-740zM47 0v715h73v-323h92c5 220 56 336 180 336c130 0 175 -129 175 -370c0 -239 -45 -371 -176 -371c-123 0 -175 117 -179 341h-92v-328h-73zM286 358c0 -200 28 -307 105 -307c80 0 102 115 102 306c0 199 -23 307 -101 307
s-106 -105 -106 -306z" />
    <glyph glyph-name="uni042F.fina" vert-adv-y="1200" 
d="M-10 -177v64h673v941h-673v64h740v-1069h-740zM55 0v6c34 28 -22 301 149 334v2c-79 21 -130 85 -130 174c0 130 68 199 210 199h224v-715h-73v306h-153c-177 0 -120 -257 -146 -306h-81zM147 513c0 -96 53 -143 153 -143h135v281h-145c-99 0 -143 -47 -143 -138z" />
    <glyph glyph-name="uni0402.fina" vert-adv-y="1200" 
d="M-10 -177v64h452c13 8 21 25 21 55v353c0 92 -49 133 -116 133c-44 0 -87 -20 -119 -50v-378h-72v651h-143v64h358v-64h-143v-202h2c31 23 81 43 134 43c91 0 172 -58 172 -187v-374c0 -17 -2 -31 -6 -44h133v941h-673v64h740v-1069h-262c-12 -3 -25 -5 -38 -5
c-22 0 -40 2 -54 5h-386z" />
    <glyph glyph-name="uni0496.fina" vert-adv-y="1200" 
d="M-10 -177v64h539v113h-25l-111 316h-55l-1 -316h-73v316h-56l-112 -316h-91l150 352l-137 363h82l109 -334h55v334h73l1 -334h57l107 334h81l-137 -363l122 -288h29v-177h66v941h-673v64h740v-1069h-740z" />
    <glyph glyph-name="uni049A.fina" vert-adv-y="1200" 
d="M-10 -177v64h538v113h-27l-241 316h-64v-316h-72v715h72v-334h65l241 334h81l-266 -360l227 -291h52v-177h67v941h-673v64h740v-1069h-740z" />
    <glyph glyph-name="uni04A2.fina" vert-adv-y="1200" 
d="M81 0v715h73v-309h292v309h73v-651h35v-177h109v941h-673v64h740v-1069h-740v64h496v113h-40v342h-292v-342h-73z" />
    <glyph glyph-name="uni04AE.fina" vert-adv-y="1200" 
d="M-10 -177v64h673v941h-673v64h740v-1069h-740zM24 715h79l196 -365h2l197 365h78l-240 -422v-293h-72v293z" />
    <glyph glyph-name="uni04B0.fina" vert-adv-y="1200" 
d="M-10 -177v64h673v941h-673v64h740v-1069h-740zM24 715h79l196 -365h2l197 365h78l-240 -422v-38h167v-57h-167v-198h-72v198h-167v57h167v38z" />
    <glyph glyph-name="uni04B2.fina" vert-adv-y="1200" 
d="M-10 -177v64h515v113h-25l-183 313h-1l-179 -313h-81l222 367l-211 348h84l169 -296h1l172 296h81l-212 -349l184 -302h47v-177h90v941h-673v64h740v-1069h-740z" />
    <glyph glyph-name="uni04B6.fina" vert-adv-y="1200" 
d="M-10 -177v64h476v113h-43v273h-2c-35 -29 -94 -50 -157 -50c-107 0 -200 60 -200 219v273h73v-273c0 -108 60 -155 143 -155c61 0 111 23 143 57v371h73v-651h38v-177h129v941h-673v64h740v-1069h-740z" />
    <glyph glyph-name="uni04BA.fina" vert-adv-y="1200" 
d="M-10 -177v64h673v941h-673v64h740v-1069h-740zM104 0v715h73v-273h2c35 29 94 50 157 50c107 0 200 -60 200 -219v-273h-73v273c0 108 -60 155 -143 155c-61 0 -110 -23 -143 -57v-371h-73z" />
    <glyph glyph-name="uni04D8.fina" vert-adv-y="1200" 
d="M-10 -177v64h673v941h-673v64h740v-1069h-740zM67 331c0 14 0 31 2 45l388 1c-5 208 -72 287 -158 287c-66 0 -123 -40 -141 -158h-78c23 162 122 222 219 222c139 0 233 -133 233 -372s-95 -370 -238 -370c-136 0 -227 125 -227 345zM143 312c0 -168 50 -261 152 -261
c97 0 153 87 161 261h-313z" />
    <glyph glyph-name="uni04E2.fina" vert-adv-y="1200" 
d="M-10 -177v64h673v941h-238v-6h-249v6h-186v64h740v-1069h-740zM88 0v64h175v587h-175v64h424v-64h-176v-587h176v-64h-424z" />
    <glyph glyph-name="uni04E8.fina" vert-adv-y="1200" 
d="M-10 -177v64h673v941h-673v64h740v-1069h-740zM56 358c0 234 93 370 245 370c151 0 243 -136 243 -370s-92 -371 -243 -371c-152 0 -245 137 -245 371zM133 326c5 -170 58 -275 168 -275c108 0 161 104 166 275h-334zM133 390h334c-5 171 -58 274 -166 274
c-110 0 -163 -104 -168 -274z" />
    <glyph glyph-name="uni04EE.fina" vert-adv-y="1200" 
d="M-10 -177v64h673v941h-238v-6h-249v6h-186v64h740v-1069h-740zM81 241v474h73v-474c0 -129 48 -190 146 -190c97 0 146 61 146 190v474h73v-474c0 -151 -64 -254 -219 -254s-219 102 -219 254z" />
    <glyph glyph-name="uni0410.init" vert-adv-y="1200" 
d="M-130 -177v1069h740v-64h-673v-941h673v-64h-740zM38 0l221 715h81l222 -715h-78l-57 198h-257l-56 -198h-76zM192 263h214l-105 383h-4z" />
    <glyph glyph-name="uni0411.init" vert-adv-y="1200" 
d="M-130 -177v1069h740v-64h-673v-941h673v-64h-740zM88 0v715h404v-64h-332v-213h162c138 0 222 -66 222 -214c0 -150 -88 -224 -231 -224h-225zM160 64h155c106 0 152 62 152 160c0 92 -47 150 -141 150h-166v-310z" />
    <glyph glyph-name="uni0412.init" vert-adv-y="1200" 
d="M-130 -177v1069h740v-64h-673v-941h673v-64h-740zM88 0v715h244c117 0 188 -68 188 -180c0 -84 -41 -129 -94 -151v-2c67 -16 118 -77 118 -177c0 -135 -80 -205 -198 -205h-258zM160 64h181c89 0 127 57 127 141s-45 139 -114 139h-194v-280zM160 408h176
c74 0 108 49 108 120c0 74 -38 123 -109 123h-175v-243z" />
    <glyph glyph-name="uni0413.init" vert-adv-y="1200" 
d="M-130 -177v1069h740v-64h-673v-941h673v-64h-740zM167 0v715h380v-64h-307v-651h-73z" />
    <glyph glyph-name="uni0403.init" vert-adv-y="1200" 
d="M-130 -177v1069h495l18 38h78l-25 -38h174v-64h-215l-20 -30h-54l14 30h-398v-941h673v-64h-740zM167 0v715h380v-64h-307v-651h-73z" />
    <glyph glyph-name="uni0490.init" vert-adv-y="1200" 
d="M-130 -177v1069h740v-64h-673v-941h673v-64h-740zM147 0v715h312v99h68v-163h-307v-651h-73z" />
    <glyph glyph-name="uni0492.init" vert-adv-y="1200" 
d="M-130 -177v1069h740v-64h-673v-941h673v-64h-740zM27 321v57h140v337h380v-64h-307v-273h200v-57h-200v-321h-73v321h-140z" />
    <glyph glyph-name="uni0414.init" vert-adv-y="1200" 
d="M-130 -177v1069h740v-64h-673v-941h81v177h45c53 0 71 54 77 180l21 471h346v-651h77v-177h26v-64h-740zM85 -113h431v113h-431v-113zM171 64h264v588h-202l-21 -449c-3 -70 -18 -110 -41 -137v-2z" />
    <glyph glyph-name="uni0415.init" vert-adv-y="1200" 
d="M-130 -177v1069h740v-64h-673v-941h673v-64h-740zM98 0v715h433v-64h-360v-246h321v-64h-321v-277h370v-64h-443z" />
    <glyph glyph-name="uni0400.init" vert-adv-y="1200" 
d="M-130 -177v1069h361l-23 38h79l16 -38h307v-64h-280l12 -30h-54l-18 30h-333v-941h673v-64h-740zM98 0v715h433v-64h-360v-246h321v-64h-321v-277h370v-64h-443z" />
    <glyph glyph-name="uni0401.init" vert-adv-y="1200" 
d="M-130 -177v1069h332v9h84v-9h65v9h84v-9h175v-64h-175v-11h-84v11h-65v-11h-84v11h-265v-941h673v-64h-740zM98 0v715h433v-64h-360v-246h321v-64h-321v-277h370v-64h-443z" />
    <glyph glyph-name="uni0416.init" vert-adv-y="1200" 
d="M-130 -177v1069h740v-64h-673v-941h673v-64h-740zM5 0l150 352l-137 363h82l109 -334h55v334h73l1 -334h57l107 334h81l-137 -363l149 -352h-91l-111 316h-55l-1 -316h-73v316h-56l-112 -316h-91z" />
    <glyph glyph-name="uni0417.init" vert-adv-y="1200" 
d="M-130 -177v1069h740v-64h-673v-941h673v-64h-740zM57 194h74c0 -95 80 -144 165 -144c96 0 160 58 160 141c0 75 -54 137 -155 137h-77v64h70c94 0 142 59 142 133c0 84 -66 136 -147 136c-76 0 -150 -45 -150 -137h-74c0 134 113 201 225 201c110 0 220 -64 220 -194
c0 -75 -38 -138 -114 -169v-2c81 -25 134 -78 134 -170c0 -131 -105 -204 -236 -204c-126 0 -237 70 -237 208z" />
    <glyph glyph-name="uni0418.init" vert-adv-y="1200" 
d="M-130 -177v1069h740v-64h-673v-941h673v-64h-740zM81 0v715h72v-612h2l275 612h89v-715h-72v612h-1l-276 -612h-89z" />
    <glyph glyph-name="uni0419.init" vert-adv-y="1200" 
d="M-130 -177v1069h308c-2 9 -3 18 -3 28h50c1 -10 3 -20 5 -28h137c3 8 4 18 5 28h51c0 -10 -2 -19 -3 -28h190v-64h-222c-21 -23 -52 -35 -89 -35s-68 12 -90 35h-272v-941h673v-64h-740zM81 0v715h72v-612h2l275 612h89v-715h-72v612h-1l-276 -612h-89z" />
    <glyph glyph-name="uni040D.init" vert-adv-y="1200" 
d="M-130 -177v1069h342l-23 38h79l16 -38h326v-64h-299l12 -30h-54l-18 30h-314v-941h673v-64h-740zM81 0v715h72v-612h2l275 612h89v-715h-72v612h-1l-276 -612h-89z" />
    <glyph glyph-name="uni041A.init" vert-adv-y="1200" 
d="M-130 -177v1069h740v-64h-673v-941h673v-64h-740zM124 0v715h72v-334h65l241 334h81l-266 -360l277 -355h-93l-241 316h-64v-316h-72z" />
    <glyph glyph-name="uni040C.init" vert-adv-y="1200" 
d="M-130 -177v1069h482l18 38h78l-25 -38h187v-64h-228l-20 -30h-54l14 30h-385v-941h673v-64h-740zM124 0v715h72v-334h65l241 334h81l-266 -360l277 -355h-93l-241 316h-64v-316h-72z" />
    <glyph glyph-name="uni041B.init" vert-adv-y="1200" 
d="M-130 -177v1069h740v-64h-673v-941h673v-64h-740zM0 -3v63c13 -5 33 -10 57 -10c53 0 82 24 85 111l19 554h349v-715h-72v651h-205l-19 -487c-6 -134 -56 -179 -148 -179c-27 0 -51 4 -66 12z" />
    <glyph glyph-name="uni041C.init" vert-adv-y="1200" 
d="M-130 -177v1069h740v-64h-673v-941h673v-64h-740zM67 0v715h91l141 -474h2l141 474h91v-715h-73v603h-1l-126 -437h-67l-125 437h-1v-603h-73z" />
    <glyph glyph-name="uni041D.init" vert-adv-y="1200" 
d="M-130 -177v1069h740v-64h-673v-941h673v-64h-740zM81 0v715h73v-309h292v309h73v-715h-73v342h-292v-342h-73z" />
    <glyph glyph-name="uni041E.init" vert-adv-y="1200" 
d="M-130 -177v1069h740v-64h-673v-941h673v-64h-740zM56 358c0 234 93 370 245 370c151 0 243 -136 243 -370s-92 -371 -243 -371c-152 0 -245 137 -245 371zM132 358c0 -189 52 -307 169 -307c115 0 167 117 167 307s-52 306 -167 306c-117 0 -169 -117 -169 -306z" />
    <glyph glyph-name="uni041F.init" vert-adv-y="1200" 
d="M-130 -177v1069h740v-64h-673v-941h673v-64h-740zM90 0v715h420v-715h-72v651h-276v-651h-72z" />
    <glyph glyph-name="uni0420.init" vert-adv-y="1200" 
d="M-130 -177v1069h740v-64h-673v-941h673v-64h-740zM98 0v715h243c117 0 204 -56 204 -206s-88 -207 -204 -207h-171v-302h-72zM170 366h173c81 0 126 45 126 143s-45 142 -126 142h-173v-285z" />
    <glyph glyph-name="uni0421.init" vert-adv-y="1200" 
d="M-130 -177v1069h740v-64h-673v-941h673v-64h-740zM72 358c0 213 82 370 239 370c131 0 206 -104 221 -241h-76c-14 97 -53 177 -147 177c-123 0 -162 -148 -162 -307c0 -165 43 -306 164 -306c107 0 139 106 146 203h76c-12 -156 -87 -267 -222 -267
c-157 0 -239 154 -239 371z" />
    <glyph glyph-name="uni0422.init" vert-adv-y="1200" 
d="M-130 -177v1069h740v-64h-673v-941h673v-64h-740zM48 651v64h504v-64h-216v-651h-72v651h-216z" />
    <glyph glyph-name="uni0423.init" vert-adv-y="1200" 
d="M-130 -177v1069h740v-64h-673v-941h673v-64h-740zM55 715h78l165 -423h3l168 423h76l-284 -715h-76l75 188z" />
    <glyph glyph-name="uni040E.init" vert-adv-y="1200" 
d="M-130 -177v1069h315c-2 9 -3 18 -3 28h50c1 -10 3 -20 5 -28h137c3 8 4 18 5 28h51c0 -10 -2 -19 -3 -28h183v-64h-215c-21 -23 -52 -35 -89 -35s-68 12 -90 35h-279v-941h673v-64h-740zM55 715h78l165 -423h3l168 423h76l-284 -715h-76l75 188z" />
    <glyph glyph-name="uni0424.init" vert-adv-y="1200" 
d="M-130 -177v1069h740v-64h-673v-941h673v-64h-740zM33 353c0 155 86 248 230 261v101h73v-101c144 -13 231 -106 231 -261s-87 -247 -231 -259v-94h-73v94c-144 13 -230 105 -230 259zM109 353c0 -118 57 -188 154 -201v404c-97 -14 -154 -84 -154 -203zM336 151
c98 14 155 84 155 202c0 120 -57 190 -155 204v-406z" />
    <glyph glyph-name="uni0425.init" vert-adv-y="1200" 
d="M-130 -177v1069h740v-64h-673v-941h673v-64h-740zM36 0l222 367l-211 348h84l169 -296h1l172 296h81l-212 -349l223 -366h-85l-183 313h-1l-179 -313h-81z" />
    <glyph glyph-name="uni0427.init" vert-adv-y="1200" 
d="M-130 -177v1069h740v-64h-673v-941h673v-64h-740zM64 442v273h73v-273c0 -108 60 -155 143 -155c61 0 111 23 143 57v371h73v-715h-73v273h-2c-35 -29 -94 -50 -157 -50c-107 0 -200 60 -200 219z" />
    <glyph glyph-name="uni0426.init" vert-adv-y="1200" 
d="M-130 -177v1069h740v-64h-673v-941h579v113h-426v715h72v-651h273v651h72v-651h77v-177h26v-64h-740z" />
    <glyph glyph-name="uni0428.init" vert-adv-y="1200" 
d="M-130 -177v1069h740v-64h-673v-941h673v-64h-740zM53 -1v715h73v-650h138v650h72v-650h138v650h73v-715h-494z" />
    <glyph glyph-name="uni0429.init" vert-adv-y="1200" 
d="M-130 -177v1069h740v-64h-673v-941h579v113h-463v715h73v-651h121v651h73v-651h115v651h72v-651h77v-177h26v-64h-740z" />
    <glyph glyph-name="uni040F.init" vert-adv-y="1200" 
d="M-130 -177v1069h740v-64h-673v-941h329v113h-176v715h72v-651h276v651h72v-715h-176v-113h276v-64h-740z" />
    <glyph glyph-name="uni042C.init" vert-adv-y="1200" 
d="M-130 -177v1069h740v-64h-673v-941h673v-64h-740zM88 0v715h72v-277h162c138 0 222 -66 222 -214c0 -150 -88 -224 -231 -224h-225zM160 64h155c106 0 152 62 152 160c0 92 -47 150 -141 150h-166v-310z" />
    <glyph glyph-name="uni042B.init" vert-adv-y="1200" 
d="M-130 -177v1069h740v-64h-673v-941h673v-64h-740zM48 0v715h73v-277h93c117 0 189 -80 189 -221c0 -145 -74 -217 -189 -217h-166zM121 64h86c75 0 122 50 122 155c0 92 -43 155 -114 155h-94v-310zM479 0v715h73v-715h-73z" />
    <glyph glyph-name="uni042A.init" vert-adv-y="1200" 
d="M-130 -177v1069h740v-64h-673v-941h673v-64h-740zM14 651v64h182v-277h165c134 0 216 -75 216 -216c0 -137 -85 -222 -224 -222h-230v651h-109zM196 64h162c90 0 144 61 144 158c0 94 -50 152 -136 152h-170v-310z" />
    <glyph glyph-name="uni0409.init" vert-adv-y="1200" 
d="M-130 -177v1069h740v-64h-673v-941h673v-64h-740zM0 -3v63c10 -5 28 -10 45 -10c35 0 55 27 57 111l19 554h232v-277h57c111 0 167 -78 167 -216c0 -137 -59 -222 -174 -222h-122v651h-87l-20 -505c-6 -122 -48 -161 -117 -161c-20 0 -46 4 -57 12zM353 64h50
c66 0 99 61 99 158c0 92 -30 152 -91 152h-58v-310z" />
    <glyph glyph-name="uni040A.init" vert-adv-y="1200" 
d="M-130 -177v1069h740v-64h-673v-941h673v-64h-740zM47 0v715h73v-295h161v295h72v-295h57c111 0 167 -69 167 -207c0 -137 -59 -213 -174 -213h-122v356h-161v-356h-73zM353 64h50c66 0 99 53 99 149c0 92 -30 143 -91 143h-58v-292z" />
    <glyph glyph-name="uni0405.init" vert-adv-y="1200" 
d="M-130 -177v1069h740v-64h-673v-941h673v-64h-740zM53 237h76c8 -109 66 -187 191 -187c107 0 148 62 148 143c0 108 -65 125 -191 157c-100 27 -199 63 -199 194c0 114 83 184 212 184c139 0 225 -83 234 -219h-76c-10 99 -57 156 -158 156c-86 0 -136 -42 -136 -118
c0 -95 68 -115 161 -138c127 -33 229 -69 229 -214c0 -115 -73 -208 -222 -208c-151 0 -261 89 -269 250z" />
    <glyph glyph-name="uni0404.init" vert-adv-y="1200" 
d="M-130 -177v1069h740v-64h-673v-941h673v-64h-740zM72 359c0 224 87 369 233 369c129 0 202 -92 223 -214l-77 -1c-18 85 -58 151 -146 151c-109 0 -153 -124 -158 -275h209v-64h-208c5 -156 46 -274 157 -274c102 0 138 88 149 176h76c-18 -142 -92 -240 -225 -240
c-150 0 -233 143 -233 372z" />
    <glyph glyph-name="uni042D.init" vert-adv-y="1200" 
d="M-130 -177v1069h740v-64h-673v-941h673v-64h-740zM70 227h76c11 -88 47 -176 149 -176c111 0 152 118 157 274h-208v64h209c-5 151 -49 275 -158 275c-88 0 -128 -66 -146 -151l-77 1c21 122 94 214 223 214c147 0 233 -130 233 -369c0 -241 -82 -372 -232 -372
c-134 0 -208 98 -226 240z" />
    <glyph glyph-name="uni0406.init" vert-adv-y="1200" 
d="M-130 -177v1069h740v-64h-673v-941h673v-64h-740zM88 0v64h175v587h-175v64h424v-64h-176v-587h176v-64h-424z" />
    <glyph glyph-name="uni0407.init" vert-adv-y="1200" 
d="M-130 -177v1069h314v9h84v-9h65v9h84v-9h193v-64h-193v-11h-84v11h-65v-11h-84v11h-247v-941h673v-64h-740zM88 0v64h175v587h-175v64h424v-64h-176v-587h176v-64h-424z" />
    <glyph glyph-name="uni0408.init" vert-adv-y="1200" 
d="M-130 -177v1069h740v-64h-673v-941h673v-64h-740zM48 207v23h73v-23c0 -91 41 -156 148 -156c108 0 151 65 151 156v508h73v-508c0 -114 -63 -220 -224 -220c-158 0 -221 106 -221 220z" />
    <glyph glyph-name="uni040B.init" vert-adv-y="1200" 
d="M-130 -177v1069h740v-64h-673v-941h673v-64h-740zM13 651v64h358v-64h-143v-202h2c31 23 81 43 134 43c91 0 172 -58 172 -187v-305h-73v295c0 92 -49 133 -116 133c-44 0 -87 -20 -119 -50v-378h-72v651h-143z" />
    <glyph glyph-name="uni042E.init" vert-adv-y="1200" 
d="M-130 -177v1069h740v-64h-673v-941h673v-64h-740zM47 0v715h73v-323h92c5 220 56 336 180 336c130 0 175 -129 175 -370c0 -239 -45 -371 -176 -371c-123 0 -175 117 -179 341h-92v-328h-73zM286 358c0 -200 28 -307 105 -307c80 0 102 115 102 306
c0 199 -23 307 -101 307s-106 -105 -106 -306z" />
    <glyph glyph-name="uni042F.init" vert-adv-y="1200" 
d="M-130 -177v1069h740v-64h-673v-941h673v-64h-740zM55 0v6c34 28 -22 301 149 334v2c-79 21 -130 85 -130 174c0 130 68 199 210 199h224v-715h-73v306h-153c-177 0 -120 -257 -146 -306h-81zM147 513c0 -96 53 -143 153 -143h135v281h-145c-99 0 -143 -47 -143 -138z" />
    <glyph glyph-name="uni0402.init" vert-adv-y="1200" 
d="M-130 -177v1069h740v-64h-673v-941h505c13 8 21 25 21 55v353c0 92 -49 133 -116 133c-44 0 -87 -20 -119 -50v-378h-72v651h-143v64h358v-64h-143v-202h2c31 23 81 43 134 43c91 0 172 -58 172 -187v-374c0 -17 -2 -31 -6 -44h80v-64h-142c-12 -3 -25 -5 -38 -5
c-22 0 -40 2 -54 5h-506z" />
    <glyph glyph-name="uni0496.init" vert-adv-y="1200" 
d="M-130 -177v1069h740v-64h-673v-941h592v113h-25l-111 316h-55l-1 -316h-73v316h-56l-112 -316h-91l150 352l-137 363h82l109 -334h55v334h73l1 -334h57l107 334h81l-137 -363l122 -288h29v-177h13v-64h-740z" />
    <glyph glyph-name="uni049A.init" vert-adv-y="1200" 
d="M-130 -177v1069h740v-64h-673v-941h591v113h-27l-241 316h-64v-316h-72v715h72v-334h65l241 334h81l-266 -360l227 -291h52v-177h14v-64h-740z" />
    <glyph glyph-name="uni04A2.init" vert-adv-y="1200" 
d="M81 0v715h73v-309h292v309h73v-651h35v-177h56v-64h-740v1069h740v-64h-673v-941h549v113h-40v342h-292v-342h-73z" />
    <glyph glyph-name="uni04AE.init" vert-adv-y="1200" 
d="M-130 -177v1069h740v-64h-673v-941h673v-64h-740zM24 715h79l196 -365h2l197 365h78l-240 -422v-293h-72v293z" />
    <glyph glyph-name="uni04B0.init" vert-adv-y="1200" 
d="M-130 -177v1069h740v-64h-673v-941h673v-64h-740zM24 715h79l196 -365h2l197 365h78l-240 -422v-38h167v-57h-167v-198h-72v198h-167v57h167v38z" />
    <glyph glyph-name="uni04B2.init" vert-adv-y="1200" 
d="M-130 -177v1069h740v-64h-673v-941h568v113h-25l-183 313h-1l-179 -313h-81l222 367l-211 348h84l169 -296h1l172 296h81l-212 -349l184 -302h47v-177h37v-64h-740z" />
    <glyph glyph-name="uni04B6.init" vert-adv-y="1200" 
d="M-130 -177v1069h740v-64h-673v-941h529v113h-43v273h-2c-35 -29 -94 -50 -157 -50c-107 0 -200 60 -200 219v273h73v-273c0 -108 60 -155 143 -155c61 0 111 23 143 57v371h73v-651h38v-177h76v-64h-740z" />
    <glyph glyph-name="uni04BA.init" vert-adv-y="1200" 
d="M-130 -177v1069h740v-64h-673v-941h673v-64h-740zM104 0v715h73v-273h2c35 29 94 50 157 50c107 0 200 -60 200 -219v-273h-73v273c0 108 -60 155 -143 155c-61 0 -110 -23 -143 -57v-371h-73z" />
    <glyph glyph-name="uni04D8.init" vert-adv-y="1200" 
d="M-130 -177v1069h740v-64h-673v-941h673v-64h-740zM67 331c0 14 0 31 2 45l388 1c-5 208 -72 287 -158 287c-66 0 -123 -40 -141 -158h-78c23 162 122 222 219 222c139 0 233 -133 233 -372s-95 -370 -238 -370c-136 0 -227 125 -227 345zM143 312
c0 -168 50 -261 152 -261c97 0 153 87 161 261h-313z" />
    <glyph glyph-name="uni04E2.init" vert-adv-y="1200" 
d="M-130 -177v1069h740v-64h-185v-6h-249v6h-239v-941h673v-64h-740zM88 0v64h175v587h-175v64h424v-64h-176v-587h176v-64h-424z" />
    <glyph glyph-name="uni04E8.init" vert-adv-y="1200" 
d="M-130 -177v1069h740v-64h-673v-941h673v-64h-740zM56 358c0 234 93 370 245 370c151 0 243 -136 243 -370s-92 -371 -243 -371c-152 0 -245 137 -245 371zM133 326c5 -170 58 -275 168 -275c108 0 161 104 166 275h-334zM133 390h334c-5 171 -58 274 -166 274
c-110 0 -163 -104 -168 -274z" />
    <glyph glyph-name="uni04EE.init" vert-adv-y="1200" 
d="M-130 -177v1069h740v-64h-185v-6h-249v6h-239v-941h673v-64h-740zM81 241v474h73v-474c0 -129 48 -190 146 -190c97 0 146 61 146 190v474h73v-474c0 -151 -64 -254 -219 -254s-219 102 -219 254z" />
    <glyph glyph-name="uni0410.medi" vert-adv-y="1200" 
d="M-10 828v64h620v-64h-620zM-10 -177v64h620v-64h-620zM38 0l221 715h81l222 -715h-78l-57 198h-257l-56 -198h-76zM192 263h214l-105 383h-4z" />
    <glyph glyph-name="uni0411.medi" vert-adv-y="1200" 
d="M-10 828v64h620v-64h-620zM-10 -177v64h620v-64h-620zM88 0v715h404v-64h-332v-213h162c138 0 222 -66 222 -214c0 -150 -88 -224 -231 -224h-225zM160 64h155c106 0 152 62 152 160c0 92 -47 150 -141 150h-166v-310z" />
    <glyph glyph-name="uni0412.medi" vert-adv-y="1200" 
d="M-10 828v64h620v-64h-620zM-10 -177v64h620v-64h-620zM88 0v715h244c117 0 188 -68 188 -180c0 -84 -41 -129 -94 -151v-2c67 -16 118 -77 118 -177c0 -135 -80 -205 -198 -205h-258zM160 64h181c89 0 127 57 127 141s-45 139 -114 139h-194v-280zM160 408h176
c74 0 108 49 108 120c0 74 -38 123 -109 123h-175v-243z" />
    <glyph glyph-name="uni0413.medi" vert-adv-y="1200" 
d="M-10 828v64h620v-64h-620zM-10 -177v64h620v-64h-620zM167 0v715h380v-64h-307v-651h-73z" />
    <glyph glyph-name="uni0403.medi" vert-adv-y="1200" 
d="M-10 828v64h375l18 38h78l-25 -38h174v-64h-215l-20 -30h-54l14 30h-345zM-10 -177v64h620v-64h-620zM167 0v715h380v-64h-307v-651h-73z" />
    <glyph glyph-name="uni0490.medi" vert-adv-y="1200" 
d="M-10 828v64h620v-64h-620zM-10 -177v64h620v-64h-620zM147 0v715h312v99h68v-163h-307v-651h-73z" />
    <glyph glyph-name="uni0492.medi" vert-adv-y="1200" 
d="M-10 828v64h620v-64h-620zM-10 -177v64h620v-64h-620zM27 321v57h140v337h380v-64h-307v-273h200v-57h-200v-321h-73v321h-140z" />
    <glyph glyph-name="uni0414.medi" vert-adv-y="1200" 
d="M-10 828v64h620v-64h-620zM-10 -177v64h28v177h45c53 0 71 54 77 180l21 471h346v-651h77v-177h26v-64h-620zM85 -113h431v113h-431v-113zM171 64h264v588h-202l-21 -449c-3 -70 -18 -110 -41 -137v-2z" />
    <glyph glyph-name="uni0415.medi" vert-adv-y="1200" 
d="M-10 828v64h620v-64h-620zM-10 -177v64h620v-64h-620zM98 0v715h433v-64h-360v-246h321v-64h-321v-277h370v-64h-443z" />
    <glyph glyph-name="uni0400.medi" vert-adv-y="1200" 
d="M-10 828v64h241l-23 38h79l16 -38h307v-64h-280l12 -30h-54l-18 30h-280zM-10 -177v64h620v-64h-620zM98 0v715h433v-64h-360v-246h321v-64h-321v-277h370v-64h-443z" />
    <glyph glyph-name="uni0401.medi" vert-adv-y="1200" 
d="M-10 828v64h212v9h84v-9h65v9h84v-9h175v-64h-175v-11h-84v11h-65v-11h-84v11h-212zM-10 -177v64h620v-64h-620zM98 0v715h433v-64h-360v-246h321v-64h-321v-277h370v-64h-443z" />
    <glyph glyph-name="uni0416.medi" vert-adv-y="1200" 
d="M-10 828v64h620v-64h-620zM-10 -177v64h620v-64h-620zM5 0l150 352l-137 363h82l109 -334h55v334h73l1 -334h57l107 334h81l-137 -363l149 -352h-91l-111 316h-55l-1 -316h-73v316h-56l-112 -316h-91z" />
    <glyph glyph-name="uni0417.medi" vert-adv-y="1200" 
d="M-10 828v64h620v-64h-620zM-10 -177v64h620v-64h-620zM57 194h74c0 -95 80 -144 165 -144c96 0 160 58 160 141c0 75 -54 137 -155 137h-77v64h70c94 0 142 59 142 133c0 84 -66 136 -147 136c-76 0 -150 -45 -150 -137h-74c0 134 113 201 225 201
c110 0 220 -64 220 -194c0 -75 -38 -138 -114 -169v-2c81 -25 134 -78 134 -170c0 -131 -105 -204 -236 -204c-126 0 -237 70 -237 208z" />
    <glyph glyph-name="uni0418.medi" vert-adv-y="1200" 
d="M-10 828v64h620v-64h-620zM-10 -177v64h620v-64h-620zM81 0v715h72v-612h2l275 612h89v-715h-72v612h-1l-276 -612h-89z" />
    <glyph glyph-name="uni0419.medi" vert-adv-y="1200" 
d="M-10 828v64h188c-2 9 -3 18 -3 28h50c1 -10 3 -20 5 -28h137c3 8 4 18 5 28h51c0 -10 -2 -19 -3 -28h190v-64h-222c-21 -23 -52 -35 -89 -35s-68 12 -90 35h-219zM-10 -177v64h620v-64h-620zM81 0v715h72v-612h2l275 612h89v-715h-72v612h-1l-276 -612h-89z" />
    <glyph glyph-name="uni040D.medi" vert-adv-y="1200" 
d="M-10 828v64h222l-23 38h79l16 -38h326v-64h-299l12 -30h-54l-18 30h-261zM-10 -177v64h620v-64h-620zM81 0v715h72v-612h2l275 612h89v-715h-72v612h-1l-276 -612h-89z" />
    <glyph glyph-name="uni041A.medi" vert-adv-y="1200" 
d="M-10 828v64h620v-64h-620zM-10 -177v64h620v-64h-620zM124 0v715h72v-334h65l241 334h81l-266 -360l277 -355h-93l-241 316h-64v-316h-72z" />
    <glyph glyph-name="uni040C.medi" vert-adv-y="1200" 
d="M-10 828v64h362l18 38h78l-25 -38h187v-64h-228l-20 -30h-54l14 30h-332zM-10 -177v64h620v-64h-620zM124 0v715h72v-334h65l241 334h81l-266 -360l277 -355h-93l-241 316h-64v-316h-72z" />
    <glyph glyph-name="uni041B.medi" vert-adv-y="1200" 
d="M-10 828v64h620v-64h-620zM-10 -177v64h620v-64h-620zM0 -3v63c13 -5 33 -10 57 -10c53 0 82 24 85 111l19 554h349v-715h-72v651h-205l-19 -487c-6 -134 -56 -179 -148 -179c-27 0 -51 4 -66 12z" />
    <glyph glyph-name="uni041C.medi" vert-adv-y="1200" 
d="M-10 828v64h620v-64h-620zM-10 -177v64h620v-64h-620zM67 0v715h91l141 -474h2l141 474h91v-715h-73v603h-1l-126 -437h-67l-125 437h-1v-603h-73z" />
    <glyph glyph-name="uni041D.medi" vert-adv-y="1200" 
d="M-10 828v64h620v-64h-620zM-10 -177v64h620v-64h-620zM81 0v715h73v-309h292v309h73v-715h-73v342h-292v-342h-73z" />
    <glyph glyph-name="uni041E.medi" vert-adv-y="1200" 
d="M-10 828v64h620v-64h-620zM-10 -177v64h620v-64h-620zM56 358c0 234 93 370 245 370c151 0 243 -136 243 -370s-92 -371 -243 -371c-152 0 -245 137 -245 371zM132 358c0 -189 52 -307 169 -307c115 0 167 117 167 307s-52 306 -167 306c-117 0 -169 -117 -169 -306z" />
    <glyph glyph-name="uni041F.medi" vert-adv-y="1200" 
d="M-10 828v64h620v-64h-620zM-10 -177v64h620v-64h-620zM90 0v715h420v-715h-72v651h-276v-651h-72z" />
    <glyph glyph-name="uni0420.medi" vert-adv-y="1200" 
d="M-10 828v64h620v-64h-620zM-10 -177v64h620v-64h-620zM98 0v715h243c117 0 204 -56 204 -206s-88 -207 -204 -207h-171v-302h-72zM170 366h173c81 0 126 45 126 143s-45 142 -126 142h-173v-285z" />
    <glyph glyph-name="uni0421.medi" vert-adv-y="1200" 
d="M-10 828v64h620v-64h-620zM-10 -177v64h620v-64h-620zM72 358c0 213 82 370 239 370c131 0 206 -104 221 -241h-76c-14 97 -53 177 -147 177c-123 0 -162 -148 -162 -307c0 -165 43 -306 164 -306c107 0 139 106 146 203h76c-12 -156 -87 -267 -222 -267
c-157 0 -239 154 -239 371z" />
    <glyph glyph-name="uni0422.medi" vert-adv-y="1200" 
d="M-10 828v64h620v-64h-620zM-10 -177v64h620v-64h-620zM48 651v64h504v-64h-216v-651h-72v651h-216z" />
    <glyph glyph-name="uni0423.medi" vert-adv-y="1200" 
d="M-10 828v64h620v-64h-620zM-10 -177v64h620v-64h-620zM55 715h78l165 -423h3l168 423h76l-284 -715h-76l75 188z" />
    <glyph glyph-name="uni040E.medi" vert-adv-y="1200" 
d="M-10 828v64h195c-2 9 -3 18 -3 28h50c1 -10 3 -20 5 -28h137c3 8 4 18 5 28h51c0 -10 -2 -19 -3 -28h183v-64h-215c-21 -23 -52 -35 -89 -35s-68 12 -90 35h-226zM-10 -177v64h620v-64h-620zM55 715h78l165 -423h3l168 423h76l-284 -715h-76l75 188z" />
    <glyph glyph-name="uni0424.medi" vert-adv-y="1200" 
d="M-10 828v64h620v-64h-620zM-10 -177v64h620v-64h-620zM33 353c0 155 86 248 230 261v101h73v-101c144 -13 231 -106 231 -261s-87 -247 -231 -259v-94h-73v94c-144 13 -230 105 -230 259zM109 353c0 -118 57 -188 154 -201v404c-97 -14 -154 -84 -154 -203zM336 151
c98 14 155 84 155 202c0 120 -57 190 -155 204v-406z" />
    <glyph glyph-name="uni0425.medi" vert-adv-y="1200" 
d="M-10 828v64h620v-64h-620zM-10 -177v64h620v-64h-620zM36 0l222 367l-211 348h84l169 -296h1l172 296h81l-212 -349l223 -366h-85l-183 313h-1l-179 -313h-81z" />
    <glyph glyph-name="uni0427.medi" vert-adv-y="1200" 
d="M-10 828v64h620v-64h-620zM-10 -177v64h620v-64h-620zM64 442v273h73v-273c0 -108 60 -155 143 -155c61 0 111 23 143 57v371h73v-715h-73v273h-2c-35 -29 -94 -50 -157 -50c-107 0 -200 60 -200 219z" />
    <glyph glyph-name="uni0426.medi" vert-adv-y="1200" 
d="M-10 828v64h620v-64h-620zM-10 -177v64h526v113h-426v715h72v-651h273v651h72v-651h77v-177h26v-64h-620z" />
    <glyph glyph-name="uni0428.medi" vert-adv-y="1200" 
d="M-10 828v64h620v-64h-620zM-10 -177v64h620v-64h-620zM53 -1v715h73v-650h138v650h72v-650h138v650h73v-715h-494z" />
    <glyph glyph-name="uni0429.medi" vert-adv-y="1200" 
d="M-10 828v64h620v-64h-620zM-10 -177v64h526v113h-463v715h73v-651h121v651h73v-651h115v651h72v-651h77v-177h26v-64h-620z" />
    <glyph glyph-name="uni040F.medi" vert-adv-y="1200" 
d="M-10 828v64h620v-64h-620zM-10 -177v64h276v113h-176v715h72v-651h276v651h72v-715h-176v-113h276v-64h-620z" />
    <glyph glyph-name="uni042C.medi" vert-adv-y="1200" 
d="M-10 828v64h620v-64h-620zM-10 -177v64h620v-64h-620zM88 0v715h72v-277h162c138 0 222 -66 222 -214c0 -150 -88 -224 -231 -224h-225zM160 64h155c106 0 152 62 152 160c0 92 -47 150 -141 150h-166v-310z" />
    <glyph glyph-name="uni042B.medi" vert-adv-y="1200" 
d="M-10 828v64h620v-64h-620zM-10 -177v64h620v-64h-620zM48 0v715h73v-277h93c117 0 189 -80 189 -221c0 -145 -74 -217 -189 -217h-166zM121 64h86c75 0 122 50 122 155c0 92 -43 155 -114 155h-94v-310zM479 0v715h73v-715h-73z" />
    <glyph glyph-name="uni042A.medi" vert-adv-y="1200" 
d="M-10 828v64h620v-64h-620zM-10 -177v64h620v-64h-620zM14 651v64h182v-277h165c134 0 216 -75 216 -216c0 -137 -85 -222 -224 -222h-230v651h-109zM196 64h162c90 0 144 61 144 158c0 94 -50 152 -136 152h-170v-310z" />
    <glyph glyph-name="uni0409.medi" vert-adv-y="1200" 
d="M-10 828v64h620v-64h-620zM-10 -177v64h620v-64h-620zM0 -3v63c10 -5 28 -10 45 -10c35 0 55 27 57 111l19 554h232v-277h57c111 0 167 -78 167 -216c0 -137 -59 -222 -174 -222h-122v651h-87l-20 -505c-6 -122 -48 -161 -117 -161c-20 0 -46 4 -57 12zM353 64h50
c66 0 99 61 99 158c0 92 -30 152 -91 152h-58v-310z" />
    <glyph glyph-name="uni040A.medi" vert-adv-y="1200" 
d="M-10 828v64h620v-64h-620zM-10 -177v64h620v-64h-620zM47 0v715h73v-295h161v295h72v-295h57c111 0 167 -69 167 -207c0 -137 -59 -213 -174 -213h-122v356h-161v-356h-73zM353 64h50c66 0 99 53 99 149c0 92 -30 143 -91 143h-58v-292z" />
    <glyph glyph-name="uni0405.medi" vert-adv-y="1200" 
d="M-10 828v64h620v-64h-620zM-10 -177v64h620v-64h-620zM53 237h76c8 -109 66 -187 191 -187c107 0 148 62 148 143c0 108 -65 125 -191 157c-100 27 -199 63 -199 194c0 114 83 184 212 184c139 0 225 -83 234 -219h-76c-10 99 -57 156 -158 156c-86 0 -136 -42 -136 -118
c0 -95 68 -115 161 -138c127 -33 229 -69 229 -214c0 -115 -73 -208 -222 -208c-151 0 -261 89 -269 250z" />
    <glyph glyph-name="uni0404.medi" vert-adv-y="1200" 
d="M-10 828v64h620v-64h-620zM-10 -177v64h620v-64h-620zM72 359c0 224 87 369 233 369c129 0 202 -92 223 -214l-77 -1c-18 85 -58 151 -146 151c-109 0 -153 -124 -158 -275h209v-64h-208c5 -156 46 -274 157 -274c102 0 138 88 149 176h76c-18 -142 -92 -240 -225 -240
c-150 0 -233 143 -233 372z" />
    <glyph glyph-name="uni042D.medi" vert-adv-y="1200" 
d="M-10 828v64h620v-64h-620zM-10 -177v64h620v-64h-620zM70 227h76c11 -88 47 -176 149 -176c111 0 152 118 157 274h-208v64h209c-5 151 -49 275 -158 275c-88 0 -128 -66 -146 -151l-77 1c21 122 94 214 223 214c147 0 233 -130 233 -369c0 -241 -82 -372 -232 -372
c-134 0 -208 98 -226 240z" />
    <glyph glyph-name="uni0406.medi" vert-adv-y="1200" 
d="M-10 828v64h620v-64h-620zM-10 -177v64h620v-64h-620zM88 0v64h175v587h-175v64h424v-64h-176v-587h176v-64h-424z" />
    <glyph glyph-name="uni0407.medi" vert-adv-y="1200" 
d="M-10 828v64h194v9h84v-9h65v9h84v-9h193v-64h-193v-11h-84v11h-65v-11h-84v11h-194zM-10 -177v64h620v-64h-620zM88 0v64h175v587h-175v64h424v-64h-176v-587h176v-64h-424z" />
    <glyph glyph-name="uni0408.medi" vert-adv-y="1200" 
d="M-10 828v64h620v-64h-620zM-10 -177v64h620v-64h-620zM48 207v23h73v-23c0 -91 41 -156 148 -156c108 0 151 65 151 156v508h73v-508c0 -114 -63 -220 -224 -220c-158 0 -221 106 -221 220z" />
    <glyph glyph-name="uni040B.medi" vert-adv-y="1200" 
d="M-10 828v64h620v-64h-620zM-10 -177v64h620v-64h-620zM13 651v64h358v-64h-143v-202h2c31 23 81 43 134 43c91 0 172 -58 172 -187v-305h-73v295c0 92 -49 133 -116 133c-44 0 -87 -20 -119 -50v-378h-72v651h-143z" />
    <glyph glyph-name="uni042E.medi" vert-adv-y="1200" 
d="M-10 828v64h620v-64h-620zM-10 -177v64h620v-64h-620zM47 0v715h73v-323h92c5 220 56 336 180 336c130 0 175 -129 175 -370c0 -239 -45 -371 -176 -371c-123 0 -175 117 -179 341h-92v-328h-73zM286 358c0 -200 28 -307 105 -307c80 0 102 115 102 306
c0 199 -23 307 -101 307s-106 -105 -106 -306z" />
    <glyph glyph-name="uni042F.medi" vert-adv-y="1200" 
d="M-10 828v64h620v-64h-620zM-10 -177v64h620v-64h-620zM55 0v6c34 28 -22 301 149 334v2c-79 21 -130 85 -130 174c0 130 68 199 210 199h224v-715h-73v306h-153c-177 0 -120 -257 -146 -306h-81zM147 513c0 -96 53 -143 153 -143h135v281h-145c-99 0 -143 -47 -143 -138z
" />
    <glyph glyph-name="uni0402.medi" vert-adv-y="1200" 
d="M-10 828v64h620v-64h-620zM-10 -177v64h452c13 8 21 25 21 55v353c0 92 -49 133 -116 133c-44 0 -87 -20 -119 -50v-378h-72v651h-143v64h358v-64h-143v-202h2c31 23 81 43 134 43c91 0 172 -58 172 -187v-374c0 -17 -2 -31 -6 -44h80v-64h-142c-12 -3 -25 -5 -38 -5
c-22 0 -40 2 -54 5h-386z" />
    <glyph glyph-name="uni0496.medi" vert-adv-y="1200" 
d="M-10 828v64h620v-64h-620zM-10 -177v64h539v113h-25l-111 316h-55l-1 -316h-73v316h-56l-112 -316h-91l150 352l-137 363h82l109 -334h55v334h73l1 -334h57l107 334h81l-137 -363l122 -288h29v-177h13v-64h-620z" />
    <glyph glyph-name="uni049A.medi" vert-adv-y="1200" 
d="M-10 828v64h620v-64h-620zM-10 -177v64h538v113h-27l-241 316h-64v-316h-72v715h72v-334h65l241 334h81l-266 -360l227 -291h52v-177h14v-64h-620z" />
    <glyph glyph-name="uni04A2.medi" vert-adv-y="1200" 
d="M81 0v715h73v-309h292v309h73v-651h35v-177h56v-64h-620v64h496v113h-40v342h-292v-342h-73zM-10 828v64h620v-64h-620z" />
    <glyph glyph-name="uni04AE.medi" vert-adv-y="1200" 
d="M-10 828v64h620v-64h-620zM-10 -177v64h620v-64h-620zM24 715h79l196 -365h2l197 365h78l-240 -422v-293h-72v293z" />
    <glyph glyph-name="uni04B0.medi" vert-adv-y="1200" 
d="M-10 828v64h620v-64h-620zM-10 -177v64h620v-64h-620zM24 715h79l196 -365h2l197 365h78l-240 -422v-38h167v-57h-167v-198h-72v198h-167v57h167v38z" />
    <glyph glyph-name="uni04B2.medi" vert-adv-y="1200" 
d="M-10 828v64h620v-64h-620zM-10 -177v64h515v113h-25l-183 313h-1l-179 -313h-81l222 367l-211 348h84l169 -296h1l172 296h81l-212 -349l184 -302h47v-177h37v-64h-620z" />
    <glyph glyph-name="uni04B6.medi" vert-adv-y="1200" 
d="M-10 828v64h620v-64h-620zM-10 -177v64h476v113h-43v273h-2c-35 -29 -94 -50 -157 -50c-107 0 -200 60 -200 219v273h73v-273c0 -108 60 -155 143 -155c61 0 111 23 143 57v371h73v-651h38v-177h76v-64h-620z" />
    <glyph glyph-name="uni04BA.medi" vert-adv-y="1200" 
d="M-10 828v64h620v-64h-620zM-10 -177v64h620v-64h-620zM104 0v715h73v-273h2c35 29 94 50 157 50c107 0 200 -60 200 -219v-273h-73v273c0 108 -60 155 -143 155c-61 0 -110 -23 -143 -57v-371h-73z" />
    <glyph glyph-name="uni04D8.medi" vert-adv-y="1200" 
d="M-10 828v64h620v-64h-620zM-10 -177v64h620v-64h-620zM67 331c0 14 0 31 2 45l388 1c-5 208 -72 287 -158 287c-66 0 -123 -40 -141 -158h-78c23 162 122 222 219 222c139 0 233 -133 233 -372s-95 -370 -238 -370c-136 0 -227 125 -227 345zM143 312
c0 -168 50 -261 152 -261c97 0 153 87 161 261h-313z" />
    <glyph glyph-name="uni04E2.medi" vert-adv-y="1200" 
d="M-10 828v64h620v-64h-185v-6h-249v6h-186zM-10 -177v64h620v-64h-620zM88 0v64h175v587h-175v64h424v-64h-176v-587h176v-64h-424z" />
    <glyph glyph-name="uni04E8.medi" vert-adv-y="1200" 
d="M-10 828v64h620v-64h-620zM-10 -177v64h620v-64h-620zM56 358c0 234 93 370 245 370c151 0 243 -136 243 -370s-92 -371 -243 -371c-152 0 -245 137 -245 371zM133 326c5 -170 58 -275 168 -275c108 0 161 104 166 275h-334zM133 390h334c-5 171 -58 274 -166 274
c-110 0 -163 -104 -168 -274z" />
    <glyph glyph-name="uni04EE.medi" vert-adv-y="1200" 
d="M-10 828v64h620v-64h-185v-6h-249v6h-186zM-10 -177v64h620v-64h-620zM81 241v474h73v-474c0 -129 48 -190 146 -190c97 0 146 61 146 190v474h73v-474c0 -151 -64 -254 -219 -254s-219 102 -219 254z" />
    <glyph glyph-name="uni0410.fina.ss01" vert-adv-y="1200" 
d="M-10 -177v64h444c155 0 236 83 236 237v467c0 154 -81 237 -236 237h-444v64h444c200 0 302 -105 302 -301v-467c0 -197 -102 -301 -302 -301h-444zM38 0l221 715h81l222 -715h-78l-57 198h-257l-56 -198h-76zM192 263h214l-105 383h-4z" />
    <glyph glyph-name="uni0411.fina.ss01" vert-adv-y="1200" 
d="M-10 -177v64h444c155 0 236 83 236 237v467c0 154 -81 237 -236 237h-444v64h444c200 0 302 -105 302 -301v-467c0 -197 -102 -301 -302 -301h-444zM88 0v715h404v-64h-332v-213h162c138 0 222 -66 222 -214c0 -150 -88 -224 -231 -224h-225zM160 64h155
c106 0 152 62 152 160c0 92 -47 150 -141 150h-166v-310z" />
    <glyph glyph-name="uni0412.fina.ss01" vert-adv-y="1200" 
d="M-10 -177v64h444c155 0 236 83 236 237v467c0 154 -81 237 -236 237h-444v64h444c200 0 302 -105 302 -301v-467c0 -197 -102 -301 -302 -301h-444zM88 0v715h244c117 0 188 -68 188 -180c0 -84 -41 -129 -94 -151v-2c67 -16 118 -77 118 -177c0 -135 -80 -205 -198 -205
h-258zM160 64h181c89 0 127 57 127 141s-45 139 -114 139h-194v-280zM160 408h176c74 0 108 49 108 120c0 74 -38 123 -109 123h-175v-243z" />
    <glyph glyph-name="uni0413.fina.ss01" vert-adv-y="1200" 
d="M-10 -177v64h444c155 0 236 83 236 237v467c0 154 -81 237 -236 237h-444v64h444c200 0 302 -105 302 -301v-467c0 -197 -102 -301 -302 -301h-444zM167 0v715h380v-64h-307v-651h-73z" />
    <glyph glyph-name="uni0403.fina.ss01" vert-adv-y="1200" 
d="M-10 -177v64h444c155 0 236 83 236 237v467c0 154 -81 237 -236 237h-39l-20 -30h-54l14 30h-345v64h375l18 38h78l-25 -38c199 -1 300 -106 300 -301v-467c0 -197 -102 -301 -302 -301h-444zM167 0v715h380v-64h-307v-651h-73z" />
    <glyph glyph-name="uni0490.fina.ss01" vert-adv-y="1200" 
d="M-10 -177v64h444c155 0 236 83 236 237v467c0 154 -81 237 -236 237h-444v64h444c200 0 302 -105 302 -301v-467c0 -197 -102 -301 -302 -301h-444zM147 0v715h312v99h68v-163h-307v-651h-73z" />
    <glyph glyph-name="uni0492.fina.ss01" vert-adv-y="1200" 
d="M-10 -177v64h444c155 0 236 83 236 237v467c0 154 -81 237 -236 237h-444v64h444c200 0 302 -105 302 -301v-467c0 -197 -102 -301 -302 -301h-444zM27 321v57h140v337h380v-64h-307v-273h200v-57h-200v-321h-73v321h-140z" />
    <glyph glyph-name="uni0414.fina.ss01" vert-adv-y="1200" 
d="M-10 -177v64h28v177h45c53 0 71 54 77 180l21 471h346v-651h77v-138c57 39 86 106 86 198v467c0 154 -81 237 -236 237h-444v64h444c200 0 302 -105 302 -301v-467c0 -197 -102 -301 -302 -301h-444zM85 -113h349c30 0 58 3 82 9v104h-431v-113zM171 64h264v588h-202
l-21 -449c-3 -70 -18 -110 -41 -137v-2z" />
    <glyph glyph-name="uni0415.fina.ss01" vert-adv-y="1200" 
d="M-10 -177v64h444c155 0 236 83 236 237v467c0 154 -81 237 -236 237h-444v64h444c200 0 302 -105 302 -301v-467c0 -197 -102 -301 -302 -301h-444zM98 0v715h433v-64h-360v-246h321v-64h-321v-277h370v-64h-443z" />
    <glyph glyph-name="uni0400.fina.ss01" vert-adv-y="1200" 
d="M-10 -177v64h444c155 0 236 83 236 237v467c0 154 -81 237 -236 237h-104l12 -30h-54l-18 30h-280v64h241l-23 38h79l16 -38h131c200 0 302 -105 302 -301v-467c0 -197 -102 -301 -302 -301h-444zM98 0v715h433v-64h-360v-246h321v-64h-321v-277h370v-64h-443z" />
    <glyph glyph-name="uni0401.fina.ss01" vert-adv-y="1200" 
d="M-10 -177v64h444c155 0 236 83 236 237v467c0 154 -81 237 -235 237v-11h-84v11h-65v-11h-84v11h-212v64h212v9h84v-9h65v9h84v-9c199 0 301 -105 301 -301v-467c0 -197 -102 -301 -302 -301h-444zM98 0v715h433v-64h-360v-246h321v-64h-321v-277h370v-64h-443z" />
    <glyph glyph-name="uni0416.fina.ss01" vert-adv-y="1200" 
d="M-10 -177v64h444c155 0 236 83 236 237v467c0 154 -81 237 -236 237h-444v64h444c200 0 302 -105 302 -301v-467c0 -197 -102 -301 -302 -301h-444zM5 0l150 352l-137 363h82l109 -334h55v334h73l1 -334h57l107 334h81l-137 -363l149 -352h-91l-111 316h-55l-1 -316h-73
v316h-56l-112 -316h-91z" />
    <glyph glyph-name="uni0417.fina.ss01" vert-adv-y="1200" 
d="M-10 -177v64h444c155 0 236 83 236 237v467c0 154 -81 237 -236 237h-444v64h444c200 0 302 -105 302 -301v-467c0 -197 -102 -301 -302 -301h-444zM57 194h74c0 -95 80 -144 165 -144c96 0 160 58 160 141c0 75 -54 137 -155 137h-77v64h70c94 0 142 59 142 133
c0 84 -66 136 -147 136c-76 0 -150 -45 -150 -137h-74c0 134 113 201 225 201c110 0 220 -64 220 -194c0 -75 -38 -138 -114 -169v-2c81 -25 134 -78 134 -170c0 -131 -105 -204 -236 -204c-126 0 -237 70 -237 208z" />
    <glyph glyph-name="uni0418.fina.ss01" vert-adv-y="1200" 
d="M-10 -177v64h444c155 0 236 83 236 237v467c0 154 -81 237 -236 237h-444v64h444c200 0 302 -105 302 -301v-467c0 -197 -102 -301 -302 -301h-444zM81 0v715h72v-612h2l275 612h89v-715h-72v612h-1l-276 -612h-89z" />
    <glyph glyph-name="uni0419.fina.ss01" vert-adv-y="1200" 
d="M-10 -177v64h444c155 0 236 83 236 237v467c0 154 -81 237 -236 237h-46c-21 -23 -52 -35 -89 -35s-68 12 -90 35h-219v64h188c-2 9 -3 18 -3 28h50c1 -10 3 -20 5 -28h137c3 8 4 18 5 28h51c0 -10 -2 -19 -3 -28h14c200 0 302 -105 302 -301v-467
c0 -197 -102 -301 -302 -301h-444zM81 0v715h72v-612h2l275 612h89v-715h-72v612h-1l-276 -612h-89z" />
    <glyph glyph-name="uni040D.fina.ss01" vert-adv-y="1200" 
d="M-10 -177v64h444c155 0 236 83 236 237v467c0 154 -81 237 -236 237h-123l12 -30h-54l-18 30h-261v64h222l-23 38h79l16 -38h150c200 0 302 -105 302 -301v-467c0 -197 -102 -301 -302 -301h-444zM81 0v715h72v-612h2l275 612h89v-715h-72v612h-1l-276 -612h-89z" />
    <glyph glyph-name="uni041A.fina.ss01" vert-adv-y="1200" 
d="M-10 -177v64h444c155 0 236 83 236 237v467c0 154 -81 237 -236 237h-444v64h444c200 0 302 -105 302 -301v-467c0 -197 -102 -301 -302 -301h-444zM124 0v715h72v-334h65l241 334h81l-266 -360l277 -355h-93l-241 316h-64v-316h-72z" />
    <glyph glyph-name="uni040C.fina.ss01" vert-adv-y="1200" 
d="M-10 -177v64h444c155 0 236 83 236 237v467c0 154 -81 237 -236 237h-52l-20 -30h-54l14 30h-332v64h362l18 38h78l-25 -38h11c200 0 302 -105 302 -301v-467c0 -197 -102 -301 -302 -301h-444zM124 0v715h72v-334h65l241 334h81l-266 -360l277 -355h-93l-241 316h-64
v-316h-72z" />
    <glyph glyph-name="uni041B.fina.ss01" vert-adv-y="1200" 
d="M-10 -177v64h444c155 0 236 83 236 237v467c0 154 -81 237 -236 237h-444v64h444c200 0 302 -105 302 -301v-467c0 -197 -102 -301 -302 -301h-444zM0 -3v63c13 -5 33 -10 57 -10c53 0 82 24 85 111l19 554h349v-715h-72v651h-205l-19 -487c-6 -134 -56 -179 -148 -179
c-27 0 -51 4 -66 12z" />
    <glyph glyph-name="uni041C.fina.ss01" vert-adv-y="1200" 
d="M-10 -177v64h444c155 0 236 83 236 237v467c0 154 -81 237 -236 237h-444v64h444c200 0 302 -105 302 -301v-467c0 -197 -102 -301 -302 -301h-444zM67 0v715h91l141 -474h2l141 474h91v-715h-73v603h-1l-126 -437h-67l-125 437h-1v-603h-73z" />
    <glyph glyph-name="uni041D.fina.ss01" vert-adv-y="1200" 
d="M-10 -177v64h444c155 0 236 83 236 237v467c0 154 -81 237 -236 237h-444v64h444c200 0 302 -105 302 -301v-467c0 -197 -102 -301 -302 -301h-444zM81 0v715h73v-309h292v309h73v-715h-73v342h-292v-342h-73z" />
    </font>
</defs>
</svg>
