<svg width="180" height="210" viewBox="0 0 180 210" fill="none" xmlns="http://www.w3.org/2000/svg">
<path d="M168.055 87.7742V69.5663H143.885V27.0588H125.395V45.1049H107.279V63.4392H125.395V172.948H34.1368V63.4363H52.4886V45.3314H70.6048V27H52.4886V45.1049H34.1368V27.0588H16V191H143.885V142.427H168.055V124.278H179.997V87.7742H168.055ZM143.885 124.275V87.7712H161.86V124.275H143.885Z" fill="#1F1F1F"/>
<path d="M70.6045 63.4375H52.4883V81.7718H70.6045V63.4375Z" fill="#1F1F1F"/>
<path d="M89.0705 45.3343H107.184V27H89.0705V45.1049H70.7188V63.4363H89.0705V45.3343Z" fill="#1F1F1F"/>
<path d="M107.187 63.4375H89.0703V81.7718H107.187V63.4375Z" fill="#1F1F1F"/>
</svg>
