<svg width="180" height="210" viewBox="0 0 180 210" fill="none" xmlns="http://www.w3.org/2000/svg">
<path d="M160.055 83.7742V65.5663H135.885V23.0588H117.395V41.1049H99.2789V59.4392H117.395V168.948H26.1368V59.4363H44.4886V41.3314H62.6048V23H44.4886V41.1049H26.1368V23.0588H8V187H135.885V138.427H160.055V120.278H171.997V83.7742H160.055ZM135.885 120.275V83.7712H153.86V120.275H135.885Z" fill="#1F1F1F"/>
<path d="M62.6045 59.4375H44.4883V77.7718H62.6045V59.4375Z" fill="#1F1F1F"/>
<path d="M81.0705 41.3343H99.1838V23H81.0705V41.1049H62.7188V59.4363H81.0705V41.3343Z" fill="#1F1F1F"/>
<path d="M99.1865 59.4375H81.0703V77.7718H99.1865V59.4375Z" fill="#1F1F1F"/>
</svg>
