<svg width="180" height="210" viewBox="0 0 180 210" fill="none" xmlns="http://www.w3.org/2000/svg">
<path d="M176 74.5289H163.79V43.9486H145.586V31.6134H127.114V13H53.8802V31.6134H35.3816V43.9486H17.0039V74.408H4V135.545H16.9832V166.219H35.4701V129.541H23.1209V80.583H35.4701V49.9851H72.1576V31.7195H108.878V49.9851H145.586V80.6419H157.82V129.541H145.586V160.198H108.857V178.446H72.137V160.198H35.473V178.446H53.7032V197H127.114V178.446H145.586V166.231H163.819V135.663H176V74.5289Z" fill="#1F1F1F"/>
<path d="M47.6875 138.801H65.9207V150.974H81.175V166.573H99.8771V150.974H114.878V132.724H65.9207V120.453H47.6875V138.801Z" fill="#1F1F1F"/>
<path d="M133.147 108.219H114.914V138.746H133.147V108.219Z" fill="#1F1F1F"/>
<path d="M81.175 43.9453V59.2133H65.9207V71.5043H47.6875V102.031H65.9207V114.29H114.878V95.9685H66.0033C66.0121 90.4243 66.021 85.0687 66.0268 79.436C66.0268 78.7257 66.0268 78.1274 66.0209 77.5614H114.881V89.8525H133.114V71.5043H114.881V59.2133H99.88V43.9453H81.175Z" fill="#1F1F1F"/>
</svg>
