<svg width="180" height="210" viewBox="0 0 180 210" fill="none" xmlns="http://www.w3.org/2000/svg">
<path d="M162.912 50.1431H156.985H156.868V32H24.019V49.3944H23.9575V50.1431H17.9605V50.1579H5V159.883H23.899V178H156.868V159.883H24.0073V68.4749H42.022V50.1431H138.734V68.4749H156.985V159.883H175V50.1431H162.912Z" fill="#1F1F1F"/>
<path d="M102.468 105H78.2891V123.237H102.468V105Z" fill="#1F1F1F"/>
<path d="M78.2871 86.7188H60.2461V104.997H78.2871V86.7188Z" fill="#1F1F1F"/>
<path d="M120.721 86.7188H102.469V104.997H120.721V86.7188Z" fill="#1F1F1F"/>
<path d="M60.2489 68.4766H42.0234V86.7229H60.2489V68.4766Z" fill="#1F1F1F"/>
<path d="M138.732 68.4766H120.715V86.7229H138.732V68.4766Z" fill="#1F1F1F"/>
</svg>
