<svg width="180" height="210" viewBox="0 0 180 210" fill="none" xmlns="http://www.w3.org/2000/svg">
<path d="M93.4368 5C37.32 5 3 49.3042 3 105.375C3 163.697 33.0613 206 89.4309 206C123.751 206 143.795 189.981 155.818 167.703H156.318L161.83 203.999H176.109V103.374H91.4339V119.643H155.815C155.815 161.693 127.757 187.977 89.428 187.977C39.3229 187.977 23.0408 145.424 23.0408 105.375C23.0408 65.3262 43.3346 23.0232 93.4368 23.0232C123.748 23.0232 145.795 37.0409 151.806 65.3262H172.097C166.086 29.03 139.783 5 93.4368 5Z" fill="#1F1F1F"/>
</svg>
