<svg width="180" height="210" viewBox="0 0 180 210" fill="none" xmlns="http://www.w3.org/2000/svg">
<path d="M77.7195 209V197.466H53.3987V173.127H16.9189V197.466H41.2397V209H16.9189V197.466H4V173.127H16.9189V160.959H29.0778V148.791H41.3193V99.3674H16.9189V81.5487H4V27.0994H16.9189V14.9314H41.2397V2H102.04V14.9285H138.52V39.2674H162.841V63.6063H175V136.62H150.679V148.9H138.52V112.302H126.355V75.7507H114.202V63.6063H102.043V51.4383H89.8844V27.0994H65.5635V100.001H89.8844V112.281H65.5635V124.449H53.4046V148.788H89.8844V160.956H114.082V148.897H138.523V160.956L126.364 161.145V173.313L110.14 173.124H102.043V197.463H89.8844V208.997H77.7254L77.7195 209ZM41.2397 81.5487V51.4353H53.3987V27.0964H16.9189V81.5458H41.2397V81.5487ZM89.8814 100.113V87.9452H102.04V100.113H89.8814Z" fill="#1F1F1F"/>
</svg>
