<svg width="285" height="76" viewBox="0 0 285 76" fill="none" xmlns="http://www.w3.org/2000/svg">
<g clip-path="url(#clip0_217_451)">
<path d="M29.4844 71.0106V75.3612H33.8085V71.0106H29.4844ZM19.9946 75.3612H0.0664062V73.1859H3.67693V42.5972H0.0664062V40.4219H19.9928V42.5972H7.28034V73.1859H19.9946V75.3612ZM24.3169 73.1859H19.9928V71.0106H22.1548V68.7905H24.7671V64.4399H27.422V51.3432H24.7671V46.9926H22.1548V44.7725H19.9928V42.5972H24.3169V44.7725H26.4789V46.9926H29.0431V51.3432H31.2052V64.4399H29.0431V68.7905H26.4789V71.0106H24.3169V73.1859Z" fill="#1F1F1F"/>
<path d="M0 18.1849C0 7.79354 6.28505 0 16.1735 0C24.5049 0 29.2792 4.41151 30.4964 11.0288H26.8431C25.82 5.93154 21.777 3.13675 16.1735 3.13675C7.45416 3.13675 3.70128 10.882 3.70128 18.1849C3.70128 25.4879 6.72102 33.183 15.734 33.183C22.5048 33.183 27.5229 28.2326 27.5229 20.8795H15.9778V17.6944H31.08V35.6824H28.644L27.5727 29.4572H27.4749C25.2826 33.5751 21.6774 36.3197 15.734 36.3197C5.50565 36.3215 0 28.6247 0 18.1849Z" fill="#1F1F1F"/>
<path d="M34.7617 23.8744V0.640625H38.3189V23.8744C38.3189 30.1479 41.4365 33.188 47.8674 33.188C54.2984 33.188 57.416 30.1497 57.416 23.8744V0.640625H60.9732V23.8744C60.9732 31.3242 56.9783 36.3248 47.8692 36.3248C38.7602 36.3248 34.7635 31.326 34.7635 23.8744H34.7617Z" fill="#1F1F1F"/>
<path d="M65.2949 35.6874V0.640625H68.8521V35.6874H65.2949Z" fill="#1F1F1F"/>
<path d="M73.5957 35.6874V0.640625H77.1528V32.5506H95.9582V35.6874H73.5975H73.5957Z" fill="#1F1F1F"/>
<path d="M98.3926 35.6874V0.640625H101.95V32.5506H120.755V35.6874H98.3944H98.3926Z" fill="#1F1F1F"/>
<path d="M121.875 35.6874L134.883 0.640625H138.878L151.983 35.6874H148.184L144.677 25.9817H129.039L125.532 35.6874H121.879H121.875ZM130.206 22.7948H143.554L136.929 4.02266H136.831L130.206 22.7948Z" fill="#1F1F1F"/>
<path d="M151.939 23.8744V0.640625H155.497V23.8744C155.497 30.1479 158.614 33.188 165.045 33.188C171.476 33.188 174.594 30.1497 174.594 23.8744V0.640625H178.151V23.8744C178.151 31.3242 174.156 36.3248 165.047 36.3248C155.938 36.3248 151.941 31.326 151.941 23.8744H151.939Z" fill="#1F1F1F"/>
<path d="M182.293 35.6874V0.640625H187.213L198.954 30.8838H199.052L210.842 0.640625H215.763V35.6874H212.206V5.68951H212.108L200.611 35.6874H197.395L185.946 5.68951H185.848V35.6874H182.291H182.293Z" fill="#1F1F1F"/>
<path d="M219.973 35.6874V0.640625H243.6V3.77738H223.53V15.8356H241.458V18.9724H223.53V32.5488H244.138V35.6856H219.974L219.973 35.6874Z" fill="#1F1F1F"/>
<path d="M44.9199 57.8646C44.9199 47.2781 51.3989 39.6797 60.9475 39.6797C69.0832 39.6797 74.3931 44.9237 75.2704 51.4926H71.5673C70.8858 47.5717 68.0102 42.8164 60.8977 42.8164C52.4702 42.8164 48.6212 50.0209 48.6212 57.8646C48.6212 65.7083 52.5182 72.8627 60.8977 72.8627C68.254 72.8627 71.3235 67.7654 71.7132 62.9117H75.4163C74.5889 70.5584 69.1811 75.9994 60.8995 75.9994C51.4488 75.9994 44.9199 68.4995 44.9199 57.8628V57.8646Z" fill="#1F1F1F"/>
<path d="M78.6816 75.3593V40.3125H82.2388V55.4591H101.969V40.3125H105.477V75.3593H101.969V58.5959H82.2388V75.3593H78.6816Z" fill="#1F1F1F"/>
<path d="M107.719 75.3593L120.727 40.3125H124.721L137.827 75.3593H134.028L130.521 65.6536H114.883L111.376 75.3593H107.722H107.719ZM116.05 62.4685H129.398L122.773 43.6945H122.675L116.05 62.4685Z" fill="#1F1F1F"/>
<path d="M139.968 75.3593V40.3125H144.889L156.629 70.5557H156.727L168.516 40.3125H173.436V75.3593H169.879V45.3614H169.781L158.284 75.3593H155.069L143.62 45.3614H143.522V75.3593H139.965H139.968Z" fill="#1F1F1F"/>
<path d="M177.92 75.3593V40.3125H191.317C197.748 40.3125 202.571 43.0572 202.571 50.4103C202.571 57.7634 197.748 60.5564 191.317 60.5564H181.477V75.3593H177.92ZM191.659 57.4196C196.385 57.4196 198.869 55.2139 198.869 50.4103C198.869 45.6067 196.385 43.4493 191.659 43.4493H181.477V57.4196H191.659Z" fill="#1F1F1F"/>
<path d="M204.471 75.3593V40.3125H228.098V43.4493H208.028V55.5075H225.956V58.6442H208.028V72.2207H228.636V75.3575H204.472L204.471 75.3593Z" fill="#1F1F1F"/>
<path d="M229.609 75.3593L242.617 40.3125H246.612L259.718 75.3593H255.919L252.411 65.6536H236.773L233.266 75.3593H229.613H229.609ZM237.941 62.4685H251.289L244.664 43.6945H244.566L237.941 62.4685Z" fill="#1F1F1F"/>
<path d="M258.791 63.5463V40.3125H262.348V63.5463C262.348 69.8198 265.466 72.8599 271.897 72.8599C278.328 72.8599 281.445 69.8216 281.445 63.5463V40.3125H285.002V63.5463C285.002 70.9961 281.008 75.9966 271.899 75.9966C262.789 75.9966 258.793 70.9979 258.793 63.5463H258.791Z" fill="#1F1F1F"/>
</g>
<defs>
<clipPath id="clip0_217_451">
<rect width="285" height="76" fill="white"/>
</clipPath>
</defs>
</svg>
