<svg width="180" height="210" viewBox="0 0 180 210" fill="none" xmlns="http://www.w3.org/2000/svg">
<path d="M99 20H81V52H99V20Z" fill="#1F1F1F"/>
<path d="M132.745 44.2656H47.8711V62.4961H132.745V44.2656Z" fill="#1F1F1F"/>
<path d="M29.5701 80.6756H11V110.87H29.5701V171.602H47.87V159.427H72.1201V141.408H47.87V62.4922H29.5701V80.6756Z" fill="#1F1F1F"/>
<path d="M168.998 80.6756H150.81V62.4922H132.742V141.408H108.492V159.479H132.742V159.679V171.602V171.704H144.857V171.602H150.81V110.87H168.998V80.6756Z" fill="#1F1F1F"/>
<path d="M132.745 171.82H47.8711V189.995H132.745V171.82Z" fill="#1F1F1F"/>
<path d="M78.0626 86.625H53.8125V110.873H78.0626V86.625Z" fill="#1F1F1F"/>
<path d="M126.566 86.625H102.316V110.873H126.566V86.625Z" fill="#1F1F1F"/>
<path d="M102.315 141.406H78.0977V159.478H102.315V141.406Z" fill="#1F1F1F"/>
</svg>
