<svg width="180" height="210" viewBox="0 0 180 210" fill="none" xmlns="http://www.w3.org/2000/svg">
<path d="M175 133.171V48.0102H163.503V35.9726H151.372V17H127.06V35.8432H109.004V60.1743H90.6862V72.3414H72.6039V90.5963H54.2864V108.922H36.204V127.097H17.8866V145.273H5V169.584H17.8895V181.792H29.6094V187.741H48.3236V193.997H108.995V187.741H127.08V169.666H145.398V157.458H163.48V133.18H145.398V145.317H127.08V133.188L145.398 133.177V66.3211L139.144 66.3299H127.083V35.9638H139.191V54.1776H157.532V133.165H175V133.171ZM96.8694 90.6669H109.001V102.802H96.8694V90.6669ZM72.4481 120.968H84.7234V133.171H72.4481V120.968ZM127.083 163.66H109.001V175.598H36.254V163.531H24.0757V145.27H36.1658L36.1835 151.314H48.3265V163.454H108.836V151.314H127.08V163.657L127.083 163.66Z" fill="#1F1F1F"/>
</svg>
