<svg width="180" height="210" viewBox="0 0 180 210" fill="none" xmlns="http://www.w3.org/2000/svg">
<path d="M71.9339 68.7812H47.8633V92.9089H71.9339V68.7812Z" fill="#1F1F1F"/>
<path d="M176 74.8581H163.79V44.6136H145.584V32.4121H127.115V14H53.8778V32.4121H35.3818V44.6136H17.0044V74.7409H4V135.212H16.9836V165.556H35.4708V129.271H23.1213V80.846H35.4708V50.581H72.1575V32.5146H108.877V50.581H145.584V80.9046H157.821V129.271H145.584V159.598H108.856V177.646H72.1367V159.598H35.4737V177.646H53.703V196H127.115V177.646H145.584V165.565H163.82V135.329H176V74.8581Z" fill="#1F1F1F"/>
<path d="M133.016 68.7812H108.945V92.9089H133.016V68.7812Z" fill="#1F1F1F"/>
<path d="M41.4688 123.368H53.7678V141.417H72.1838V153.46H108.891V141.417H127.115V123.292H139.348V105.164H121.113V123.292H108.879V135.409H72.1867V123.213H59.8847V105.164H41.4688V123.368Z" fill="#1F1F1F"/>
</svg>
