<svg width="28" height="32" viewBox="0 0 28 32" fill="none" xmlns="http://www.w3.org/2000/svg">
<g clip-path="url(#clip0_314_416)">
<path d="M27.0759 11.3955H25.2198V6.74528H22.4526V4.86952H19.6446V2.03906H8.51212V4.86952H5.70009V6.74528H2.90645V11.3771H0.929688V20.6739H2.90331V25.3384H5.71354V19.7609H3.83632V12.3161H5.71354V7.66322H11.2905V4.88565H16.8724V7.66322H22.4526V12.3251H24.3123V19.7609H22.4526V24.4227H16.8693V27.1976H11.2874V24.4227H5.71399V27.1976H8.48522V30.0191H19.6446V27.1976H22.4526V25.3402H25.2242V20.6918H27.0759V11.3955Z" fill="#1F1F1F"/>
<path d="M7.57031 21.1729H10.342V23.024H12.6608V25.396H15.5038V23.024H17.7841V20.2487H10.342V18.3828H7.57031V21.1729Z" fill="#1F1F1F"/>
<path d="M20.5607 16.5156H17.7891V21.1578H20.5607V16.5156Z" fill="#1F1F1F"/>
<path d="M12.6608 6.74219V9.06392H10.342V10.933H7.57031V15.5751H10.342V17.4392H17.7841V14.6531H10.3545C10.3559 13.81 10.3572 12.9956 10.3581 12.1391C10.3581 12.0311 10.3581 11.9401 10.3572 11.854H17.7845V13.7231H20.5562V10.933H17.7845V9.06392H15.5042V6.74219H12.6608Z" fill="#1F1F1F"/>
</g>
<defs>
<clipPath id="clip0_314_416">
<rect width="27.3623" height="31.9337" fill="white" transform="translate(0.320312 0.0625)"/>
</clipPath>
</defs>
</svg>
